<svg width="28.000000" height="27.000000" viewBox="0 0 28 27" fill="none" xmlns="http://www.w3.org/2000/svg" xmlns:xlink="http://www.w3.org/1999/xlink">
	<desc>
			Created with Pixso.
	</desc>
	<defs/>
	<path id="Vector" d="M23.57 17.05C21.37 13.83 19.01 10.31 13.47 11.79C11 12.45 9.35 13.73 8.44 15.68C7.64 17.42 7.49 19.45 7.34 21.39C7.16 23.77 9.63 25.46 11.79 24.41C13.56 23.56 15.96 22.26 19.81 21.99C21.3 21.88 21.44 21.89 21.83 21.78C23.83 21.25 24.8 18.84 23.57 17.05Z" fill="#FBDD7B" fill-opacity="1.000000" fill-rule="nonzero"/>
	<path id="Vector" d="M21.83 21.78C23.83 21.25 24.8 18.84 23.57 17.05C21.37 13.83 19.01 10.31 13.47 11.79L16.35 22.57C19.13 21.82 20.92 22.03 21.83 21.78Z" fill="#FECB3E" fill-opacity="1.000000" fill-rule="nonzero"/>
	<path id="Vector" d="M16.56 16.4L15.48 16.69L15.19 15.6C15.09 15.25 14.72 15.03 14.36 15.13C14 15.22 13.79 15.59 13.88 15.95L14.17 17.04L13.09 17.33C12.73 17.42 12.52 17.79 12.61 18.15C12.71 18.51 13.08 18.73 13.44 18.63L14.52 18.34L14.81 19.42C14.91 19.78 15.28 20 15.64 19.9C16 19.8 16.21 19.44 16.12 19.08L15.83 17.99L16.91 17.7C17.27 17.6 17.48 17.23 17.39 16.88C17.29 16.52 16.92 16.3 16.56 16.4Z" fill="#FFF8E0" fill-opacity="1.000000" fill-rule="nonzero"/>
	<path id="Vector" d="M16.12 19.08L15.83 17.99L16.91 17.7C17.27 17.6 17.48 17.23 17.39 16.88C17.29 16.52 16.92 16.3 16.56 16.4L15.48 16.69L15.19 15.6C15.09 15.25 14.72 15.03 14.36 15.13L15.64 19.9C16 19.8 16.21 19.44 16.12 19.08Z" fill="#FFE799" fill-opacity="1.000000" fill-rule="nonzero"/>
	<path id="Vector" d="M21.27 6.21C19.96 6.56 19.17 7.92 19.52 9.23C19.88 10.55 21.23 11.33 22.55 10.98C23.87 10.63 24.69 9.26 24.34 7.94C23.99 6.63 22.59 5.85 21.27 6.21Z" fill="#FECB3E" fill-opacity="1.000000" fill-rule="nonzero"/>
	<path id="Vector" d="M18.23 4.74C18.74 6.64 17.93 8.51 16.42 8.91C14.9 9.32 13.27 8.11 12.76 6.21C12.25 4.31 13.06 2.45 14.57 2.04C16.09 1.64 17.72 2.85 18.23 4.74Z" fill="#FECB3E" fill-opacity="1.000000" fill-rule="evenodd"/>
	<path id="Vector" d="M11.29 6.6C11.8 8.5 10.98 10.37 9.47 10.77C7.96 11.18 6.32 9.97 5.81 8.07C5.31 6.17 6.12 4.31 7.63 3.9C9.14 3.5 10.78 4.71 11.29 6.6Z" fill="#FBDD7B" fill-opacity="1.000000" fill-rule="evenodd"/>
	<path id="Vector" d="M3.92 10.86C2.6 11.21 1.77 12.58 2.12 13.9C2.48 15.21 3.88 15.98 5.19 15.63C6.51 15.28 7.29 13.92 6.94 12.6C6.59 11.29 5.23 10.51 3.92 10.86Z" fill="#FBDD7B" fill-opacity="1.000000" fill-rule="nonzero"/>
</svg>
