<svg width="54.000000" height="78.000000" viewBox="0 0 54 78" fill="none" xmlns="http://www.w3.org/2000/svg" xmlns:xlink="http://www.w3.org/1999/xlink">
	<desc>
			Created with Pixso.
	</desc>
	<defs/>
	<path id="Vector" d="M52.86 38.72C52.86 42.06 50.15 44.77 46.81 44.77C43.47 44.77 40.76 42.06 40.76 38.72C40.76 35.38 43.47 32.67 46.81 32.67C50.15 32.67 52.86 35.38 52.86 38.72Z" fill="#89CEEA" fill-opacity="1.000000" fill-rule="nonzero"/>
	<path id="Vector" d="M46.81 32.67C46.01 32.67 45.24 32.83 44.54 33.11C46.76 34.01 48.32 36.18 48.32 38.72C48.32 41.26 46.76 43.43 44.54 44.33C45.24 44.61 46.01 44.77 46.81 44.77C50.15 44.77 52.86 42.06 52.86 38.72C52.86 35.38 50.15 32.67 46.81 32.67Z" fill="#78C0DE" fill-opacity="1.000000" fill-rule="nonzero"/>
	<path id="Vector" d="M37.43 60.05L37.43 76.31L1.13 76.31L1.13 60.05C1.13 54.45 4.95 49.74 10.12 48.4C10.57 48.28 11.03 48.19 11.5 48.13C12.03 48.06 12.57 48.02 13.12 48.02L25.44 48.02C25.99 48.02 26.53 48.06 27.06 48.13C27.54 48.19 28 48.28 28.45 48.4C33.62 49.74 37.43 54.45 37.43 60.05Z" fill="#E8E1D5" fill-opacity="1.000000" fill-rule="nonzero"/>
	<path id="Vector" d="M28.45 48.4C28 48.28 27.54 48.19 27.06 48.13C26.53 48.06 25.99 48.02 25.44 48.02L20.9 48.02C21.45 48.02 21.99 48.06 22.53 48.13C23 48.19 23.46 48.28 23.91 48.4C29.08 49.74 32.89 54.45 32.89 60.05L32.89 76.31L37.43 76.31L37.43 60.05C37.43 54.45 33.62 49.74 28.45 48.4Z" fill="#D6CFC4" fill-opacity="1.000000" fill-rule="nonzero"/>
	<path id="Vector" d="M28.45 48.4L19.29 76.31L10.12 48.4C10.57 48.28 11.03 48.19 11.5 48.13C12.03 48.06 12.57 48.02 13.12 48.02L25.44 48.02C25.99 48.02 26.53 48.06 27.06 48.13C27.54 48.19 28 48.28 28.45 48.4Z" fill="#FF573D" fill-opacity="1.000000" fill-rule="nonzero"/>
	<path id="Vector" d="M26.13 48.02C26.67 48.02 27.07 48.53 26.94 49.06C26.26 51.7 23.09 53.7 19.28 53.7C15.47 53.7 12.3 51.7 11.63 49.06C11.49 48.53 11.89 48.02 12.44 48.02L14.78 48.02L14.78 39.18L23.78 39.18L23.78 48.02L26.13 48.02Z" fill="#EBA28C" fill-opacity="1.000000" fill-rule="nonzero"/>
	<path id="Vector" d="M19.28 76.31C19.33 75.91 15.42 51.18 14.76 47.03C14.71 46.7 14.4 46.48 14.07 46.53L7.79 47.43C7.51 47.47 7.29 47.7 7.27 47.99L6.71 56.2L9.36 57.8L8.62 61.64L19.28 76.31Z" fill="#C4BEB4" fill-opacity="1.000000" fill-rule="nonzero"/>
	<path id="Vector" d="M19.28 76.31C19.24 75.91 23.15 51.18 23.8 47.03C23.86 46.7 24.16 46.48 24.49 46.53L30.77 47.43C31.05 47.47 31.27 47.7 31.29 47.99L31.85 56.2L29.21 57.8L29.94 61.64L19.28 76.31Z" fill="#C4BEB4" fill-opacity="1.000000" fill-rule="nonzero"/>
	<path id="Vector" d="M8.24 24.35C8.24 26.6 6.6 28.43 4.58 28.43C2.56 28.43 1.28 26.34 1.28 24.08C1.28 21.42 2.56 20.26 4.58 20.26C6.6 20.26 8.24 22.09 8.24 24.35Z" fill="#EBA28C" fill-opacity="1.000000" fill-rule="nonzero"/>
	<path id="Vector" d="M30.32 24.35C30.32 26.6 31.96 28.43 33.98 28.43C36 28.43 37.28 26.34 37.28 24.08C37.28 21.42 36 20.26 33.98 20.26C31.96 20.26 30.32 22.09 30.32 24.35Z" fill="#EBA28C" fill-opacity="1.000000" fill-rule="nonzero"/>
	<path id="Vector" d="M5.97 29.6L5.97 19.75C5.97 12.82 11.59 7.2 18.52 7.2L20.04 7.2C26.97 7.2 32.59 12.82 32.59 19.75L32.59 29.6C32.59 36.95 26.64 42.9 19.29 42.9L19.27 42.9C11.92 42.9 5.97 36.95 5.97 29.6Z" fill="#FCC19C" fill-opacity="1.000000" fill-rule="nonzero"/>
	<path id="Vector" d="M20.04 7.2L18.52 7.2C18.01 7.2 17.51 7.24 17.01 7.3C23.23 8.04 28.05 13.33 28.05 19.75L28.05 29.6C28.05 36.18 23.28 41.64 17.01 42.71C17.75 42.84 18.5 42.9 19.27 42.9L19.29 42.9C26.64 42.9 32.59 36.95 32.59 29.6L32.59 19.75C32.59 12.82 26.97 7.2 20.04 7.2Z" fill="#EBA28C" fill-opacity="1.000000" fill-rule="nonzero"/>
	<path id="Vector" d="M5.97 24.23C5.97 24.33 6.06 24.4 6.15 24.38C6.76 24.25 8.67 23.73 8.84 22.21C9.05 20.39 12.48 15.25 17.92 14.74C21.89 14.38 23.81 12.3 24.57 11.19C24.72 10.97 25.06 11.04 25.11 11.3C25.41 12.7 26.23 15.62 28.06 17.26C30.48 19.44 29.75 24.22 32.43 24.41C32.51 24.42 32.59 24.35 32.59 24.26L32.59 20.48C32.59 20.08 32.92 19.75 33.32 19.75L33.38 19.75C33.72 19.75 34.01 19.53 34.09 19.2C34.42 17.81 35.12 14.11 34.07 11.21C32.74 7.58 29.04 6.07 29.04 6.07C29.04 6.07 27.78 1.13 20.08 1.13C12.37 1.13 9.35 4.37 9.35 4.37C9.35 4.37 3.5 9.39 4 13.78C4.34 16.73 4.47 18.66 4.52 19.6C4.54 19.99 4.86 20.29 5.24 20.29C5.64 20.29 5.97 20.61 5.97 21.02L5.97 24.23Z" fill="#633327" fill-opacity="1.000000" fill-rule="nonzero"/>
	<path id="Vector" d="M34.07 11.21C32.74 7.58 29.04 6.07 29.04 6.07C29.04 6.07 27.78 1.13 20.08 1.13C19.17 1.13 18.34 1.18 17.56 1.25C23.47 2.02 24.5 6.07 24.5 6.07C24.5 6.07 28.21 7.58 29.53 11.21C30.58 14.11 29.88 17.81 29.55 19.2C29.53 19.28 29.49 19.36 29.45 19.43C30.33 21.67 30.47 24.27 32.43 24.41C32.51 24.42 32.59 24.35 32.59 24.26L32.59 20.48C32.59 20.08 32.92 19.75 33.32 19.75L33.38 19.75C33.72 19.75 34.01 19.53 34.09 19.2C34.42 17.81 35.12 14.11 34.07 11.21Z" fill="#572D22" fill-opacity="1.000000" fill-rule="nonzero"/>
	<path id="Vector" d="M13.39 14.74C9.35 15.12 6.42 18.04 5.09 20.27C5.14 20.28 5.19 20.29 5.24 20.29C5.64 20.29 5.97 20.61 5.97 21.01L5.97 24.23C5.97 24.33 6.06 24.4 6.15 24.38C6.76 24.25 8.67 23.73 8.84 22.21C9.05 20.39 12.48 15.25 17.92 14.74C19.29 14.62 20.42 14.28 21.34 13.86C18.85 14.21 17.35 14.38 13.39 14.74Z" fill="#572D22" fill-opacity="1.000000" fill-rule="nonzero"/>
	<path id="Vector" d="M17.08 26.19C17.08 28.28 15.39 29.98 13.3 29.98C11.21 29.98 9.52 28.28 9.52 26.19C9.52 24.11 11.21 22.41 13.3 22.41C15.39 22.41 17.08 24.11 17.08 26.19Z" fill="#CEE8F2" fill-opacity="1.000000" fill-rule="nonzero"/>
	<path id="Vector" d="M29.04 26.19C29.04 28.28 27.35 29.98 25.26 29.98C23.17 29.98 21.48 28.28 21.48 26.19C21.48 24.11 23.17 22.41 25.26 22.41C27.35 22.41 29.04 24.11 29.04 26.19Z" fill="#CEE8F2" fill-opacity="1.000000" fill-rule="nonzero"/>
	<path id="Vector" d="M54 38.72C54 34.76 50.77 31.53 46.81 31.53C42.85 31.53 39.63 34.76 39.63 38.72C39.63 42.29 42.25 45.27 45.68 45.81L45.68 47.27C45.68 51.83 42.39 55.64 38.07 56.47C37.19 53.39 35.23 50.7 32.49 48.95L32.42 47.91C32.36 47.1 31.74 46.42 30.93 46.31L28.94 46.02C32.87 43.96 35.56 39.85 35.56 35.11L35.56 29.23C37.26 28.48 38.42 26.51 38.42 24.08C38.42 21.44 37.27 19.74 35.24 19.27C35.61 17.61 36.24 13.86 35.13 10.82C33.94 7.55 31.09 5.82 29.95 5.24C29.34 3.79 27.09 0 20.08 0C12.43 0 9.04 3.08 8.57 3.55C8 4.05 2.33 9.13 2.88 13.91C3.17 16.48 3.31 18.26 3.36 19.26C1.3 19.72 0.15 21.42 0.15 24.08C0.15 26.53 1.32 28.51 3.04 29.25L3.04 35.11C3.04 39.84 5.73 43.96 9.65 46.02L7.63 46.31C6.82 46.42 6.2 47.1 6.14 47.91L6.07 48.95C2.31 51.35 0 55.55 0 60.05L0 67.76C0 68.39 0.5 68.89 1.13 68.89C1.76 68.89 2.26 68.39 2.26 67.76L2.26 60.05C2.26 56.94 3.61 53.99 5.87 51.95L5.58 56.12C5.55 56.54 5.76 56.95 6.12 57.17L8.09 58.36L7.5 61.43C7.45 61.74 7.52 62.06 7.7 62.31L17.05 75.17L2.26 75.17L2.26 72.58C2.26 71.95 1.76 71.45 1.13 71.45C0.5 71.45 0 71.95 0 72.58L0 76.31C0 76.93 0.5 77.44 1.13 77.44L37.43 77.44C38.06 77.44 38.57 76.93 38.57 76.31L38.57 60.05C38.57 59.6 38.54 59.14 38.49 58.69C43.87 57.67 47.94 52.93 47.94 47.27L47.94 45.81C51.37 45.27 54 42.29 54 38.72ZM35.75 56.63L32.89 56.63C32.96 56.47 32.99 56.3 32.98 56.12L32.69 51.95C34.1 53.22 35.15 54.84 35.75 56.63ZM30.67 55.59L29.01 56.6C27.03 56.43 25.22 55.65 23.78 54.44C23.84 54.05 24.55 49.56 24.84 47.72L30.18 48.49L30.67 55.59ZM19.27 44.04L19.29 44.04C20.45 44.04 21.57 43.9 22.64 43.64L22.64 45.15L15.92 45.15L15.92 43.64C16.99 43.9 18.12 44.04 19.27 44.04ZM15.97 47.42L18.17 47.42C18.19 49.27 18.65 51.02 19.45 52.56C19.39 52.56 19.34 52.57 19.28 52.57C18.4 52.57 17.53 52.44 16.73 52.21C16.49 50.71 16.24 49.11 15.97 47.42ZM21.84 52.19C20.97 50.8 20.46 49.17 20.44 47.42L22.59 47.42C22.33 49.11 22.07 50.7 21.84 52.19ZM19.28 54.84C19.82 54.84 20.36 54.8 20.88 54.73C21.03 54.91 21.19 55.09 21.36 55.26C20.42 61.21 19.75 65.48 19.28 68.54C18.79 65.37 18.1 60.92 17.11 54.63C17.81 54.77 18.54 54.84 19.28 54.84ZM24.91 45.01L24.91 42.9C29.03 41.15 32.18 37.54 33.29 33.13L33.29 35.11C33.29 40.08 29.66 44.22 24.91 45.01ZM36.15 24.08C36.15 25.66 35.34 27.3 33.98 27.3C33.9 27.3 33.81 27.29 33.73 27.28L33.73 21.41C33.81 21.4 33.9 21.4 33.98 21.4C35.05 21.4 36.15 21.72 36.15 24.08ZM10.09 5.24C10.12 5.21 10.15 5.18 10.18 5.15C10.21 5.12 12.95 2.26 20.08 2.26C26.73 2.26 27.9 6.19 27.94 6.35C28.02 6.71 28.27 6.98 28.61 7.12C28.64 7.13 31.87 8.51 33 11.6C33.89 14.05 33.34 17.32 33.05 18.64C32.15 18.77 31.46 19.54 31.46 20.48L31.46 21.94C31.34 21.62 31.23 21.25 31.1 20.81C30.65 19.31 30.14 17.61 28.82 16.42C27.2 14.97 26.46 12.19 26.22 11.06C26.1 10.5 25.66 10.06 25.09 9.95C24.53 9.84 23.95 10.08 23.63 10.55C22.94 11.56 21.27 13.29 17.82 13.61C17.77 13.62 17.72 13.62 17.68 13.63C17.05 13.69 16.6 14.25 16.67 14.88C16.73 15.5 17.29 15.95 17.92 15.88C17.95 15.88 17.99 15.88 18.03 15.87C21.18 15.58 23.19 14.31 24.42 13.12C24.92 14.75 25.81 16.76 27.3 18.11C28.15 18.87 28.54 20.19 28.92 21.46C29.37 22.95 29.91 24.76 31.46 25.35L31.46 29.6C31.46 36.31 26 41.77 19.29 41.77L19.27 41.77C12.56 41.77 7.1 36.31 7.1 29.6L7.1 25.3C7.72 25.1 8.26 24.83 8.69 24.49C8.49 25.02 8.39 25.59 8.39 26.19C8.39 28.9 10.59 31.11 13.3 31.11C15.62 31.11 17.57 29.49 18.08 27.33L20.48 27.33C20.99 29.49 22.94 31.11 25.26 31.11C27.97 31.11 30.18 28.9 30.18 26.19C30.18 23.48 27.97 21.28 25.26 21.28C22.94 21.28 20.99 22.89 20.48 25.06L18.08 25.06C17.57 22.89 15.62 21.28 13.3 21.28C11.99 21.28 10.8 21.79 9.92 22.63C9.94 22.53 9.96 22.43 9.97 22.33C10.07 21.46 11.51 18.99 13.92 17.38C14.44 17.03 14.58 16.33 14.23 15.81C13.88 15.29 13.18 15.15 12.66 15.49C9.85 17.37 7.91 20.38 7.72 22.08C7.68 22.38 7.43 22.63 7.1 22.83L7.1 21.01C7.1 21.01 7.1 21.01 7.1 21.01C7.1 20.48 6.88 20 6.52 19.66C6.5 19.65 6.49 19.64 6.48 19.62C6.47 19.61 6.46 19.61 6.45 19.6C6.43 19.58 6.41 19.57 6.39 19.56C6.18 19.38 5.92 19.26 5.63 19.2C5.57 18.18 5.44 16.33 5.13 13.65C4.77 10.55 8.59 6.52 10.09 5.24ZM10.66 26.19C10.66 24.73 11.84 23.55 13.3 23.55C14.76 23.55 15.95 24.73 15.95 26.19C15.95 27.65 14.76 28.84 13.3 28.84C11.84 28.84 10.66 27.65 10.66 26.19ZM22.61 26.19C22.61 24.73 23.8 23.55 25.26 23.55C26.72 23.55 27.91 24.73 27.91 26.19C27.91 27.65 26.72 28.84 25.26 28.84C23.8 28.84 22.61 27.65 22.61 26.19ZM4.58 21.4C4.66 21.4 4.75 21.41 4.84 21.42L4.84 27.28C4.75 27.29 4.66 27.3 4.58 27.3C3.22 27.3 2.42 25.66 2.42 24.08C2.42 21.72 3.51 21.4 4.58 21.4ZM5.31 35.11L5.31 33.26C6.45 37.61 9.57 41.17 13.65 42.9L13.65 45C8.92 44.19 5.31 40.07 5.31 35.11ZM9.94 56.83L7.89 55.59L8.3 49.7C8.3 49.69 8.3 49.68 8.3 49.68L8.38 48.49L13.72 47.72C14.01 49.56 16.85 67.62 17.51 71.94L9.83 61.37L10.47 58.02C10.56 57.55 10.35 57.08 9.94 56.83ZM36.3 75.17L21.51 75.17L26.48 68.33C26.85 67.83 26.74 67.12 26.23 66.75C25.72 66.38 25.02 66.49 24.65 67L21.06 71.94C21.6 68.35 22.45 62.94 23.38 56.97C24.81 57.92 26.47 58.56 28.24 58.79L28.74 61.37L27.5 63.07C27.14 63.57 27.25 64.28 27.75 64.65C28.26 65.02 28.97 64.91 29.34 64.4L30.86 62.31C31.04 62.06 31.12 61.74 31.06 61.43L30.57 58.9L36.24 58.9C36.28 59.28 36.3 59.67 36.3 60.05L36.3 75.17L36.3 75.17ZM46.81 43.63C44.1 43.63 41.89 41.43 41.89 38.72C41.89 36.01 44.1 33.8 46.81 33.8C49.52 33.8 51.73 36.01 51.73 38.72C51.73 41.43 49.52 43.63 46.81 43.63Z" fill="#000000" fill-opacity="1.000000" fill-rule="nonzero"/>
</svg>
