<svg width="78.000000" height="78.000000" viewBox="0 0 78 78" fill="none" xmlns="http://www.w3.org/2000/svg" xmlns:xlink="http://www.w3.org/1999/xlink">
	<desc>
			Created with Pixso.
	</desc>
	<defs/>
	<path id="Vector" d="M39.61 5.71L26.2 5.71C24.94 5.71 23.92 4.68 23.92 3.42C23.92 2.16 24.94 1.14 26.2 1.14L39.61 1.14C40.87 1.14 41.89 2.16 41.89 3.42C41.89 4.68 40.87 5.71 39.61 5.71Z" fill="#716680" fill-opacity="1.000000" fill-rule="nonzero"/>
	<path id="Vector" d="M27.57 51.64L38.24 51.64L38.24 56.21L27.57 56.21L27.57 51.64Z" fill="#716680" fill-opacity="1.000000" fill-rule="nonzero"/>
	<path id="Vector" d="M26.81 5.71L39 5.71L39 12.03L26.81 12.03L26.81 5.71Z" fill="#D6CFC4" fill-opacity="1.000000" fill-rule="nonzero"/>
	<path id="Vector" d="M34.43 5.71L39 5.71L39 12.03L34.43 12.03L34.43 5.71Z" fill="#C4BEB4" fill-opacity="1.000000" fill-rule="nonzero"/>
	<path id="Vector" d="M68.86 30.62L68.86 63.22L59.71 63.22L59.71 30.92C59.71 27.89 57.26 25.44 54.23 25.44L45.09 25.44L45.09 16.3L54.53 16.3C62.44 16.3 68.86 22.71 68.86 30.62Z" fill="#716680" fill-opacity="1.000000" fill-rule="nonzero"/>
	<path id="Vector" d="M54.53 16.3L49.96 16.3C57.87 16.3 64.29 22.71 64.29 30.62L64.29 63.22L68.86 63.22L68.86 30.62C68.86 22.71 62.44 16.3 54.53 16.3Z" fill="#635870" fill-opacity="1.000000" fill-rule="nonzero"/>
	<path id="Vector" d="M55.83 76.85L22.16 76.85C17.16 76.85 13.1 72.79 13.1 67.79L64.89 67.79C64.89 72.79 60.83 76.85 55.83 76.85Z" fill="#716680" fill-opacity="1.000000" fill-rule="nonzero"/>
	<path id="Vector" d="M60.32 67.79C60.32 72.79 56.26 76.85 51.26 76.85L55.83 76.85C60.83 76.85 64.89 72.79 64.89 67.79L60.32 67.79Z" fill="#635870" fill-opacity="1.000000" fill-rule="nonzero"/>
	<path id="Vector" d="M42.04 51.64L23.76 51.64C22.08 51.64 20.72 50.28 20.72 48.59L20.72 15.08C20.72 13.39 22.08 12.03 23.76 12.03L42.04 12.03C43.73 12.03 45.09 13.39 45.09 15.08L45.09 48.59C45.09 50.28 43.73 51.64 42.04 51.64Z" fill="#E8E1D5" fill-opacity="1.000000" fill-rule="nonzero"/>
	<path id="Vector" d="M42.04 12.03L37.47 12.03C39.16 12.03 40.52 13.39 40.52 15.08L40.52 48.59C40.52 50.28 39.16 51.64 37.47 51.64L42.04 51.64C43.73 51.64 45.09 50.28 45.09 48.59L45.09 15.08C45.09 13.39 43.73 12.03 42.04 12.03Z" fill="#D6CFC4" fill-opacity="1.000000" fill-rule="nonzero"/>
	<path id="Vector" d="M51.18 20.8C51.18 24.16 48.46 26.89 45.09 26.89C41.72 26.89 39 24.16 39 20.8C39 17.43 41.72 14.7 45.09 14.7C48.46 14.7 51.18 17.43 51.18 20.8Z" fill="#FFBD54" fill-opacity="1.000000" fill-rule="nonzero"/>
	<path id="Vector" d="M47.38 20.8C47.38 22.06 46.35 23.08 45.09 23.08C43.83 23.08 42.81 22.06 42.81 20.8C42.81 19.53 43.83 18.51 45.09 18.51C46.35 18.51 47.38 19.53 47.38 20.8Z" fill="#FF573D" fill-opacity="1.000000" fill-rule="nonzero"/>
	<path id="Vector" d="M74.57 67.79L3.42 67.79C2.16 67.79 1.14 66.76 1.14 65.5C1.14 64.24 2.16 63.22 3.42 63.22L74.57 63.22C75.83 63.22 76.85 64.24 76.85 65.5C76.85 66.76 75.83 67.79 74.57 67.79Z" fill="#E8E1D5" fill-opacity="1.000000" fill-rule="nonzero"/>
	<path id="Vector" d="M74.57 63.22L70 63.22C71.26 63.22 72.28 64.24 72.28 65.5C72.28 66.76 71.26 67.79 70 67.79L74.57 67.79C75.83 67.79 76.85 66.76 76.85 65.5C76.85 64.24 75.83 63.22 74.57 63.22Z" fill="#D6CFC4" fill-opacity="1.000000" fill-rule="nonzero"/>
	<path id="Vector" d="M45.09 24.22C46.98 24.22 48.52 22.69 48.52 20.8C48.52 18.91 46.98 17.37 45.09 17.37C43.2 17.37 41.66 18.91 41.66 20.8C41.66 22.69 43.2 24.22 45.09 24.22ZM45.09 19.65C45.72 19.65 46.23 20.17 46.23 20.8C46.23 21.43 45.72 21.94 45.09 21.94C44.46 21.94 43.95 21.43 43.95 20.8C43.95 20.17 44.46 19.65 45.09 19.65Z" fill="#000000" fill-opacity="1.000000" fill-rule="nonzero"/>
	<path id="Vector" d="M74.57 62.08L70 62.08L70 61.49C70 60.86 69.49 60.35 68.86 60.35C68.22 60.35 67.71 60.86 67.71 61.49L67.71 62.08L60.86 62.08L60.86 30.92C60.86 27.27 57.88 24.29 54.23 24.29L51.42 24.29C52 23.26 52.33 22.06 52.33 20.8C52.33 19.58 52.03 18.44 51.5 17.44L54.53 17.44C61.8 17.44 67.71 23.35 67.71 30.62L67.71 56.64C67.71 57.27 68.22 57.78 68.86 57.78C69.49 57.78 70 57.27 70 56.64L70 30.62C70 22.09 63.06 15.15 54.53 15.15L49.61 15.15C48.59 14.33 47.34 13.78 45.97 13.61C45.37 12.01 43.82 10.89 42.04 10.89L40.14 10.89L40.14 6.81C41.78 6.55 43.04 5.13 43.04 3.42C43.04 1.53 41.5 0 39.61 0L26.2 0C24.31 0 22.77 1.53 22.77 3.42C22.77 5.13 24.03 6.55 25.67 6.81L25.67 10.89L23.76 10.89C21.45 10.89 19.57 12.77 19.57 15.08L19.57 19.48C19.57 20.11 20.09 20.63 20.72 20.63C21.35 20.63 21.86 20.11 21.86 19.48L21.86 15.08C21.86 14.03 22.71 13.17 23.76 13.17L42.04 13.17C42.58 13.17 43.07 13.4 43.42 13.76C40.23 14.51 37.85 17.38 37.85 20.8C37.85 24.4 40.5 27.39 43.95 27.94L43.95 48.59C43.95 49.64 43.1 50.5 42.04 50.5L23.76 50.5C22.71 50.5 21.86 49.64 21.86 48.59L21.86 24.35C21.86 23.72 21.35 23.21 20.72 23.21C20.09 23.21 19.57 23.72 19.57 24.35L19.57 48.59C19.57 50.9 21.45 52.78 23.76 52.78L26.43 52.78L26.43 56.21C26.43 56.84 26.94 57.35 27.57 57.35L38.24 57.35C38.87 57.35 39.38 56.84 39.38 56.21L39.38 52.78L42.04 52.78C44.36 52.78 46.23 50.9 46.23 48.59L46.23 27.94C47.42 27.75 48.51 27.27 49.43 26.58L54.23 26.58C56.62 26.58 58.57 28.53 58.57 30.92L58.57 62.08L3.42 62.08C1.53 62.08 0 63.61 0 65.5C0 67.39 1.53 68.93 3.42 68.93L12.02 68.93C12.59 74.02 16.92 78 22.16 78L55.83 78C61.07 78 65.4 74.02 65.97 68.93L74.57 68.93C76.46 68.93 78 67.39 78 65.5C78 63.61 76.46 62.08 74.57 62.08ZM25.06 3.42C25.06 2.79 25.57 2.28 26.2 2.28L39.61 2.28C40.24 2.28 40.75 2.79 40.75 3.42C40.75 4.05 40.24 4.57 39.61 4.57L26.2 4.57C25.57 4.57 25.06 4.05 25.06 3.42ZM27.95 10.89L27.95 6.85L37.86 6.85L37.86 10.89L27.95 10.89ZM37.09 55.07L28.71 55.07L28.71 52.78L37.09 52.78L37.09 55.07ZM40.14 20.8C40.14 18.07 42.36 15.84 45.09 15.84C47.82 15.84 50.04 18.07 50.04 20.8C50.04 23.52 47.83 25.74 45.1 25.75C45.1 25.75 45.09 25.75 45.09 25.75C45.09 25.75 45.09 25.75 45.08 25.75C42.36 25.74 40.14 23.52 40.14 20.8ZM74.57 66.65L20.71 66.65C20.08 66.65 19.57 67.16 19.57 67.79C19.57 68.42 20.08 68.93 20.71 68.93L63.67 68.93C63.11 72.76 59.81 75.71 55.83 75.71L22.16 75.71C18.18 75.71 14.88 72.76 14.32 68.93L15.86 68.93C16.5 68.93 17.01 68.42 17.01 67.79C17.01 67.16 16.5 66.65 15.86 66.65L3.42 66.65C2.79 66.65 2.28 66.13 2.28 65.5C2.28 64.87 2.79 64.36 3.42 64.36L74.57 64.36C75.2 64.36 75.71 64.87 75.71 65.5C75.71 66.13 75.2 66.65 74.57 66.65Z" fill="#000000" fill-opacity="1.000000" fill-rule="nonzero"/>
	<path id="Vector" d="M24.68 48.36L41.13 48.36C41.76 48.36 42.27 47.85 42.27 47.22C42.27 46.59 41.76 46.08 41.13 46.08L24.68 46.08C24.05 46.08 23.54 46.59 23.54 47.22C23.54 47.85 24.05 48.36 24.68 48.36Z" fill="#000000" fill-opacity="1.000000" fill-rule="nonzero"/>
	<path id="Vector" d="M24.68 44.1L41.13 44.1C41.76 44.1 42.27 43.59 42.27 42.96C42.27 42.32 41.76 41.81 41.13 41.81L24.68 41.81C24.05 41.81 23.54 42.32 23.54 42.96C23.54 43.59 24.05 44.1 24.68 44.1Z" fill="#000000" fill-opacity="1.000000" fill-rule="nonzero"/>
</svg>
