<svg width="62.000000" height="77.000000" viewBox="0 0 62 77" fill="none" xmlns="http://www.w3.org/2000/svg" xmlns:xlink="http://www.w3.org/1999/xlink">
	<desc>
			Created with Pixso.
	</desc>
	<defs/>
	<path id="Vector" d="M52.44 67.79L52.44 56.28L60.12 56.28L60.12 70.35C60.12 71.71 59.58 73.01 58.62 73.97C57.66 74.93 56.36 75.47 55 75.47L52.44 75.47L52.44 67.79Z" fill="#F6BB92" fill-opacity="1.000000" fill-rule="nonzero"/>
	<path id="Vector" d="M56.28 44.77L57.36 42.21L58.32 39.94C58.83 38.72 58.97 37.37 58.71 36.08C58.46 34.78 57.82 33.58 56.89 32.65C55.64 31.4 54.93 29.7 54.93 27.94L54.93 21.74L26.86 21.74L26.86 27.94C26.86 29.7 26.15 31.4 24.91 32.65C23.97 33.58 23.33 34.78 23.08 36.08C22.82 37.37 22.96 38.72 23.47 39.94L24.49 42.35L56.28 44.77Z" fill="#834B10" fill-opacity="1.000000" fill-rule="nonzero"/>
	<path id="Vector" d="M60.12 49.99C60.12 48.17 59.47 46.42 58.3 45.03C57.12 43.64 55.49 42.72 53.7 42.42L52.44 42.21L45.83 41.11L40.93 46.05L35.97 41.07L26.86 42.21L26.86 75.47L52.44 75.47L52.44 65.24C53.6 64.08 54.33 62.56 54.51 60.94C54.7 59.31 54.33 57.67 53.46 56.28L60.12 56.28L60.12 49.99Z" fill="#85BC94" fill-opacity="1.000000" fill-rule="nonzero"/>
	<path id="Vector" d="M55 23.02L26.86 23.02L26.86 15.35C26.86 11.61 28.34 8.03 30.98 5.4C33.62 2.76 37.2 1.27 40.93 1.27C44.66 1.27 48.24 2.76 50.88 5.4C53.52 8.03 55 11.61 55 15.35L55 23.02Z" fill="#834B10" fill-opacity="1.000000" fill-rule="nonzero"/>
	<path id="Vector" d="M51.16 19.18L49.88 19.18L49.88 11.51L31.97 11.51L31.97 19.18L30.69 19.18C29.68 19.18 28.7 19.59 27.98 20.31C27.26 21.03 26.86 22 26.86 23.02C26.86 24.04 27.26 25.01 27.98 25.73C28.7 26.45 29.68 26.86 30.69 26.86L31.97 26.86L31.97 28.14C31.97 30.51 32.92 32.79 34.6 34.47C36.27 36.15 38.55 37.09 40.93 37.09C43.3 37.09 45.58 36.15 47.26 34.47C48.94 32.79 49.88 30.51 49.88 28.14L49.88 26.86L51.16 26.86C52.18 26.86 53.16 26.45 53.87 25.73C54.59 25.01 55 24.04 55 23.02C55 22 54.59 21.03 53.87 20.31C53.16 19.59 52.18 19.18 51.16 19.18Z" fill="#F6BB92" fill-opacity="1.000000" fill-rule="nonzero"/>
	<path id="Vector" d="M39.65 50.93L39.65 75.47L11.03 75.47C11.98 73.98 13.09 72.6 14.34 71.36L14.43 71.26C16.72 68.98 18.55 66.28 19.82 63.31C20.33 62.14 20.83 60.97 21.19 60.12C21.52 59.35 21.74 58.84 21.74 58.84L18.06 58.84C16.92 58.84 15.81 58.46 14.91 57.75C14.01 57.05 13.37 56.07 13.09 54.96L12.46 52.44L12.3 51.78C12.21 51.41 12.2 51.01 12.28 50.63C12.36 50.25 12.53 49.9 12.77 49.59C13 49.28 13.31 49.04 13.66 48.86C14.01 48.69 14.39 48.61 14.78 48.61L19.18 48.61C20.01 46.13 21.69 44.03 23.93 42.69L24.49 42.35C25.93 41.49 27.56 41 29.24 40.94C30.91 40.87 32.58 41.23 34.08 41.98L34.13 42.01C35.79 42.84 37.18 44.11 38.16 45.69C39.13 47.26 39.65 49.08 39.65 50.93Z" fill="#BD9070" fill-opacity="1.000000" fill-rule="nonzero"/>
	<path id="Vector" d="M39.65 51.16L39.65 54.79C39.65 55.6 39.39 56.38 38.92 57.04C38.45 57.69 37.79 58.18 37.02 58.43C36.24 58.7 35.38 58.7 34.6 58.43C33.83 58.18 33.17 57.69 32.7 57.04C32.23 56.38 31.97 55.6 31.97 54.79L31.97 48.61L37.09 48.61L39.65 51.16Z" fill="#9E785D" fill-opacity="1.000000" fill-rule="nonzero"/>
	<path id="Vector" d="M27.76 57.19L25.2 59.74C24.96 59.98 24.64 60.12 24.3 60.12L21.19 60.12C21.52 59.35 21.74 58.84 21.74 58.84L18.06 58.84C16.81 58.84 15.61 58.39 14.68 57.56L23.77 57.56L25.95 55.38C26.19 55.14 26.52 55 26.86 55C27.2 55 27.52 55.14 27.76 55.38C28 55.62 28.14 55.94 28.14 56.28C28.14 56.62 28 56.95 27.76 57.19Z" fill="#9E785D" fill-opacity="1.000000" fill-rule="nonzero"/>
	<path id="Vector" d="M16.62 48.61L16.62 50.15C16.62 50.76 16.38 51.34 15.95 51.77C15.52 52.2 14.94 52.44 14.33 52.44L12.46 52.44L12.3 51.78C12.21 51.41 12.2 51.01 12.28 50.63C12.36 50.25 12.53 49.9 12.77 49.59C13 49.28 13.31 49.03 13.66 48.86C14.01 48.69 14.39 48.61 14.78 48.61L16.62 48.61Z" fill="#9E785D" fill-opacity="1.000000" fill-rule="nonzero"/>
	<path id="Vector" d="M20.59 72.31C20.35 72.31 20.12 72.24 19.92 72.12C19.72 71.99 19.55 71.81 19.45 71.6C19.34 71.39 19.3 71.15 19.32 70.91C19.34 70.68 19.43 70.45 19.57 70.26C21.09 68.23 22.28 65.96 23.08 63.55C23.14 63.39 23.22 63.24 23.33 63.11C23.44 62.98 23.57 62.88 23.72 62.8C23.87 62.73 24.04 62.68 24.21 62.67C24.38 62.66 24.55 62.68 24.71 62.73C24.87 62.78 25.01 62.87 25.14 62.98C25.27 63.09 25.37 63.23 25.45 63.38C25.52 63.53 25.57 63.69 25.58 63.86C25.59 64.03 25.57 64.2 25.51 64.36C24.62 67.03 23.31 69.54 21.61 71.8C21.5 71.96 21.34 72.09 21.16 72.17C20.99 72.26 20.79 72.31 20.59 72.31Z" fill="#9E785D" fill-opacity="1.000000" fill-rule="nonzero"/>
	<path id="Vector" d="M30.69 19.18C31.9 18.78 33 18.12 33.92 17.25C34.84 16.39 35.56 15.33 36.03 14.15L37.09 11.51L30.69 10.23L30.69 19.18Z" fill="#834B10" fill-opacity="1.000000" fill-rule="nonzero"/>
	<path id="Vector" d="M37.09 11.51L37.24 11.73C38.77 14.02 40.84 15.9 43.27 17.2C45.69 18.5 48.41 19.18 51.16 19.18L51.16 10.23L37.09 11.51Z" fill="#834B10" fill-opacity="1.000000" fill-rule="nonzero"/>
	<path id="Vector" d="M37.73 21.74C37.73 22.62 37.01 23.34 36.13 23.34C35.25 23.34 34.53 22.62 34.53 21.74C34.53 20.86 35.25 20.14 36.13 20.14C37.01 20.14 37.73 20.86 37.73 21.74Z" fill="#834B10" fill-opacity="1.000000" fill-rule="evenodd"/>
	<path id="Vector" d="M47.32 21.74C47.32 22.62 46.61 23.34 45.72 23.34C44.84 23.34 44.13 22.62 44.13 21.74C44.13 20.86 44.84 20.14 45.72 20.14C46.61 20.14 47.32 20.86 47.32 21.74Z" fill="#834B10" fill-opacity="1.000000" fill-rule="evenodd"/>
	<path id="Vector" d="M40.93 28.14L38.37 28.14C38.15 28.14 37.94 28.08 37.75 27.98C37.56 27.87 37.4 27.72 37.28 27.53C37.17 27.35 37.1 27.13 37.09 26.92C37.08 26.7 37.13 26.48 37.22 26.29L39.78 21.17C39.86 21.02 39.96 20.88 40.09 20.77C40.22 20.66 40.36 20.57 40.52 20.52C40.68 20.47 40.85 20.44 41.02 20.46C41.19 20.47 41.35 20.51 41.5 20.59C41.66 20.66 41.79 20.77 41.9 20.9C42.01 21.02 42.09 21.17 42.15 21.33C42.2 21.49 42.22 21.66 42.21 21.83C42.19 22 42.15 22.16 42.07 22.31L40.44 25.58L40.93 25.58C41.27 25.58 41.59 25.71 41.83 25.95C42.07 26.19 42.21 26.52 42.21 26.86C42.21 27.2 42.07 27.52 41.83 27.76C41.59 28 41.27 28.14 40.93 28.14Z" fill="#834B10" fill-opacity="1.000000" fill-rule="nonzero"/>
	<path id="Vector" d="M48.6 52.44C48.26 52.44 47.94 52.31 47.7 52.07C47.46 51.83 47.32 51.5 47.32 51.16L47.32 42.21C47.32 41.87 47.46 41.54 47.7 41.3C47.94 41.06 48.26 40.93 48.6 40.93C48.94 40.93 49.27 41.06 49.51 41.3C49.75 41.54 49.88 41.87 49.88 42.21L49.88 51.16C49.88 51.5 49.75 51.83 49.51 52.07C49.27 52.31 48.94 52.44 48.6 52.44Z" fill="#C3C3C3" fill-opacity="1.000000" fill-rule="nonzero"/>
	<path id="Vector" d="M52.44 55C52.44 57.12 50.72 58.84 48.6 58.84C46.48 58.84 44.77 57.12 44.77 55C44.77 52.88 46.48 51.16 48.6 51.16C50.72 51.16 52.44 52.88 52.44 55Z" fill="#E4E4E2" fill-opacity="1.000000" fill-rule="evenodd"/>
	<path id="Vector" d="M49.88 55C49.88 55.71 49.31 56.28 48.6 56.28C47.9 56.28 47.32 55.71 47.32 55C47.32 54.29 47.9 53.72 48.6 53.72C49.31 53.72 49.88 54.29 49.88 55Z" fill="#C3C3C3" fill-opacity="1.000000" fill-rule="evenodd"/>
	<path id="Vector" d="M53.72 75.47L34.53 75.47C33.51 75.47 32.54 75.06 31.82 74.34C31.1 73.62 30.69 72.65 30.69 71.63C30.69 70.61 31.1 69.64 31.82 68.92C32.54 68.2 33.51 67.79 34.53 67.79L35.81 67.79C35.81 67.11 36.08 66.46 36.56 65.98C37.04 65.5 37.69 65.24 38.37 65.24L38.59 65.24C39.27 65.24 39.92 65.5 40.4 65.98L42.21 67.79L53.72 67.79L53.72 75.47Z" fill="#F6BB92" fill-opacity="1.000000" fill-rule="nonzero"/>
	<path id="Vector" d="M11.17 69.53C10.98 69.95 10.88 70.4 10.89 70.86C10.89 71.32 10.99 71.78 11.18 72.19C11.38 72.61 11.66 72.98 12.01 73.28C12.36 73.57 12.77 73.79 13.21 73.92L18.14 75.31C19.12 75.58 20.16 75.46 21.05 74.96C21.94 74.47 22.6 73.64 22.87 72.66C23.15 71.68 23.03 70.63 22.53 69.74C22.03 68.85 21.2 68.2 20.22 67.92L18.99 67.57C19.08 67.25 19.11 66.91 19.07 66.58C19.03 66.24 18.93 65.92 18.76 65.63C18.6 65.34 18.38 65.08 18.12 64.87C17.85 64.66 17.55 64.51 17.23 64.42L17.01 64.36C16.69 64.26 16.35 64.24 16.02 64.28C15.69 64.32 15.36 64.42 15.07 64.59C13.62 65.4 12.47 66.65 11.78 68.17L11.17 69.53Z" fill="#F6BB92" fill-opacity="1.000000" fill-rule="nonzero"/>
	<path id="Vector" d="M4.5 34.34C5.36 34.34 6.17 34.68 6.78 35.28L8.39 36.9L10.01 35.28C10.61 34.68 11.43 34.34 12.28 34.34C13 34.34 13.69 34.58 14.26 35.02C14.82 35.46 15.22 36.08 15.4 36.78C15.59 37.56 15.54 38.39 15.25 39.14C14.96 39.9 14.44 40.55 13.77 40.99L8.39 44.58L3.02 40.99C2.35 40.55 1.83 39.9 1.54 39.14C1.24 38.39 1.19 37.56 1.39 36.78C1.56 36.08 1.96 35.46 2.53 35.02C3.09 34.58 3.79 34.34 4.5 34.34Z" fill="#DC4D41" fill-opacity="1.000000" fill-rule="nonzero"/>
	<path id="Vector" d="M30.69 19.18L31.97 19.18L31.97 26.86L30.69 26.86L30.69 19.18Z" fill="#EEB58E" fill-opacity="1.000000" fill-rule="nonzero"/>
	<path id="Vector" d="M49.88 19.18L51.16 19.18L51.16 26.86L49.88 26.86L49.88 19.18Z" fill="#EEB58E" fill-opacity="1.000000" fill-rule="nonzero"/>
	<path id="Vector" d="M35.97 41.07L40.93 46.05L45.83 41.11C45.54 41.06 45.26 40.9 45.07 40.67C44.87 40.44 44.77 40.15 44.77 39.85L44.77 35.81L37.09 35.81L37.09 39.8C37.09 40.11 36.98 40.41 36.77 40.65C36.56 40.88 36.28 41.03 35.97 41.07Z" fill="#F6BB92" fill-opacity="1.000000" fill-rule="nonzero"/>
	<path id="Vector" d="M40.93 37.09C38.55 37.09 36.27 36.15 34.6 34.47C32.92 32.79 31.97 30.51 31.97 28.14L31.97 26.86L49.88 26.86L49.88 28.14C49.88 30.51 48.94 32.79 47.26 34.47C45.58 36.15 43.3 37.09 40.93 37.09Z" fill="#85BC94" fill-opacity="1.000000" fill-rule="nonzero"/>
	<path id="Vector" d="M26.86 49.88C26.86 50.59 26.28 51.16 25.58 51.16C24.87 51.16 24.3 50.59 24.3 49.88C24.3 49.18 24.87 48.61 25.58 48.61C26.28 48.61 26.86 49.18 26.86 49.88Z" fill="#9E785D" fill-opacity="1.000000" fill-rule="evenodd"/>
	<path id="Vector" d="M37.73 21.74C37.73 22.62 37.01 23.34 36.13 23.34C35.25 23.34 34.53 22.62 34.53 21.74C34.53 20.86 35.25 20.14 36.13 20.14C37.01 20.14 37.73 20.86 37.73 21.74Z" fill="#000000" fill-opacity="1.000000" fill-rule="evenodd"/>
	<path id="Vector" d="M47.32 21.74C47.32 22.62 46.61 23.34 45.72 23.34C44.84 23.34 44.13 22.62 44.13 21.74C44.13 20.86 44.84 20.14 45.72 20.14C46.61 20.14 47.32 20.86 47.32 21.74Z" fill="#000000" fill-opacity="1.000000" fill-rule="evenodd"/>
	<path id="Vector" d="M49.88 55C49.88 55.71 49.31 56.28 48.6 56.28C47.9 56.28 47.32 55.71 47.32 55C47.32 54.29 47.9 53.72 48.6 53.72C49.31 53.72 49.88 54.29 49.88 55Z" fill="#000000" fill-opacity="1.000000" fill-rule="evenodd"/>
	<path id="Vector" d="M58.31 43.23L59.49 40.44C60.11 38.98 60.28 37.38 59.97 35.83C59.67 34.28 58.91 32.86 57.79 31.74C57.29 31.24 56.89 30.65 56.62 30C56.35 29.34 56.21 28.64 56.21 27.94L56.28 15.35C56.28 11.27 54.66 7.37 51.78 4.49C48.9 1.61 45 0 40.93 0C36.86 0 32.95 1.61 30.07 4.49C27.19 7.37 25.58 11.27 25.58 15.35L25.58 27.94C25.57 29.36 25.01 30.73 24 31.74C22.88 32.86 22.13 34.28 21.82 35.83C21.52 37.38 21.68 38.98 22.29 40.44L22.88 41.83C20.84 43.16 19.24 45.08 18.3 47.33L14.78 47.33C14.2 47.32 13.62 47.46 13.1 47.71C12.57 47.97 12.12 48.34 11.76 48.8C11.67 48.92 11.58 49.04 11.51 49.16C11.13 49.78 10.93 50.5 10.94 51.23C10.95 51.52 10.99 51.81 11.06 52.1L11.22 52.75L11.85 55.27C12.2 56.66 13 57.89 14.12 58.77C15.24 59.64 16.63 60.12 18.06 60.12L19.8 60.12L18.65 62.81C18.55 63.04 18.44 63.26 18.34 63.49C18.09 63.36 17.84 63.26 17.57 63.18L17.36 63.12C16.88 62.99 16.37 62.95 15.87 63C15.37 63.06 14.88 63.22 14.45 63.47C12.76 64.42 11.42 65.88 10.62 67.64L10 69C9.65 69.77 9.53 70.62 9.65 71.46C9.77 72.3 10.12 73.08 10.66 73.73C10.41 74.07 10.18 74.42 9.95 74.78C9.82 74.97 9.76 75.19 9.75 75.42C9.74 75.65 9.79 75.88 9.9 76.08C10.01 76.28 10.18 76.45 10.37 76.57C10.57 76.69 10.8 76.75 11.03 76.75L55 76.75C56.69 76.75 58.32 76.07 59.52 74.87C60.72 73.67 61.39 72.05 61.4 70.35L61.4 49.99C61.4 48.71 61.12 47.44 60.59 46.28C60.06 45.11 59.28 44.07 58.31 43.23ZM58.84 49.99L58.84 55L54.13 55C53.99 54.82 53.84 54.64 53.69 54.47C53.58 53.43 53.16 52.45 52.48 51.66C51.8 50.87 50.89 50.31 49.88 50.05L49.88 43.08L52.23 43.47L52.23 43.47L53.49 43.68C54.99 43.93 56.34 44.7 57.32 45.86C58.3 47.01 58.84 48.48 58.84 49.99ZM51.45 64.42C51.45 64.43 51.44 64.44 51.44 64.44C51.42 64.47 51.4 64.5 51.38 64.52C51.37 64.53 51.37 64.54 51.36 64.55C51.35 64.57 51.33 64.6 51.31 64.63C51.31 64.64 51.31 64.64 51.31 64.65C51.29 64.68 51.27 64.71 51.26 64.75C51.26 64.75 51.26 64.75 51.26 64.76C51.24 64.79 51.23 64.83 51.22 64.86C51.22 64.87 51.22 64.87 51.21 64.88C51.2 64.91 51.19 64.95 51.19 64.98C51.18 64.99 51.18 65.01 51.18 65.02C51.18 65.05 51.17 65.08 51.17 65.11C51.16 65.15 51.16 65.19 51.16 65.24L51.16 66.52L42.74 66.52L41.3 65.08C41.18 64.97 41.06 64.86 40.93 64.76L40.93 50.93C40.93 49.64 40.71 48.36 40.27 47.14C40.54 47.31 40.86 47.36 41.17 47.3C41.49 47.24 41.76 47.07 41.95 46.81L45.33 42.3C45.43 42.33 45.53 42.35 45.62 42.37L47.32 42.65L47.32 50.05C46.52 50.25 45.78 50.65 45.17 51.21C44.55 51.76 44.08 52.46 43.8 53.24C43.51 54.01 43.42 54.85 43.53 55.67C43.64 56.49 43.94 57.27 44.42 57.95C44.9 58.63 45.53 59.18 46.27 59.55C47 59.93 47.82 60.13 48.65 60.12C49.48 60.11 50.29 59.9 51.02 59.51C51.75 59.12 52.37 58.56 52.84 57.87C53.28 58.96 53.39 60.15 53.16 61.3C52.93 62.45 52.37 63.5 51.54 64.33C51.51 64.36 51.48 64.39 51.45 64.42ZM30.69 20.46L30.69 20.46L30.69 25.58C30.36 25.58 30.03 25.51 29.71 25.39C29.4 25.26 29.12 25.07 28.88 24.83C28.4 24.35 28.13 23.7 28.13 23.02C28.13 22.34 28.4 21.69 28.88 21.21C29.36 20.73 30.01 20.46 30.69 20.46ZM53.72 23.02C53.72 23.7 53.45 24.35 52.97 24.83C52.49 25.31 51.84 25.58 51.16 25.58L51.16 20.46C51.84 20.46 52.49 20.73 52.97 21.21C53.45 21.69 53.72 22.34 53.72 23.02ZM48.6 25.58L40.44 25.58L42.07 22.31C42.15 22.16 42.19 22 42.21 21.83C42.22 21.66 42.2 21.49 42.15 21.33C42.09 21.17 42.01 21.02 41.9 20.9C41.79 20.77 41.66 20.66 41.5 20.59C41.35 20.51 41.19 20.47 41.02 20.46C40.85 20.45 40.68 20.47 40.52 20.52C40.36 20.57 40.22 20.66 40.09 20.77C39.96 20.88 39.86 21.02 39.78 21.17L37.58 25.58L33.25 25.58L33.25 19.38C35.05 18.25 36.44 16.59 37.22 14.62L37.43 14.11C40.26 17.47 44.24 19.67 48.6 20.28L48.6 25.58ZM38.36 28.14L38.37 28.14L38.37 28.14L48.6 28.14C48.6 30.17 47.79 32.13 46.35 33.57C44.92 35 42.96 35.81 40.93 35.81C38.89 35.81 36.94 35 35.5 33.57C34.06 32.13 33.25 30.17 33.25 28.14L38.36 28.14ZM40.93 38.37C41.79 38.37 42.65 38.26 43.49 38.05L43.49 39.85C43.49 40.04 43.51 40.23 43.55 40.42L40.93 43.91L38.29 40.4C38.34 40.21 38.37 40 38.37 39.8L38.37 38.05C39.2 38.26 40.06 38.37 40.93 38.37ZM38.37 54.79C38.37 55.47 38.1 56.12 37.62 56.6C37.14 57.08 36.49 57.35 35.81 57.35C35.13 57.35 34.48 57.08 34 56.6C33.52 56.12 33.25 55.47 33.25 54.79L33.25 49.88L36.56 49.88L38.37 51.69L38.37 54.79ZM51.16 55C51.16 55.51 51.01 56 50.73 56.42C50.45 56.84 50.05 57.17 49.58 57.37C49.11 57.56 48.6 57.61 48.1 57.51C47.61 57.41 47.15 57.17 46.79 56.81C46.44 56.45 46.19 56 46.09 55.5C45.99 55 46.05 54.49 46.24 54.02C46.43 53.55 46.76 53.16 47.18 52.87C47.6 52.59 48.1 52.44 48.6 52.44C49.28 52.44 49.93 52.71 50.41 53.19C50.89 53.67 51.16 54.32 51.16 55ZM57.14 39.44L56.13 41.83C55.42 41.51 54.68 41.29 53.91 41.16L52.65 40.95L52.65 40.95L46.04 39.85L46.04 36.99C47.6 36.1 48.89 34.81 49.79 33.25C50.69 31.7 51.16 29.93 51.16 28.14C52.03 28.14 52.89 27.91 53.65 27.49L53.65 27.94C53.65 28.98 53.86 30.01 54.26 30.98C54.66 31.94 55.24 32.81 55.98 33.55C56.74 34.31 57.25 35.27 57.46 36.32C57.67 37.37 57.55 38.46 57.14 39.44ZM40.93 2.55C44.32 2.55 47.57 3.9 49.97 6.3C52.37 8.7 53.72 11.95 53.72 15.35L53.72 18.59C52.94 18.14 52.06 17.9 51.16 17.9C50.76 17.9 50.36 17.89 49.98 17.86C47.64 17.69 45.37 16.98 43.35 15.8C41.33 14.61 39.6 12.98 38.31 11.02L38.15 10.8C38.03 10.6 37.85 10.45 37.63 10.35C37.42 10.25 37.19 10.21 36.96 10.24C36.73 10.26 36.51 10.35 36.32 10.49C36.13 10.63 35.99 10.82 35.9 11.03L34.85 13.67C34.46 14.65 33.86 15.53 33.11 16.26C32.35 16.99 31.45 17.56 30.46 17.91C29.64 17.95 28.84 18.18 28.14 18.59L28.14 15.35C28.14 11.95 29.49 8.7 31.89 6.3C34.28 3.91 37.54 2.56 40.93 2.55ZM25.81 33.55C26.55 32.82 27.14 31.94 27.54 30.98C27.93 30.01 28.14 28.98 28.14 27.94L28.14 27.45C28.91 27.9 29.8 28.14 30.69 28.14C30.7 29.93 31.17 31.7 32.07 33.25C32.96 34.81 34.26 36.1 35.81 36.99L35.81 39.8L32.95 40.16C32.71 40.08 32.46 40.01 32.21 39.95C29.84 39.39 27.36 39.62 25.13 40.58L24.65 39.44C24.24 38.46 24.13 37.37 24.33 36.32C24.54 35.27 25.05 34.31 25.81 33.55L25.81 33.55ZM14.78 49.88L15.34 49.88L15.34 50.15C15.34 50.42 15.24 50.68 15.05 50.87C14.86 51.06 14.6 51.16 14.33 51.16L13.5 51.16C13.5 51.16 13.5 51.15 13.51 51.14C13.51 51.09 13.51 51.03 13.52 50.98C13.52 50.96 13.52 50.95 13.53 50.93C13.54 50.87 13.55 50.81 13.57 50.75C13.57 50.75 13.58 50.74 13.58 50.73C13.6 50.68 13.62 50.63 13.65 50.58C13.65 50.56 13.66 50.55 13.67 50.53C13.7 50.48 13.74 50.43 13.78 50.38C13.89 50.22 14.05 50.1 14.22 50.01C14.4 49.93 14.59 49.88 14.78 49.88ZM24.3 60.12C24.47 60.12 24.63 60.09 24.79 60.02C24.94 59.96 25.08 59.86 25.2 59.74L27.76 57.19C27.88 57.07 27.97 56.93 28.04 56.77C28.1 56.61 28.14 56.45 28.14 56.28C28.14 56.11 28.1 55.95 28.04 55.79C27.97 55.64 27.88 55.49 27.76 55.38C27.64 55.26 27.5 55.16 27.35 55.1C27.19 55.03 27.02 55 26.86 55C26.69 55 26.52 55.03 26.37 55.1C26.21 55.16 26.07 55.26 25.95 55.38L23.77 57.56L18.06 57.56C17.2 57.56 16.37 57.28 15.7 56.75C15.02 56.22 14.54 55.48 14.34 54.65L14.1 53.72L14.33 53.72C15.28 53.72 16.19 53.34 16.85 52.68C17.52 52.01 17.9 51.1 17.9 50.15L17.9 49.88L19.18 49.88C19.45 49.88 19.71 49.8 19.93 49.64C20.15 49.49 20.31 49.26 20.39 49.01C21.12 46.82 22.61 44.97 24.58 43.78L25.15 43.45C27.09 42.28 29.41 41.92 31.62 42.44C31.89 42.51 32.16 42.59 32.42 42.67C32.79 42.8 33.15 42.95 33.49 43.12L33.56 43.16C34.14 43.45 34.69 43.8 35.19 44.21C35.2 44.22 35.22 44.23 35.23 44.24C36.27 45.11 37.1 46.21 37.64 47.45C37.47 47.37 37.28 47.33 37.09 47.33L31.97 47.33C31.63 47.33 31.31 47.46 31.07 47.7C30.83 47.94 30.69 48.27 30.69 48.61L30.69 54.79C30.69 55.69 30.93 56.58 31.37 57.36C31.82 58.14 32.47 58.78 33.25 59.23C34.03 59.68 34.91 59.92 35.81 59.91C36.71 59.91 37.59 59.67 38.37 59.22L38.37 63.96C37.58 63.96 36.8 64.2 36.15 64.66C35.5 65.12 35.01 65.77 34.75 66.51L34.53 66.51C33.63 66.51 32.75 66.75 31.97 67.2C31.19 67.65 30.55 68.29 30.1 69.07C29.65 69.85 29.41 70.73 29.41 71.63C29.42 72.53 29.65 73.41 30.1 74.19L23.6 74.19C24.07 73.38 24.31 72.46 24.29 71.53C24.28 70.59 24.01 69.68 23.51 68.89C24.32 67.45 24.99 65.93 25.51 64.36C25.62 64.04 25.59 63.69 25.44 63.38C25.29 63.08 25.02 62.85 24.7 62.74C24.38 62.64 24.03 62.66 23.73 62.81C23.42 62.96 23.19 63.23 23.08 63.55C22.68 64.77 22.17 65.95 21.57 67.09C21.25 66.92 20.92 66.79 20.57 66.69L20.36 66.63C20.34 66.28 20.27 65.93 20.15 65.6C20.46 65.01 20.74 64.41 21 63.81L22.58 60.12L24.3 60.12ZM12.33 70.06L12.95 68.69C13.52 67.43 14.49 66.38 15.69 65.7C15.84 65.62 16 65.57 16.17 65.55C16.34 65.53 16.51 65.54 16.67 65.59L16.88 65.65C17.2 65.74 17.48 65.96 17.65 66.25C17.81 66.55 17.85 66.9 17.76 67.23C17.67 67.55 17.71 67.9 17.88 68.2C18.04 68.49 18.32 68.71 18.64 68.8L19.88 69.15C20.52 69.34 21.07 69.78 21.4 70.37C21.73 70.96 21.81 71.66 21.63 72.31C21.44 72.96 21.01 73.51 20.42 73.84C19.83 74.17 19.14 74.26 18.48 74.08L13.56 72.69C13.29 72.61 13.05 72.48 12.84 72.3C12.63 72.12 12.46 71.9 12.34 71.65C12.23 71.4 12.17 71.13 12.17 70.86C12.16 70.58 12.22 70.31 12.34 70.06L12.33 70.06ZM58.84 70.35C58.84 71.37 58.43 72.34 57.71 73.06C56.99 73.78 56.02 74.19 55 74.19L34.53 74.19C33.85 74.19 33.2 73.92 32.72 73.44C32.24 72.96 31.97 72.31 31.97 71.63C31.97 70.95 32.24 70.3 32.72 69.82C33.2 69.34 33.85 69.07 34.53 69.07L35.81 69.07C36.15 69.07 36.48 68.94 36.72 68.7C36.96 68.46 37.09 68.13 37.09 67.79C37.09 67.63 37.12 67.46 37.19 67.3C37.25 67.15 37.34 67.01 37.46 66.89C37.58 66.77 37.72 66.68 37.88 66.61C38.03 66.55 38.2 66.51 38.37 66.51L38.59 66.51C38.93 66.52 39.25 66.65 39.49 66.89L41.3 68.7C41.42 68.82 41.56 68.91 41.72 68.98C41.87 69.04 42.04 69.07 42.21 69.07L52.44 69.07C52.78 69.07 53.11 68.94 53.35 68.7C53.58 68.46 53.72 68.13 53.72 67.79L53.72 65.74C54.69 64.64 55.35 63.31 55.66 61.88C55.96 60.44 55.89 58.96 55.45 57.56L58.84 57.56L58.84 70.35Z" fill="#000000" fill-opacity="1.000000" fill-rule="nonzero"/>
	<path id="Vector" d="M16.64 36.47C16.45 35.69 16.05 34.99 15.5 34.42C14.94 33.85 14.25 33.44 13.48 33.23C12.71 33.02 11.91 33.01 11.14 33.21C10.37 33.41 9.67 33.82 9.11 34.38L8.39 35.09L7.68 34.38C7.12 33.82 6.42 33.41 5.65 33.21C4.88 33.01 4.07 33.01 3.31 33.23C2.54 33.44 1.85 33.85 1.29 34.42C0.74 34.99 0.34 35.69 0.15 36.47C-0.11 37.51 -0.04 38.6 0.35 39.6C0.73 40.61 1.42 41.46 2.31 42.06L7.68 45.64C7.89 45.78 8.14 45.86 8.39 45.86C8.65 45.86 8.89 45.78 9.1 45.64L14.48 42.06C15.37 41.46 16.05 40.61 16.44 39.6C16.83 38.6 16.9 37.51 16.64 36.47ZM13.06 39.93L8.39 43.04L3.73 39.93C3.28 39.63 2.93 39.19 2.73 38.68C2.53 38.17 2.5 37.62 2.63 37.09C2.71 36.75 2.88 36.45 3.12 36.21C3.36 35.96 3.66 35.78 3.99 35.69C4.32 35.6 4.67 35.6 5 35.69C5.33 35.77 5.63 35.95 5.87 36.19L7.49 37.81C7.61 37.92 7.75 38.02 7.9 38.08C8.06 38.15 8.23 38.18 8.39 38.18C8.56 38.18 8.73 38.15 8.88 38.08C9.04 38.02 9.18 37.92 9.3 37.81L10.92 36.19C11.16 35.95 11.46 35.77 11.79 35.69C12.12 35.6 12.47 35.6 12.8 35.69C13.13 35.78 13.43 35.96 13.67 36.21C13.9 36.45 14.07 36.75 14.16 37.09C14.29 37.62 14.25 38.17 14.06 38.68C13.86 39.19 13.51 39.63 13.06 39.93Z" fill="#000000" fill-opacity="1.000000" fill-rule="nonzero"/>
	<path id="Vector" d="M26.86 49.88C26.86 50.59 26.28 51.16 25.58 51.16C24.87 51.16 24.3 50.59 24.3 49.88C24.3 49.18 24.87 48.61 25.58 48.61C26.28 48.61 26.86 49.18 26.86 49.88Z" fill="#000000" fill-opacity="1.000000" fill-rule="evenodd"/>
</svg>
