<svg width="76.000000" height="76.000000" viewBox="0 0 76 76" fill="none" xmlns="http://www.w3.org/2000/svg" xmlns:xlink="http://www.w3.org/1999/xlink">
	<desc>
			Created with Pixso.
	</desc>
	<defs/>
	<path id="Vector" d="M74.67 18.98L74.67 56.95L56.95 56.95L56.95 74.67L18.98 74.67L18.98 56.95L1.26 56.95L1.26 18.98L18.98 18.98L18.98 1.26L56.95 1.26L56.95 18.98L74.67 18.98Z" fill="#6B9777" fill-opacity="1.000000" fill-rule="nonzero"/>
	<path id="Vector" d="M72.14 18.98L72.14 56.95L54.42 56.95L54.42 74.67L18.98 74.67L18.98 56.95L1.26 56.95L1.26 18.98L18.98 18.98L18.98 1.26L54.42 1.26L54.42 18.98L72.14 18.98Z" fill="#85BC94" fill-opacity="1.000000" fill-rule="nonzero"/>
	<path id="Vector" d="M20.25 50.62L18.98 50.62C17.89 50.62 16.84 50.26 15.99 49.59C15.13 48.92 14.52 47.99 14.26 46.94L12.65 40.5L11.81 41.33C10.89 42.25 10.2 43.37 9.79 44.6C9.38 45.84 9.26 47.15 9.45 48.44C9.88 51.46 11.49 54.18 13.93 56.01C14.74 56.62 15.73 56.95 16.75 56.95L20.25 56.95L20.25 50.62Z" fill="#744630" fill-opacity="1.000000" fill-rule="nonzero"/>
	<path id="Vector" d="M53.15 72.14L51.89 74.67L18.98 74.67L18.98 55.95C18.98 53.26 19.41 50.58 20.26 48.03L20.95 45.96C22.15 42.37 24.17 39.1 26.85 36.43L26.94 36.33C29.2 34.07 31.01 31.4 32.27 28.46C32.77 27.31 33.26 26.15 33.62 25.31C33.95 24.54 34.17 24.04 34.17 24.04L30.53 24.04C29.4 24.04 28.3 23.66 27.41 22.97C26.52 22.27 25.89 21.3 25.61 20.21L24.99 17.71L24.83 17.06C24.73 16.69 24.73 16.3 24.81 15.92C24.89 15.55 25.05 15.19 25.29 14.89C25.53 14.59 25.83 14.34 26.17 14.17C26.52 14 26.9 13.92 27.28 13.92L31.64 13.92C32.45 11.47 34.12 9.39 36.33 8.06L36.89 7.73C38.31 6.88 39.93 6.39 41.58 6.33C43.24 6.27 44.89 6.62 46.38 7.36L46.43 7.39C48.07 8.21 49.45 9.47 50.41 11.03C51.38 12.59 51.89 14.39 51.89 16.22L51.89 70.87L53.15 72.14Z" fill="#F3AF3E" fill-opacity="1.000000" fill-rule="nonzero"/>
	<path id="Vector" d="M25.94 74.67C24.43 74.67 22.98 74.06 21.92 73C20.85 71.93 20.25 70.48 20.25 68.97L20.25 68.02C20.25 67.14 20.45 66.27 20.85 65.48C21.24 64.69 21.82 64 22.52 63.47C23.39 62.82 24.09 61.97 24.57 61.01C25.05 60.04 25.31 58.98 25.31 57.9L25.31 56.95C25.31 56.61 25.44 56.29 25.68 56.05C25.92 55.82 26.24 55.68 26.57 55.68C26.91 55.68 27.23 55.82 27.47 56.05C27.71 56.29 27.84 56.61 27.84 56.95L27.84 57.9C27.84 59.37 27.49 60.82 26.83 62.14C26.17 63.46 25.22 64.6 24.04 65.49C23.65 65.79 23.33 66.17 23.11 66.61C22.89 67.05 22.78 67.53 22.78 68.02L22.78 68.97C22.78 69.81 23.11 70.62 23.7 71.21C24.3 71.8 25.1 72.14 25.94 72.14C26.78 72.14 27.58 71.8 28.18 71.21C28.77 70.62 29.1 69.81 29.1 68.97L29.1 68.34C29.11 67.33 29.51 66.37 30.22 65.66C30.93 64.94 31.89 64.54 32.9 64.54C33.24 64.54 33.56 64.68 33.8 64.91C34.03 65.15 34.17 65.47 34.17 65.81C34.17 66.14 34.03 66.47 33.8 66.7C33.56 66.94 33.24 67.07 32.9 67.07C32.57 67.07 32.24 67.21 32.01 67.44C31.77 67.68 31.64 68 31.64 68.34L31.64 68.97C31.63 70.48 31.03 71.93 29.97 73C28.9 74.06 27.45 74.67 25.94 74.67Z" fill="#CD761F" fill-opacity="1.000000" fill-rule="nonzero"/>
	<path id="Vector" d="M53.15 72.14L51.89 74.67L38.35 74.67C37.3 74.67 36.26 74.46 35.3 74.06C34.33 73.66 33.45 73.07 32.71 72.33C31.97 71.59 31.38 70.71 30.98 69.74C30.58 68.77 30.37 67.74 30.37 66.69C30.37 65.26 30.57 63.85 30.96 62.48L31.15 61.82C32.27 57.88 34.86 54.51 38.37 52.4C38.93 52.06 39.38 51.58 39.68 50.99L41.76 46.82L37.47 46.82C37.04 46.82 36.61 46.74 36.21 46.57C35.81 46.41 35.44 46.16 35.14 45.85C34.83 45.55 34.58 45.18 34.42 44.78C34.25 44.38 34.17 43.95 34.17 43.52L34.17 40.5L37.96 40.5L38.28 39.55C38.57 38.68 39.08 37.89 39.75 37.26C40.43 36.64 41.25 36.19 42.15 35.97L44.29 35.43L44.29 31.64L47.99 34.41C48.89 35.08 49.62 35.95 50.12 36.96C51.28 39.28 51.89 41.85 51.89 44.45L51.89 70.87L53.15 72.14Z" fill="#E08122" fill-opacity="1.000000" fill-rule="nonzero"/>
	<path id="Vector" d="M43.92 46.45L42.66 47.72C42.42 47.96 42.1 48.09 41.76 48.09L41.13 48.09L41.76 46.82L37.47 46.82C36.99 46.82 36.52 46.72 36.08 46.52C35.65 46.31 35.26 46.02 34.95 45.65C35.1 45.59 35.27 45.56 35.43 45.56L41.24 45.56L42.13 44.66C42.37 44.42 42.69 44.29 43.03 44.29C43.36 44.29 43.68 44.42 43.92 44.66C44.16 44.9 44.29 45.22 44.29 45.56C44.29 45.89 44.16 46.22 43.92 46.45Z" fill="#CD761F" fill-opacity="1.000000" fill-rule="nonzero"/>
	<path id="Vector" d="M46.82 58.21C46.49 58.21 46.17 58.35 45.93 58.58C45.69 58.82 45.56 59.14 45.56 59.48L45.56 68.64C45.08 68.44 44.56 68.34 44.04 68.34L42.86 68.34L43.03 68.08C43.59 67.25 43.91 66.28 43.96 65.28C44 64.28 43.78 63.28 43.31 62.4C42.83 61.52 42.13 60.78 41.27 60.27C40.41 59.75 39.43 59.48 38.43 59.48L37.96 59.48C37.63 59.48 37.31 59.61 37.07 59.85C36.83 60.09 36.7 60.41 36.7 60.75C36.7 61.08 36.83 61.4 37.07 61.64C37.31 61.88 37.63 62.01 37.96 62.01L38.43 62.01C38.97 62.01 39.51 62.16 39.97 62.44C40.44 62.72 40.82 63.12 41.08 63.6C41.33 64.07 41.45 64.61 41.43 65.16C41.4 65.7 41.23 66.22 40.93 66.68L39.44 68.9C39.31 69.09 39.24 69.31 39.23 69.54C39.22 69.77 39.27 70 39.38 70.2C39.49 70.4 39.65 70.57 39.84 70.69C40.04 70.81 40.27 70.87 40.5 70.87L44.04 70.87C44.44 70.87 44.83 71.03 45.11 71.32C45.4 71.6 45.56 71.99 45.56 72.39L45.56 74.67L48.09 74.67L48.09 59.48C48.09 59.14 47.96 58.82 47.72 58.58C47.48 58.35 47.16 58.21 46.82 58.21Z" fill="#CD761F" fill-opacity="1.000000" fill-rule="nonzero"/>
	<path id="Vector" d="M51.89 16.45L51.89 20.04C51.89 20.84 51.63 21.61 51.17 22.26C50.7 22.91 50.05 23.39 49.29 23.64C48.51 23.9 47.67 23.9 46.89 23.64C46.13 23.39 45.47 22.91 45.01 22.26C44.54 21.61 44.29 20.84 44.29 20.04L44.29 13.92L49.35 13.92L51.89 16.45Z" fill="#744630" fill-opacity="1.000000" fill-rule="nonzero"/>
	<path id="Vector" d="M40.12 22.41L37.59 24.94C37.36 25.17 37.03 25.31 36.7 25.31L33.62 25.31C33.95 24.54 34.17 24.04 34.17 24.04L30.53 24.04C29.35 24.04 28.22 23.64 27.31 22.89C27.48 22.82 27.66 22.78 27.84 22.78L36.17 22.78L38.33 20.62C38.45 20.5 38.59 20.4 38.74 20.34C38.9 20.28 39.06 20.24 39.23 20.24C39.4 20.24 39.56 20.28 39.71 20.34C39.87 20.4 40.01 20.5 40.12 20.62C40.24 20.73 40.34 20.87 40.4 21.03C40.46 21.18 40.5 21.34 40.5 21.51C40.5 21.68 40.46 21.84 40.4 22C40.34 22.15 40.24 22.29 40.12 22.41Z" fill="#D18D28" fill-opacity="1.000000" fill-rule="nonzero"/>
	<path id="Vector" d="M29.1 13.92L29.1 16.45C29.1 16.78 28.97 17.11 28.73 17.34C28.5 17.58 28.17 17.71 27.84 17.71L24.99 17.71L24.83 17.06C24.73 16.69 24.73 16.3 24.81 15.92C24.89 15.55 25.05 15.19 25.29 14.89C25.53 14.59 25.83 14.34 26.17 14.17C26.52 14 26.9 13.92 27.28 13.92L29.1 13.92Z" fill="#D18D28" fill-opacity="1.000000" fill-rule="nonzero"/>
	<path id="Vector" d="M33.03 37.37C32.8 37.37 32.56 37.3 32.37 37.18C32.17 37.06 32 36.88 31.9 36.67C31.79 36.46 31.75 36.22 31.77 35.99C31.79 35.76 31.88 35.53 32.02 35.34C33.53 33.33 34.7 31.09 35.5 28.7C35.6 28.39 35.83 28.12 36.13 27.97C36.43 27.82 36.78 27.8 37.1 27.9C37.42 28.01 37.68 28.24 37.83 28.54C37.98 28.84 38 29.19 37.9 29.5C37.02 32.15 35.72 34.63 34.04 36.86C33.93 37.02 33.77 37.15 33.6 37.24C33.42 37.32 33.23 37.37 33.03 37.37Z" fill="#D18D28" fill-opacity="1.000000" fill-rule="nonzero"/>
	<path id="Vector" d="M24.04 55.68C23.71 55.68 23.38 55.55 23.15 55.31C22.91 55.07 22.78 54.75 22.78 54.42C22.79 50.04 24.21 45.78 26.83 42.27C27.03 42 27.33 41.82 27.66 41.77C27.99 41.73 28.33 41.81 28.6 42.01C28.87 42.22 29.04 42.52 29.09 42.85C29.14 43.18 29.05 43.52 28.85 43.79C26.56 46.86 25.32 50.58 25.31 54.42C25.31 54.75 25.17 55.07 24.94 55.31C24.7 55.55 24.38 55.68 24.04 55.68Z" fill="#D18D28" fill-opacity="1.000000" fill-rule="nonzero"/>
	<path id="Vector" d="M39.23 15.18C39.23 15.88 38.66 16.45 37.96 16.45C37.26 16.45 36.7 15.88 36.7 15.18C36.7 14.48 37.26 13.92 37.96 13.92C38.66 13.92 39.23 14.48 39.23 15.18Z" fill="#D18D28" fill-opacity="1.000000" fill-rule="evenodd"/>
	<path id="Vector" d="M44.29 40.5C44.29 41.19 43.73 41.76 43.03 41.76C42.33 41.76 41.76 41.19 41.76 40.5C41.76 39.8 42.33 39.23 43.03 39.23C43.73 39.23 44.29 39.8 44.29 40.5Z" fill="#CD761F" fill-opacity="1.000000" fill-rule="evenodd"/>
	<path id="Vector" d="M74.67 17.71L58.21 17.71L58.21 1.26C58.21 0.92 58.08 0.6 57.84 0.37C57.61 0.13 57.28 0 56.95 0L18.98 0C18.64 0 18.32 0.13 18.08 0.37C17.85 0.6 17.71 0.92 17.71 1.26L17.71 17.71L1.26 17.71C0.92 17.71 0.6 17.85 0.37 18.08C0.13 18.32 0 18.64 0 18.98L0 56.95C0 57.28 0.13 57.61 0.37 57.84C0.6 58.08 0.92 58.21 1.26 58.21L17.71 58.21L17.71 74.67C17.71 75 17.85 75.32 18.08 75.56C18.32 75.8 18.64 75.93 18.98 75.93L56.95 75.93C57.28 75.93 57.61 75.8 57.84 75.56C58.08 75.32 58.21 75 58.21 74.67L58.21 58.21L74.67 58.21C75 58.21 75.32 58.08 75.56 57.84C75.8 57.61 75.93 57.28 75.93 56.95L75.93 18.98C75.93 18.64 75.8 18.32 75.56 18.08C75.32 17.85 75 17.71 74.67 17.71ZM17.72 55.68L16.75 55.68C16 55.68 15.28 55.44 14.69 55C12.52 53.37 11.08 50.94 10.7 48.25C10.44 46.42 10.91 44.57 11.99 43.07L13.03 47.24C13.33 48.41 13.96 49.47 14.85 50.29C15.74 51.1 16.85 51.63 18.04 51.81C17.84 53.09 17.73 54.39 17.72 55.68ZM20.25 73.4L20.25 68.97C20.24 69.72 20.39 70.46 20.68 71.15C20.96 71.84 21.38 72.47 21.91 73C22.06 73.14 22.2 73.28 22.36 73.4L20.25 73.4ZM29.1 68.34L29.1 68.97C29.1 69.81 28.77 70.62 28.18 71.21C27.58 71.8 26.78 72.14 25.94 72.14C25.1 72.14 24.3 71.8 23.7 71.21C23.11 70.62 22.78 69.81 22.78 68.97L22.78 68.02C22.78 67.53 22.89 67.05 23.11 66.61C23.33 66.17 23.65 65.79 24.04 65.49C25.22 64.61 26.18 63.46 26.84 62.14C27.5 60.82 27.84 59.37 27.84 57.9L27.84 56.95C27.84 56.61 27.71 56.29 27.47 56.05C27.23 55.82 26.91 55.68 26.57 55.68C26.24 55.68 25.92 55.82 25.68 56.05C25.44 56.29 25.31 56.61 25.31 56.95L25.31 57.9C25.31 58.98 25.06 60.04 24.57 61.01C24.09 61.98 23.39 62.82 22.52 63.47C21.82 64 21.24 64.69 20.85 65.48C20.45 66.27 20.25 67.14 20.25 68.02L20.25 55.95C20.24 54.25 20.43 52.55 20.79 50.89C20.79 50.88 20.79 50.87 20.8 50.86C20.98 50.04 21.2 49.23 21.46 48.43L22.15 46.36C23.29 42.96 25.2 39.86 27.74 37.32L27.83 37.23C30.21 34.86 32.11 32.05 33.43 28.96L35 25.31L36.7 25.31C36.86 25.31 37.03 25.27 37.18 25.21C37.34 25.15 37.48 25.05 37.59 24.94L40.12 22.41C40.36 22.17 40.5 21.85 40.5 21.51C40.5 21.17 40.36 20.85 40.12 20.62C39.89 20.38 39.57 20.24 39.23 20.24C38.89 20.24 38.57 20.38 38.33 20.62L36.17 22.78L30.53 22.78C29.68 22.78 28.86 22.49 28.19 21.97C27.52 21.45 27.05 20.72 26.84 19.9L26.61 18.98L27.84 18.98C28.51 18.98 29.15 18.71 29.63 18.24C30.1 17.76 30.37 17.12 30.37 16.45L30.37 15.18L31.64 15.18C31.9 15.18 32.16 15.1 32.38 14.94C32.59 14.79 32.75 14.57 32.84 14.32C33.56 12.15 35.03 10.32 36.98 9.15L37.54 8.81C38.78 8.07 40.18 7.65 41.63 7.6C43.07 7.54 44.5 7.85 45.8 8.49L45.86 8.52C47.67 9.42 49.1 10.93 49.91 12.78C49.74 12.7 49.55 12.65 49.35 12.65L44.29 12.65C43.96 12.65 43.63 12.78 43.4 13.02C43.16 13.26 43.03 13.58 43.03 13.92L43.03 20.04C43.02 20.93 43.26 21.8 43.7 22.57C44.14 23.35 44.78 23.99 45.55 24.43C46.32 24.87 47.2 25.11 48.09 25.11C48.98 25.1 49.85 24.87 50.62 24.42L50.62 35.34C50.1 34.6 49.47 33.94 48.75 33.4L45.05 30.62C44.86 30.48 44.64 30.4 44.41 30.38C44.17 30.35 43.94 30.4 43.73 30.5C43.52 30.61 43.34 30.77 43.22 30.97C43.09 31.17 43.03 31.4 43.03 31.64L43.03 34.44L41.84 34.74C40.74 35.01 39.72 35.56 38.89 36.33C38.06 37.1 37.43 38.07 37.08 39.15L37.05 39.23L34.17 39.23C33.83 39.23 33.51 39.36 33.27 39.6C33.03 39.84 32.9 40.16 32.9 40.5L32.9 43.52C32.9 44.73 33.39 45.89 34.24 46.75C35.1 47.61 36.26 48.09 37.47 48.09L39.71 48.09L38.54 50.43C38.36 50.79 38.08 51.1 37.72 51.31C33.93 53.58 31.14 57.22 29.93 61.47L29.74 62.13C29.32 63.61 29.1 65.15 29.1 66.69C29.1 67.02 29.12 67.36 29.16 67.69C29.12 67.91 29.1 68.12 29.1 68.34ZM26.02 16.45C26.02 16.44 26.02 16.43 26.02 16.43C26.02 16.37 26.02 16.32 26.03 16.27C26.03 16.25 26.04 16.24 26.04 16.22C26.05 16.16 26.07 16.1 26.08 16.04C26.09 16.04 26.09 16.03 26.09 16.02C26.11 15.97 26.13 15.92 26.16 15.87C26.17 15.86 26.18 15.84 26.18 15.83C26.21 15.77 26.25 15.72 26.29 15.67C26.4 15.52 26.56 15.39 26.73 15.31C26.9 15.23 27.09 15.18 27.28 15.18L27.84 15.18L27.84 16.45L26.02 16.45ZM50.62 16.97L50.62 20.04C50.62 20.71 50.35 21.35 49.88 21.83C49.4 22.3 48.76 22.57 48.09 22.57C47.42 22.57 46.77 22.3 46.3 21.83C45.82 21.35 45.56 20.71 45.56 20.04L45.56 15.18L48.83 15.18L50.62 16.97ZM29.51 73.4C30.01 73 30.44 72.52 30.77 71.98C31.13 72.49 31.55 72.97 32 73.4L29.51 73.4ZM51.1 73.4L48.09 73.4L48.09 59.48C48.09 59.14 47.96 58.82 47.72 58.58C47.48 58.35 47.16 58.21 46.82 58.21C46.49 58.21 46.17 58.35 45.93 58.58C45.69 58.82 45.56 59.14 45.56 59.48L45.56 68.64C45.08 68.44 44.56 68.34 44.04 68.34L42.86 68.34L43.03 68.08C43.59 67.25 43.91 66.28 43.96 65.28C44 64.28 43.78 63.28 43.31 62.4C42.83 61.52 42.13 60.78 41.27 60.27C40.41 59.75 39.43 59.48 38.43 59.48L37.96 59.48C37.63 59.48 37.31 59.61 37.07 59.85C36.83 60.09 36.7 60.41 36.7 60.75C36.7 61.08 36.83 61.4 37.07 61.64C37.31 61.88 37.63 62.01 37.96 62.01L38.43 62.01C38.97 62.01 39.51 62.16 39.97 62.44C40.44 62.72 40.82 63.12 41.08 63.6C41.33 64.07 41.45 64.61 41.43 65.16C41.4 65.7 41.23 66.22 40.93 66.68L39.44 68.9C39.31 69.09 39.24 69.31 39.23 69.54C39.22 69.77 39.27 70 39.38 70.2C39.49 70.4 39.65 70.57 39.84 70.69C40.04 70.81 40.27 70.87 40.5 70.87L44.04 70.87C44.44 70.87 44.83 71.03 45.11 71.32C45.4 71.6 45.56 71.99 45.56 72.39L45.56 73.4L38.35 73.4C36.57 73.4 34.86 72.69 33.6 71.43C32.35 70.17 31.64 68.47 31.64 66.69C31.64 65.38 31.82 64.08 32.18 62.83L32.36 62.17C33.4 58.53 35.78 55.42 39.03 53.48C39.79 53.03 40.41 52.36 40.81 51.56L42.8 47.57L43.92 46.45C44.16 46.21 44.29 45.89 44.29 45.56C44.29 45.22 44.16 44.9 43.92 44.66C43.69 44.42 43.36 44.29 43.03 44.29C42.69 44.29 42.37 44.42 42.13 44.66L41.24 45.56L37.47 45.56C36.93 45.56 36.41 45.34 36.03 44.96C35.65 44.58 35.43 44.06 35.43 43.52L35.43 41.76L37.96 41.76C38.23 41.76 38.49 41.68 38.7 41.52C38.92 41.37 39.08 41.15 39.16 40.9L39.48 39.95C39.7 39.28 40.09 38.67 40.61 38.19C41.13 37.71 41.77 37.37 42.45 37.2L44.6 36.66C44.87 36.59 45.12 36.43 45.29 36.21C45.46 35.99 45.56 35.71 45.56 35.43L45.56 34.17L47.23 35.42C47.97 35.98 48.57 36.7 48.99 37.53C50.06 39.68 50.62 42.05 50.62 44.45L50.62 70.87C50.62 71.04 50.65 71.2 50.72 71.35C50.78 71.51 50.87 71.65 50.99 71.76L51.61 72.39L51.1 73.4ZM73.4 55.68L56.95 55.68C56.61 55.68 56.29 55.82 56.05 56.05C55.82 56.29 55.68 56.61 55.68 56.95L55.68 73.4L53.93 73.4L54.28 72.7C54.4 72.46 54.44 72.2 54.4 71.93C54.36 71.67 54.23 71.43 54.05 71.24L53.15 70.35L53.15 16.22C53.16 14.15 52.59 12.12 51.5 10.37C50.42 8.61 48.86 7.19 47.01 6.27L46.94 6.23C45.27 5.4 43.41 4.99 41.54 5.07C39.67 5.14 37.84 5.68 36.24 6.64L35.68 6.98C33.48 8.3 31.76 10.28 30.76 12.65L27.28 12.65C26.71 12.65 26.14 12.78 25.62 13.04C25.1 13.29 24.65 13.66 24.29 14.11C23.94 14.57 23.69 15.1 23.57 15.66C23.45 16.22 23.46 16.81 23.6 17.37L24.39 20.51C24.73 21.88 25.52 23.1 26.63 23.97C27.74 24.84 29.11 25.31 30.52 25.31L32.25 25.31L31.11 27.97C29.91 30.76 28.19 33.29 26.04 35.44L25.95 35.53C23.14 38.35 21.02 41.78 19.75 45.56L19.06 47.63C18.88 48.19 18.71 48.76 18.56 49.33C17.84 49.24 17.15 48.94 16.6 48.46C16.05 47.98 15.67 47.34 15.49 46.63L13.88 40.19C13.82 39.97 13.71 39.77 13.56 39.61C13.4 39.45 13.2 39.34 12.99 39.28C12.77 39.22 12.55 39.21 12.33 39.27C12.11 39.33 11.91 39.44 11.76 39.6L10.92 40.44C9.86 41.5 9.07 42.79 8.6 44.21C8.12 45.62 7.99 47.13 8.19 48.61C8.57 51.28 9.78 53.75 11.66 55.68L2.53 55.68L2.53 20.25L18.98 20.25C19.32 20.25 19.64 20.11 19.87 19.87C20.11 19.64 20.25 19.32 20.25 18.98L20.25 2.53L55.68 2.53L55.68 18.98C55.68 19.32 55.82 19.64 56.05 19.87C56.29 20.11 56.61 20.25 56.95 20.25L73.4 20.25L73.4 55.68Z" fill="#000000" fill-opacity="1.000000" fill-rule="nonzero"/>
	<path id="Vector" d="M32.27 37.12C32.4 37.22 32.56 37.29 32.72 37.33C32.88 37.37 33.05 37.38 33.21 37.36C33.37 37.33 33.53 37.28 33.68 37.19C33.82 37.11 33.94 37 34.04 36.86C35.72 34.63 37.02 32.15 37.9 29.5C38.01 29.19 37.98 28.84 37.83 28.54C37.68 28.24 37.42 28.01 37.1 27.9C36.78 27.8 36.43 27.82 36.13 27.97C35.83 28.12 35.6 28.39 35.5 28.7C34.7 31.09 33.53 33.33 32.02 35.34C31.82 35.61 31.73 35.95 31.78 36.28C31.83 36.61 32 36.91 32.27 37.12Z" fill="#000000" fill-opacity="1.000000" fill-rule="nonzero"/>
	<path id="Vector" d="M28.6 42.01C28.33 41.81 27.99 41.73 27.66 41.77C27.33 41.82 27.03 42 26.83 42.27C24.21 45.78 22.79 50.04 22.78 54.42C22.78 54.75 22.91 55.07 23.15 55.31C23.38 55.55 23.71 55.68 24.04 55.68C24.38 55.68 24.7 55.55 24.94 55.31C25.17 55.07 25.31 54.75 25.31 54.42C25.32 50.58 26.56 46.86 28.85 43.79C29.05 43.52 29.14 43.18 29.09 42.85C29.04 42.52 28.87 42.22 28.6 42.01Z" fill="#000000" fill-opacity="1.000000" fill-rule="nonzero"/>
	<path id="Vector" d="M39.23 15.18C39.23 15.88 38.66 16.45 37.96 16.45C37.26 16.45 36.7 15.88 36.7 15.18C36.7 14.48 37.26 13.92 37.96 13.92C38.66 13.92 39.23 14.48 39.23 15.18Z" fill="#000000" fill-opacity="1.000000" fill-rule="evenodd"/>
	<path id="Vector" d="M44.29 40.5C44.29 41.19 43.73 41.76 43.03 41.76C42.33 41.76 41.76 41.19 41.76 40.5C41.76 39.8 42.33 39.23 43.03 39.23C43.73 39.23 44.29 39.8 44.29 40.5Z" fill="#000000" fill-opacity="1.000000" fill-rule="evenodd"/>
</svg>
