<svg width="72.000000" height="78.000000" viewBox="0 0 72 78" fill="none" xmlns="http://www.w3.org/2000/svg" xmlns:xlink="http://www.w3.org/1999/xlink">
	<desc>
			Created with Pixso.
	</desc>
	<defs/>
	<path id="Vector" d="M30.85 25.71L30.85 22.37C30.85 21.81 30.98 21.25 31.22 20.74C31.46 20.22 31.81 19.77 32.24 19.41L37.78 14.79C38.29 14.37 38.93 14.14 39.59 14.14C39.96 14.14 40.33 14.21 40.68 14.35C41.02 14.5 41.33 14.7 41.59 14.97C41.86 15.23 42.07 15.54 42.21 15.89C42.35 16.23 42.42 16.6 42.42 16.97L42.42 22.03C42.42 22.79 42.27 23.54 41.98 24.24C41.69 24.94 41.27 25.58 40.73 26.12L38.57 28.28L38.57 33.81C38.57 34.47 38.38 35.11 38.04 35.67C37.69 36.23 37.2 36.68 36.61 36.97L33.42 38.57L30.85 38.57L30.85 25.71Z" fill="#E08122" fill-opacity="1.000000" fill-rule="nonzero"/>
	<path id="Vector" d="M12.85 25.71L12.85 22.37C12.85 21.81 12.73 21.25 12.49 20.74C12.25 20.22 11.9 19.77 11.46 19.41L5.93 14.79C5.42 14.37 4.78 14.14 4.11 14.14C3.74 14.14 3.37 14.21 3.03 14.35C2.69 14.5 2.37 14.7 2.11 14.97C1.85 15.23 1.64 15.54 1.5 15.89C1.35 16.23 1.28 16.6 1.28 16.97L1.28 22.03C1.28 22.79 1.43 23.54 1.72 24.24C2.01 24.94 2.44 25.58 2.98 26.12L5.14 28.28L5.14 33.81C5.14 34.47 5.32 35.11 5.67 35.67C6.01 36.23 6.51 36.68 7.09 36.97L10.28 38.57L12.85 38.57L12.85 25.71Z" fill="#E08122" fill-opacity="1.000000" fill-rule="nonzero"/>
	<path id="Vector" d="M32.14 31.28C31.9 31.28 31.66 31.21 31.46 31.09C31.26 30.96 31.09 30.78 30.99 30.57C30.88 30.36 30.84 30.12 30.86 29.88C30.88 29.64 30.97 29.41 31.11 29.22L36 22.71L36 20.57C36 20.23 36.13 19.9 36.37 19.66C36.61 19.42 36.94 19.28 37.28 19.28C37.62 19.28 37.95 19.42 38.19 19.66C38.43 19.9 38.57 20.23 38.57 20.57L38.57 23.14C38.57 23.42 38.48 23.69 38.31 23.91L33.17 30.77C33.05 30.93 32.89 31.06 32.71 31.15C32.53 31.23 32.34 31.28 32.14 31.28Z" fill="#BF6E1D" fill-opacity="1.000000" fill-rule="nonzero"/>
	<path id="Vector" d="M11.57 31.28C11.37 31.28 11.17 31.23 10.99 31.15C10.81 31.06 10.66 30.93 10.54 30.77L5.4 23.91C5.23 23.69 5.14 23.42 5.14 23.14L5.14 20.57C5.14 20.23 5.27 19.9 5.51 19.66C5.76 19.42 6.08 19.28 6.42 19.28C6.76 19.28 7.09 19.42 7.33 19.66C7.57 19.9 7.71 20.23 7.71 20.57L7.71 22.71L12.6 29.22C12.74 29.41 12.83 29.64 12.85 29.88C12.87 30.12 12.82 30.36 12.72 30.57C12.61 30.78 12.45 30.96 12.24 31.09C12.04 31.21 11.81 31.28 11.57 31.28Z" fill="#BF6E1D" fill-opacity="1.000000" fill-rule="nonzero"/>
	<path id="Vector" d="M33.37 69.78L32.14 70.71L32.82 70.94L34.24 71.41C34.75 71.58 35.19 71.91 35.51 72.34C35.82 72.78 35.99 73.31 36 73.85L36 75.85L7.71 75.85L7.71 73.58C7.71 73.11 7.84 72.64 8.09 72.23C8.34 71.83 8.7 71.5 9.13 71.28L10.28 70.71L7.93 68.36C6.97 67.39 6.42 66.09 6.42 64.72L6.42 60.2C6.42 59.87 6.49 59.53 6.62 59.22C6.75 58.91 6.94 58.62 7.18 58.38L10.28 55.28L12.85 48.85L30.85 48.85L33.42 55.28L36.53 58.38C36.77 58.62 36.96 58.91 37.08 59.22C37.21 59.53 37.28 59.87 37.28 60.2L37.28 64.28C37.28 65.08 37.09 65.87 36.74 66.58C36.38 67.29 35.86 67.92 35.22 68.4L33.37 69.78Z" fill="#FD9226" fill-opacity="1.000000" fill-rule="nonzero"/>
	<path id="Vector" d="M30.85 48.85L12.85 48.85L10.28 42.42L10.28 30.28C10.28 29 10.79 27.77 11.69 26.87L11.72 26.85C12.45 26.11 13.41 25.63 14.44 25.48L14.58 25.46C19.4 24.77 24.3 24.77 29.13 25.46L29.26 25.48C30.29 25.63 31.25 26.11 31.99 26.85L32.01 26.87C32.92 27.77 33.42 29 33.42 30.28L33.42 42.42L30.85 48.85Z" fill="#FD9226" fill-opacity="1.000000" fill-rule="nonzero"/>
	<path id="Vector" d="M26.66 52.71C25.98 52.71 25.3 52.54 24.69 52.21C24.08 51.89 23.56 51.42 23.18 50.85L21.85 48.85L20.52 50.85C20.14 51.42 19.62 51.89 19.02 52.21C18.41 52.54 17.73 52.71 17.04 52.71C16.49 52.71 15.95 52.6 15.44 52.39C14.93 52.18 14.47 51.87 14.08 51.48C13.69 51.09 13.38 50.63 13.17 50.12C12.96 49.62 12.85 49.07 12.85 48.52L12.85 46.61C12.85 45.5 13.29 44.44 14.08 43.65C14.86 42.86 15.93 42.42 17.04 42.42L26.66 42.42C27.78 42.42 28.84 42.86 29.63 43.65C30.41 44.44 30.85 45.5 30.85 46.61L30.85 48.52C30.85 49.63 30.41 50.7 29.63 51.48C28.84 52.27 27.78 52.71 26.66 52.71Z" fill="#985713" fill-opacity="1.000000" fill-rule="nonzero"/>
	<path id="Vector" d="M14.14 72L14.14 75.85L11.57 75.85L11.57 72.3L10.42 70C10.33 69.82 10.28 69.62 10.28 69.42L10.28 63C10.28 62.65 10.42 62.33 10.66 62.09C10.9 61.84 11.23 61.71 11.57 61.71C11.91 61.71 12.23 61.84 12.48 62.09C12.72 62.33 12.85 62.65 12.85 63L12.85 69.12L14 71.42C14.09 71.6 14.14 71.8 14.14 72Z" fill="#E08122" fill-opacity="1.000000" fill-rule="nonzero"/>
	<path id="Vector" d="M20.57 63L20.57 69.42C20.57 69.62 20.52 69.82 20.43 70L19.28 72.3L19.28 75.85L16.71 75.85L16.71 72C16.71 71.8 16.76 71.6 16.84 71.42L18 69.12L18 63C18 62.65 18.13 62.33 18.37 62.09C18.61 61.84 18.94 61.71 19.28 61.71C19.62 61.71 19.95 61.84 20.19 62.09C20.43 62.33 20.57 62.65 20.57 63Z" fill="#E08122" fill-opacity="1.000000" fill-rule="nonzero"/>
	<path id="Vector" d="M33.42 63L33.42 69.42C33.42 69.62 33.38 69.82 33.29 70L32.82 70.94L32.14 72.3L32.14 75.85L29.57 75.85L29.57 72C29.57 71.8 29.61 71.6 29.7 71.42L30.85 69.12L30.85 63C30.85 62.65 30.99 62.33 31.23 62.09C31.47 61.84 31.8 61.71 32.14 61.71C32.48 61.71 32.81 61.84 33.05 62.09C33.29 62.33 33.42 62.65 33.42 63Z" fill="#E08122" fill-opacity="1.000000" fill-rule="nonzero"/>
	<path id="Vector" d="M27 72L27 75.85L24.42 75.85L24.42 72.3L23.27 70C23.18 69.82 23.14 69.62 23.14 69.42L23.14 63C23.14 62.65 23.27 62.33 23.51 62.09C23.76 61.84 24.08 61.71 24.42 61.71C24.76 61.71 25.09 61.84 25.33 62.09C25.57 62.33 25.71 62.65 25.71 63L25.71 69.12L26.86 71.42C26.95 71.6 26.99 71.8 27 72Z" fill="#E08122" fill-opacity="1.000000" fill-rule="nonzero"/>
	<path id="Vector" d="M24.42 45C24.42 46.42 23.27 47.57 21.85 47.57C20.43 47.57 19.28 46.42 19.28 45C19.28 43.57 20.43 42.42 21.85 42.42C23.27 42.42 24.42 43.57 24.42 45Z" fill="#70400E" fill-opacity="1.000000" fill-rule="evenodd"/>
	<path id="Vector" d="M18.48 36C18.48 36.97 17.69 37.76 16.71 37.76C15.73 37.76 14.94 36.97 14.94 36C14.94 35.02 15.73 34.23 16.71 34.23C17.69 34.23 18.48 35.02 18.48 36Z" fill="#985713" fill-opacity="1.000000" fill-rule="evenodd"/>
	<path id="Vector" d="M29.25 36C29.25 36.97 28.45 37.76 27.48 37.76C26.5 37.76 25.71 36.97 25.71 36C25.71 35.02 26.5 34.23 27.48 34.23C28.45 34.23 29.25 35.02 29.25 36Z" fill="#985713" fill-opacity="1.000000" fill-rule="evenodd"/>
	<path id="Vector" d="M52.71 47.57L52.71 71.99C52.71 73.36 52.17 74.67 51.2 75.63C50.24 76.6 48.93 77.14 47.57 77.14C46.2 77.14 44.89 76.6 43.93 75.63C42.97 74.67 42.42 73.36 42.42 71.99L42.42 66.53C42.42 66.27 42.32 66.03 42.14 65.85C41.96 65.67 41.72 65.57 41.46 65.57L32.14 65.57C31.8 65.57 31.47 65.43 31.23 65.19C30.99 64.95 30.85 64.62 30.85 64.28C30.85 63.94 30.99 63.61 31.23 63.37C31.47 63.13 31.8 62.99 32.14 62.99L41.46 62.99C42.4 63 43.3 63.37 43.96 64.03C44.62 64.69 44.99 65.59 45 66.53L45 71.99C45 72.68 45.27 73.33 45.75 73.81C46.23 74.3 46.88 74.57 47.57 74.57C48.25 74.57 48.9 74.3 49.38 73.81C49.87 73.33 50.14 72.68 50.14 71.99L50.14 47.57C50.14 47.23 50.27 46.9 50.51 46.66C50.76 46.42 51.08 46.28 51.42 46.28C51.76 46.28 52.09 46.42 52.33 46.66C52.57 46.9 52.71 47.23 52.71 47.57Z" fill="#DBDBDB" fill-opacity="1.000000" fill-rule="nonzero"/>
	<path id="Vector" d="M51.42 25.71C50.7 25.71 49.98 25.56 49.32 25.26C48.66 24.97 48.07 24.53 47.59 24C47.48 23.87 47.39 23.72 47.34 23.56C47.28 23.4 47.26 23.24 47.26 23.07C47.28 22.73 47.44 22.41 47.69 22.18C47.95 21.95 48.28 21.84 48.62 21.85C48.79 21.86 48.95 21.91 49.11 21.98C49.26 22.05 49.39 22.15 49.51 22.28C49.79 22.6 50.15 22.84 50.56 22.99C50.96 23.13 51.4 23.17 51.82 23.11C52.24 23.04 52.64 22.87 52.98 22.61C53.33 22.35 53.6 22.01 53.77 21.62C53.95 21.22 54.02 20.8 53.99 20.37C53.95 19.94 53.81 19.53 53.58 19.17C53.35 18.81 53.03 18.51 52.65 18.31C52.27 18.1 51.85 18 51.42 18C51.08 18 50.76 17.86 50.51 17.62C50.27 17.38 50.14 17.05 50.14 16.71L50.14 5.14C50.14 4.8 50.27 4.47 50.51 4.23C50.76 3.99 51.08 3.85 51.42 3.85C51.76 3.85 52.09 3.99 52.33 4.23C52.57 4.47 52.71 4.8 52.71 5.14L52.71 15.59C53.92 15.9 54.98 16.64 55.68 17.68C56.38 18.72 56.69 19.97 56.53 21.21C56.37 22.46 55.76 23.6 54.82 24.43C53.89 25.25 52.68 25.71 51.42 25.71Z" fill="#878787" fill-opacity="1.000000" fill-rule="nonzero"/>
	<path id="Vector" d="M66.85 6.42L50.14 6.42C49.46 6.42 48.8 6.15 48.32 5.67C47.84 5.19 47.57 4.53 47.57 3.85C47.57 3.17 47.84 2.52 48.32 2.03C48.8 1.55 49.46 1.28 50.14 1.28L66.85 1.28L66.85 6.42Z" fill="#CBCBCB" fill-opacity="1.000000" fill-rule="nonzero"/>
	<path id="Vector" d="M61.71 6.42L66.85 6.42L66.85 70.71L61.71 70.71L61.71 6.42Z" fill="#985713" fill-opacity="1.000000" fill-rule="nonzero"/>
	<path id="Vector" d="M70.71 75.85L57.85 75.85C57.85 74.67 58.15 73.5 58.71 72.45C59.26 71.41 60.07 70.51 61.06 69.86L61.71 69.42L66.85 69.42L67.5 69.86C68.49 70.51 69.3 71.41 69.86 72.45C70.42 73.5 70.71 74.67 70.71 75.85Z" fill="#70400E" fill-opacity="1.000000" fill-rule="nonzero"/>
	<path id="Vector" d="M45 51.42L47.57 51.42L47.57 54L45 54L45 51.42Z" fill="#C0F5F9" fill-opacity="1.000000" fill-rule="nonzero"/>
	<path id="Vector" d="M45 56.57L47.57 56.57L47.57 61.71L45 61.71L45 56.57Z" fill="#C0F5F9" fill-opacity="1.000000" fill-rule="nonzero"/>
	<path id="Vector" d="M23.14 61.71L33.42 61.71L33.42 66.85L23.14 66.85L23.14 61.71Z" fill="#6B9777" fill-opacity="1.000000" fill-rule="nonzero"/>
	<path id="Vector" d="M51.42 30.85C51.08 30.85 50.76 30.72 50.51 30.48C50.27 30.23 50.14 29.91 50.14 29.57L50.14 24.42C50.14 24.08 50.27 23.76 50.51 23.51C50.76 23.27 51.08 23.14 51.42 23.14C51.76 23.14 52.09 23.27 52.33 23.51C52.57 23.76 52.71 24.08 52.71 24.42L52.71 29.57C52.71 29.91 52.57 30.23 52.33 30.48C52.09 30.72 51.76 30.85 51.42 30.85Z" fill="#CBCBCB" fill-opacity="1.000000" fill-rule="nonzero"/>
	<path id="Vector" d="M52.71 47.57L52.71 48.69C51.87 48.91 50.98 48.91 50.14 48.69L50.14 47.57C50.14 47.23 50.27 46.9 50.51 46.66C50.76 46.42 51.08 46.28 51.42 46.28C51.76 46.28 52.09 46.42 52.33 46.66C52.57 46.9 52.71 47.23 52.71 47.57Z" fill="#C3C3C3" fill-opacity="1.000000" fill-rule="nonzero"/>
	<path id="Vector" d="M61.71 6.42L66.85 6.42L66.85 9L61.71 9L61.71 6.42Z" fill="#70400E" fill-opacity="1.000000" fill-rule="nonzero"/>
	<path id="Vector" d="M33.42 63L34.71 63L34.71 65.57L33.42 65.57L33.42 63Z" fill="#C3C3C3" fill-opacity="1.000000" fill-rule="nonzero"/>
	<path id="Vector" d="M46.28 29.57L56.57 29.57L56.57 42.42C56.57 43.79 56.02 45.1 55.06 46.06C54.1 47.02 52.79 47.57 51.42 47.57C50.06 47.57 48.75 47.02 47.79 46.06C46.82 45.1 46.28 43.79 46.28 42.42L46.28 29.57Z" fill="#EBEBEB" fill-opacity="1.000000" fill-rule="nonzero"/>
	<path id="Vector" d="M51.42 47.57C50.06 47.57 48.75 47.02 47.79 46.06C46.82 45.1 46.28 43.79 46.28 42.42L46.28 34.71L56.57 34.71L56.57 42.42C56.57 43.79 56.02 45.1 55.06 46.06C54.1 47.02 52.79 47.57 51.42 47.57Z" fill="#C0F5F9" fill-opacity="1.000000" fill-rule="nonzero"/>
	<path id="Vector" d="M54 39.85L52.71 39.85L52.71 38.57L50.14 38.57L50.14 39.85L48.85 39.85L48.85 42.42L50.14 42.42L50.14 43.71L52.71 43.71L52.71 42.42L54 42.42L54 39.85Z" fill="#85BC94" fill-opacity="1.000000" fill-rule="nonzero"/>
	<path id="Vector" d="M46.28 34.71L56.57 34.71L56.57 36L46.28 36L46.28 34.71Z" fill="#B8EAEE" fill-opacity="1.000000" fill-rule="nonzero"/>
	<path id="Vector" d="M18.48 36C18.48 36.97 17.69 37.76 16.71 37.76C15.73 37.76 14.94 36.97 14.94 36C14.94 35.02 15.73 34.23 16.71 34.23C17.69 34.23 18.48 35.02 18.48 36Z" fill="#000000" fill-opacity="1.000000" fill-rule="evenodd"/>
	<path id="Vector" d="M29.25 36C29.25 36.97 28.45 37.76 27.48 37.76C26.5 37.76 25.71 36.97 25.71 36C25.71 35.02 26.5 34.23 27.48 34.23C28.45 34.23 29.25 35.02 29.25 36Z" fill="#000000" fill-opacity="1.000000" fill-rule="evenodd"/>
	<path id="Vector" d="M3.85 28.81L3.85 33.81C3.85 34.71 4.1 35.58 4.57 36.35C5.04 37.11 5.71 37.72 6.52 38.12L9 39.36L9 42.42C9 42.59 9.03 42.75 9.09 42.9L11.47 48.85L9.19 54.56L6.27 57.48C5.91 57.83 5.62 58.26 5.43 58.73C5.24 59.19 5.14 59.7 5.14 60.2L5.14 64.72C5.14 65.57 5.3 66.4 5.62 67.18C5.95 67.96 6.42 68.67 7.02 69.27L8.13 70.38C7.61 70.73 7.17 71.21 6.87 71.77C6.58 72.33 6.42 72.95 6.42 73.58L6.42 75.85C6.42 76.19 6.56 76.52 6.8 76.76C7.04 77 7.37 77.14 7.71 77.14L36 77.14C36.34 77.14 36.66 77 36.9 76.76C37.15 76.52 37.28 76.19 37.28 75.85L37.28 73.85C37.28 73.08 37.05 72.33 36.62 71.69C36.19 71.05 35.58 70.56 34.87 70.27L36 69.42C37.25 68.48 38.12 67.11 38.43 65.57L41.46 65.57C41.72 65.57 41.96 65.67 42.14 65.85C42.32 66.03 42.42 66.28 42.42 66.53L42.42 72C42.42 73.36 42.97 74.67 43.93 75.63C44.89 76.6 46.2 77.14 47.57 77.14C48.93 77.14 50.24 76.6 51.2 75.63C52.17 74.67 52.71 73.36 52.71 72L52.71 48.72C54.16 48.43 55.46 47.64 56.4 46.49C57.34 45.34 57.85 43.91 57.85 42.42L57.85 29.57C57.85 29.23 57.72 28.9 57.48 28.66C57.23 28.42 56.91 28.28 56.57 28.28L52.71 28.28L52.71 25.55C53.81 25.26 54.79 24.62 55.49 23.72C56.19 22.82 56.57 21.71 56.57 20.57C56.57 19.43 56.19 18.32 55.49 17.42C54.79 16.51 53.81 15.87 52.71 15.59L52.71 7.71L60.42 7.71L60.42 68.74L60.35 68.79C59.18 69.56 58.23 70.61 57.57 71.84C56.91 73.08 56.56 74.45 56.57 75.85C56.57 76.19 56.7 76.52 56.94 76.76C57.18 77 57.51 77.14 57.85 77.14L70.71 77.14C71.05 77.14 71.38 77 71.62 76.76C71.86 76.52 72 76.19 72 75.85C72 74.45 71.65 73.08 70.99 71.84C70.33 70.61 69.38 69.56 68.21 68.79L68.14 68.74L68.14 1.28C68.14 0.94 68 0.61 67.76 0.37C67.52 0.13 67.19 0 66.85 0L50.14 0C49.11 0 48.13 0.4 47.41 1.12C46.69 1.85 46.28 2.83 46.28 3.85C46.28 4.88 46.69 5.86 47.41 6.58C48.13 7.3 49.11 7.71 50.14 7.71L50.14 16.71C50.14 17.05 50.27 17.38 50.51 17.62C50.76 17.86 51.08 18 51.42 18C51.85 18 52.27 18.1 52.65 18.31C53.03 18.51 53.35 18.81 53.58 19.17C53.81 19.53 53.95 19.94 53.99 20.37C54.02 20.8 53.95 21.22 53.77 21.62C53.6 22.01 53.33 22.35 52.98 22.61C52.64 22.87 52.24 23.04 51.82 23.11C51.4 23.17 50.96 23.13 50.56 22.99C50.15 22.84 49.79 22.6 49.51 22.28C49.39 22.15 49.26 22.05 49.11 21.98C48.95 21.91 48.79 21.86 48.62 21.85C48.45 21.84 48.28 21.87 48.12 21.92C47.96 21.98 47.82 22.07 47.69 22.18C47.57 22.29 47.46 22.43 47.39 22.58C47.32 22.73 47.27 22.9 47.26 23.07C47.26 23.24 47.28 23.4 47.34 23.56C47.39 23.72 47.48 23.87 47.59 24C48.27 24.75 49.15 25.29 50.14 25.54L50.14 28.28L46.28 28.28C45.94 28.28 45.61 28.42 45.37 28.66C45.13 28.9 45 29.23 45 29.57L45 42.42C45 43.91 45.51 45.34 46.45 46.49C47.38 47.64 48.69 48.43 50.14 48.72L50.14 72C50.14 72.68 49.87 73.33 49.38 73.81C48.9 74.3 48.25 74.57 47.57 74.57C46.88 74.57 46.23 74.3 45.75 73.81C45.27 73.33 45 72.68 45 72L45 66.53C44.99 65.59 44.62 64.69 43.96 64.03C43.3 63.37 42.4 63 41.46 63L38.57 63L38.57 60.2C38.57 59.7 38.47 59.19 38.27 58.73C38.08 58.26 37.8 57.83 37.44 57.48L34.52 54.56L32.24 48.85L34.62 42.9C34.68 42.75 34.71 42.59 34.71 42.42L34.71 39.36L37.19 38.12C37.99 37.72 38.67 37.11 39.14 36.35C39.61 35.58 39.86 34.71 39.85 33.81L39.85 28.81L41.64 27.03C42.3 26.37 42.82 25.59 43.17 24.73C43.53 23.88 43.71 22.96 43.71 22.03L43.71 16.97C43.71 16.43 43.6 15.89 43.4 15.39C43.19 14.89 42.89 14.44 42.5 14.06C42.12 13.68 41.67 13.37 41.17 13.17C40.67 12.96 40.13 12.85 39.59 12.85C38.63 12.85 37.7 13.19 36.96 13.81L31.42 18.42C30.84 18.9 30.37 19.51 30.05 20.19C29.73 20.87 29.57 21.62 29.57 22.37L29.57 24.23C29.53 24.22 29.49 24.22 29.46 24.21L29.31 24.19C24.36 23.48 19.33 23.48 14.39 24.19L14.26 24.21C14.22 24.22 14.18 24.22 14.14 24.23L14.14 22.37C14.14 21.62 13.97 20.87 13.65 20.19C13.33 19.51 12.87 18.9 12.29 18.42L6.75 13.8C6.01 13.19 5.07 12.85 4.11 12.85C3.57 12.85 3.04 12.96 2.54 13.17C2.04 13.37 1.58 13.68 1.2 14.06C0.82 14.44 0.52 14.89 0.31 15.39C0.1 15.89 -6.11e-5 16.43 0 16.97L0 22.03C-0.01 22.96 0.17 23.88 0.53 24.73C0.88 25.59 1.41 26.37 2.07 27.03L3.85 28.81ZM66.79 70.93C68.06 71.77 68.95 73.08 69.28 74.57L59.28 74.57C59.61 73.08 60.5 71.77 61.77 70.93L62.1 70.71L66.46 70.71L66.79 70.93ZM63 68.14L63 7.71L65.57 7.71L65.57 68.14L63 68.14ZM50.14 5.14C49.8 5.14 49.47 5 49.23 4.76C48.99 4.52 48.85 4.19 48.85 3.85C48.85 3.51 48.99 3.18 49.23 2.94C49.47 2.7 49.8 2.57 50.14 2.57L65.57 2.57L65.57 5.14L50.14 5.14ZM47.57 30.85L55.28 30.85L55.28 33.42L47.57 33.42L47.57 30.85ZM47.57 42.42L47.57 36L55.28 36L55.28 42.42C55.28 43.45 54.87 44.43 54.15 45.15C53.43 45.87 52.45 46.28 51.42 46.28C50.4 46.28 49.42 45.87 48.7 45.15C47.97 44.43 47.57 43.45 47.57 42.42ZM11.57 74.57L9 74.57L9 73.58C8.99 73.35 9.06 73.11 9.19 72.91C9.31 72.7 9.49 72.54 9.7 72.43L10.86 71.86C10.99 71.79 11.11 71.7 11.21 71.59L11.57 72.3L11.57 74.57ZM30.85 69.12L29.7 71.42C29.61 71.6 29.57 71.8 29.57 72L29.57 74.57L27 74.57L27 72C27 71.8 26.95 71.6 26.86 71.42L25.71 69.12L25.71 68.14L30.85 68.14L30.85 69.12ZM30.85 65.57L25.71 65.57L25.71 63L30.85 63L30.85 65.57ZM34.71 74.57L32.14 74.57L32.14 72.3L32.24 72.1L33.83 72.63C34.09 72.71 34.31 72.88 34.47 73.1C34.62 73.31 34.71 73.58 34.71 73.85L34.71 74.57ZM34.45 67.37L33.42 68.14L33.42 65.57L35.77 65.57C35.52 66.28 35.06 66.91 34.45 67.37ZM32.51 56.19L35.62 59.29C35.74 59.41 35.83 59.55 35.9 59.71C35.96 59.87 36 60.03 36 60.2L36 63L33.42 63L33.42 61.71C33.42 61.37 33.29 61.04 33.05 60.8C32.81 60.56 32.48 60.42 32.14 60.42L24.42 60.42C24.08 60.42 23.76 60.56 23.51 60.8C23.27 61.04 23.14 61.37 23.14 61.71L23.14 69.42C23.14 69.62 23.18 69.82 23.27 70L24.42 72.3L24.42 74.57L19.28 74.57L19.28 72.3L20.43 70C20.52 69.82 20.57 69.62 20.57 69.42L20.57 63C20.57 62.65 20.43 62.33 20.19 62.09C19.95 61.84 19.62 61.71 19.28 61.71C18.94 61.71 18.61 61.84 18.37 62.09C18.13 62.33 18 62.65 18 63L18 69.12L16.85 71.42C16.76 71.6 16.71 71.8 16.71 72L16.71 74.57L14.14 74.57L14.14 72C14.14 71.8 14.09 71.6 14 71.42L12.85 69.12L12.85 63C12.85 62.65 12.72 62.33 12.48 62.09C12.23 61.84 11.91 61.71 11.57 61.71C11.23 61.71 10.9 61.84 10.66 62.09C10.42 62.33 10.28 62.65 10.28 63L10.28 68.89L8.84 67.45C8.12 66.72 7.71 65.74 7.71 64.72L7.71 60.2C7.71 60.03 7.74 59.87 7.81 59.71C7.87 59.55 7.97 59.41 8.09 59.29L11.19 56.19C11.31 56.07 11.41 55.92 11.47 55.76L12.93 52.13C13.48 52.76 14.17 53.26 14.95 53.58C15.72 53.9 16.56 54.04 17.4 53.98C18.24 53.93 19.05 53.68 19.78 53.26C20.51 52.84 21.13 52.26 21.59 51.56L21.85 51.17L22.11 51.56C22.58 52.26 23.2 52.84 23.92 53.26C24.65 53.68 25.47 53.93 26.3 53.98C27.14 54.04 27.98 53.9 28.76 53.58C29.53 53.26 30.22 52.76 30.78 52.13L32.23 55.76C32.29 55.92 32.39 56.07 32.51 56.19ZM20.48 48.6L19.45 50.13C19.11 50.65 18.61 51.04 18.02 51.25C17.43 51.46 16.79 51.48 16.2 51.3C15.6 51.12 15.08 50.75 14.71 50.25C14.34 49.75 14.14 49.14 14.14 48.52L14.14 46.61C14.14 45.84 14.44 45.1 14.99 44.56C15.53 44.02 16.27 43.71 17.04 43.71L18.22 43.71C17.88 44.66 17.93 45.7 18.35 46.61C18.77 47.53 19.54 48.24 20.48 48.6L20.48 48.6ZM20.57 45C20.57 44.74 20.64 44.49 20.78 44.28C20.92 44.07 21.13 43.9 21.36 43.81C21.6 43.71 21.85 43.68 22.1 43.73C22.35 43.78 22.58 43.91 22.76 44.09C22.94 44.27 23.06 44.49 23.11 44.74C23.16 44.99 23.14 45.25 23.04 45.49C22.94 45.72 22.78 45.92 22.57 46.06C22.36 46.21 22.11 46.28 21.85 46.28C21.51 46.28 21.18 46.14 20.94 45.9C20.7 45.66 20.57 45.34 20.57 45ZM25.49 43.71L26.66 43.71C27.43 43.71 28.17 44.02 28.72 44.56C29.26 45.1 29.57 45.84 29.57 46.61L29.57 48.52C29.57 49.14 29.37 49.75 28.99 50.25C28.62 50.75 28.1 51.12 27.51 51.3C26.91 51.48 26.27 51.46 25.68 51.25C25.1 51.04 24.6 50.65 24.25 50.13L23.23 48.6C24.17 48.24 24.93 47.53 25.35 46.61C25.78 45.7 25.82 44.66 25.49 43.71ZM32.14 22.37C32.14 22 32.22 21.62 32.38 21.28C32.54 20.94 32.77 20.64 33.06 20.4L38.6 15.78C38.88 15.55 39.23 15.42 39.59 15.42C39.79 15.42 40 15.46 40.18 15.54C40.37 15.62 40.54 15.73 40.69 15.88C40.83 16.02 40.94 16.19 41.02 16.38C41.1 16.57 41.14 16.77 41.14 16.97L41.14 22.03C41.14 22.62 41.02 23.2 40.8 23.75C40.57 24.3 40.24 24.79 39.82 25.21L37.66 27.37C37.42 27.61 37.28 27.94 37.28 28.28L37.28 33.81C37.28 34.23 37.17 34.64 36.95 34.99C36.73 35.35 36.41 35.64 36.04 35.82L34.71 36.49L34.71 30.28C34.71 29.82 34.66 29.36 34.56 28.91L38.31 23.91C38.48 23.69 38.57 23.42 38.57 23.14L38.57 20.57C38.57 20.23 38.43 19.9 38.19 19.66C37.95 19.42 37.62 19.28 37.28 19.28C36.94 19.28 36.61 19.42 36.37 19.66C36.13 19.9 36 20.23 36 20.57L36 22.71L33.27 26.34C33.16 26.21 33.04 26.08 32.92 25.96L32.9 25.94C32.66 25.7 32.41 25.49 32.14 25.29L32.14 22.37ZM12.6 27.78L12.63 27.75C13.17 27.21 13.88 26.86 14.64 26.75L14.76 26.73C19.46 26.06 24.23 26.06 28.93 26.73L29.08 26.76C29.84 26.86 30.54 27.22 31.08 27.75L31.1 27.78C31.43 28.1 31.69 28.49 31.87 28.92C32.05 29.35 32.14 29.81 32.14 30.28L32.14 42.18L31.44 43.93C30.96 43.09 30.27 42.38 29.43 41.89C28.59 41.4 27.64 41.14 26.66 41.14L17.04 41.14C16.07 41.14 15.11 41.4 14.28 41.89C13.44 42.38 12.74 43.09 12.27 43.93L11.57 42.18L11.57 30.28C11.57 29.81 11.66 29.35 11.83 28.92C12.01 28.49 12.27 28.1 12.6 27.78ZM2.57 16.97C2.57 16.77 2.61 16.57 2.68 16.38C2.76 16.19 2.88 16.02 3.02 15.88C3.16 15.73 3.33 15.62 3.52 15.54C3.71 15.46 3.91 15.42 4.11 15.42C4.47 15.42 4.82 15.55 5.1 15.78L10.64 20.4C10.93 20.64 11.16 20.94 11.32 21.28C11.48 21.62 11.57 22 11.57 22.37L11.57 25.3C11.3 25.49 11.04 25.7 10.81 25.94L10.78 25.96C10.66 26.08 10.55 26.21 10.43 26.34L7.71 22.71L7.71 20.57C7.71 20.23 7.57 19.9 7.33 19.66C7.09 19.42 6.76 19.28 6.42 19.28C6.08 19.28 5.76 19.42 5.51 19.66C5.27 19.9 5.14 20.23 5.14 20.57L5.14 23.14C5.14 23.42 5.23 23.69 5.4 23.91L9.15 28.91C9.05 29.36 9 29.82 9 30.28L9 36.49L7.67 35.82C7.29 35.64 6.98 35.35 6.76 34.99C6.54 34.64 6.42 34.23 6.42 33.81L6.42 28.28C6.42 28.11 6.39 27.94 6.33 27.79C6.26 27.63 6.17 27.49 6.05 27.37L3.88 25.21C3.47 24.79 3.13 24.3 2.91 23.75C2.68 23.2 2.56 22.62 2.57 22.03L2.57 16.97Z" fill="#000000" fill-opacity="1.000000" fill-rule="nonzero"/>
	<path id="Vector" d="M52.71 43.71L52.71 42.42L54 42.42L54 39.85L52.71 39.85L52.71 38.57L50.14 38.57L50.14 39.85L48.85 39.85L48.85 42.42L50.14 42.42L50.14 43.71L52.71 43.71Z" fill="#000000" fill-opacity="1.000000" fill-rule="nonzero"/>
	<path id="Vector" d="M45 51.42L47.57 51.42L47.57 54L45 54L45 51.42Z" fill="#000000" fill-opacity="1.000000" fill-rule="nonzero"/>
	<path id="Vector" d="M45 56.57L47.57 56.57L47.57 61.71L45 61.71L45 56.57Z" fill="#000000" fill-opacity="1.000000" fill-rule="nonzero"/>
</svg>
