<svg width="76.000000" height="76.000000" viewBox="0 0 76 76" fill="none" xmlns="http://www.w3.org/2000/svg" xmlns:xlink="http://www.w3.org/1999/xlink">
	<desc>
			Created with Pixso.
	</desc>
	<defs/>
	<path id="Vector" d="M74.67 60.75L74.67 74.67L21.51 74.67L19.68 71.93C19.59 71.79 19.53 71.63 19.49 71.47C19.46 71.31 19.46 71.14 19.49 70.98C19.53 70.81 19.59 70.66 19.68 70.52C19.78 70.38 19.89 70.26 20.03 70.17L22.78 68.34L22.78 63.28L18.76 53.25L17.71 50.62L16.29 47.77L14.09 43.38C12.31 39.82 11.39 35.9 11.39 31.92L11.39 23.49L5.14 21.71C4.36 21.48 3.67 21.04 3.15 20.43C2.62 19.82 2.29 19.06 2.19 18.26L1.87 15.74L1.26 10.83L10.12 10.83L11.76 7.56C12.77 5.53 14.36 3.86 16.33 2.74C18.3 1.63 20.56 1.12 22.82 1.3L27.64 1.67C28.89 1.76 30.09 2.14 31.17 2.77C32.25 3.4 33.16 4.27 33.86 5.31L39.23 13.37L42.66 18.97C46.25 24.83 50.89 29.98 56.36 34.14L64.6 40.42C67.73 42.81 70.27 45.88 72.01 49.41C73.76 52.93 74.67 56.81 74.67 60.75Z" fill="#F3AF3E" fill-opacity="1.000000" fill-rule="nonzero"/>
	<path id="Vector" d="M24.85 9.99L23.75 17.15C23.47 18.99 23.78 20.88 24.63 22.53C25.49 24.19 26.85 25.53 28.51 26.36C29.73 26.97 31.08 27.29 32.45 27.29L34.17 27.29L34.17 10.35C34.17 9.84 34.05 9.33 33.82 8.87C33.54 8.32 33.12 7.86 32.6 7.53C32.07 7.21 31.47 7.04 30.85 7.04L28.29 7.04C27.46 7.04 26.66 7.34 26.03 7.88C25.4 8.42 24.98 9.17 24.85 9.99Z" fill="#C38325" fill-opacity="1.000000" fill-rule="nonzero"/>
	<path id="Vector" d="M60.63 67.61C60.52 67.83 60.36 68.01 60.16 68.14C59.96 68.27 59.72 68.34 59.48 68.34L49.09 68.34C48.15 68.34 47.25 68.71 46.59 69.38C45.93 70.04 45.56 70.93 45.56 71.87L45.56 74.67L43.03 74.67L43.03 71.87C43.03 70.26 43.67 68.72 44.8 67.59C45.94 66.45 47.48 65.81 49.09 65.81L56.78 65.81C53.62 61.86 51.89 56.95 51.89 51.89C51.89 51.55 52.02 51.23 52.26 50.99C52.49 50.76 52.82 50.62 53.15 50.62C53.49 50.62 53.81 50.76 54.05 50.99C54.28 51.23 54.42 51.55 54.42 51.89C54.42 56.5 56.04 60.96 58.98 64.5L60.45 66.27C60.61 66.45 60.7 66.68 60.73 66.91C60.77 67.15 60.73 67.39 60.63 67.61Z" fill="#C38325" fill-opacity="1.000000" fill-rule="nonzero"/>
	<path id="Vector" d="M68.34 32.9C68.34 33.33 68.33 33.75 68.3 34.17C68.27 34.59 68.23 35.02 68.18 35.43C67.91 37.65 67.26 39.81 66.27 41.82C64.99 44.44 63.15 46.75 60.89 48.6C58.62 50.44 55.99 51.78 53.16 52.51C53.16 52.51 53.16 52.51 53.15 52.51C50.37 53.23 47.46 53.35 44.63 52.86C41.79 52.37 39.09 51.28 36.71 49.66C34.33 48.04 32.33 45.94 30.82 43.49C29.32 41.03 28.36 38.29 28 35.43C27.94 35.02 27.9 34.6 27.88 34.17C27.85 33.75 27.84 33.33 27.84 32.9C27.84 28.54 29.25 24.28 31.87 20.79C34.48 17.29 38.16 14.73 42.34 13.49C46.53 12.25 51.01 12.39 55.11 13.91C59.2 15.42 62.7 18.22 65.08 21.88C65.37 22.33 65.64 22.79 65.9 23.26C67.51 26.22 68.34 29.54 68.34 32.9Z" fill="#C0F5F9" fill-opacity="1.000000" fill-rule="nonzero"/>
	<path id="Vector" d="M6.32 10.83L6.32 11.91C6.32 12.69 6.06 13.44 5.59 14.06C5.11 14.67 4.44 15.1 3.69 15.29L1.87 15.74L1.26 10.83L6.32 10.83Z" fill="#C38325" fill-opacity="1.000000" fill-rule="nonzero"/>
	<path id="Vector" d="M20.25 9.57C20.25 10.97 19.11 12.1 17.71 12.1C16.32 12.1 15.18 10.97 15.18 9.57C15.18 8.17 16.32 7.04 17.71 7.04C19.11 7.04 20.25 8.17 20.25 9.57Z" fill="#C38325" fill-opacity="1.000000" fill-rule="evenodd"/>
	<path id="Vector" d="M44.29 59.48L51.89 59.48L51.89 74.67L44.29 74.67L44.29 59.48Z" fill="#428DC5" fill-opacity="1.000000" fill-rule="nonzero"/>
	<path id="Vector" d="M68.3 34.17C68.27 34.59 68.23 35.02 68.18 35.43C67.91 37.65 67.26 39.81 66.27 41.82C64.99 44.44 63.15 46.75 60.89 48.6C58.62 50.44 55.99 51.78 53.16 52.51C53.16 52.51 53.16 52.51 53.15 52.51C50.37 53.23 47.46 53.35 44.63 52.86C41.79 52.37 39.09 51.28 36.71 49.66C34.33 48.04 32.33 45.94 30.82 43.49C29.32 41.03 28.36 38.29 28 35.43C27.94 35.02 27.9 34.6 27.88 34.17L68.3 34.17Z" fill="#EEB58E" fill-opacity="1.000000" fill-rule="nonzero"/>
	<path id="Vector" d="M40.5 37.97L43.03 37.97L43.03 40.5L40.5 40.5L40.5 37.97Z" fill="#F55648" fill-opacity="1.000000" fill-rule="nonzero"/>
	<path id="Vector" d="M40.5 44.29L43.03 44.29L43.03 46.83L40.5 46.83L40.5 44.29Z" fill="#B94137" fill-opacity="1.000000" fill-rule="nonzero"/>
	<path id="Vector" d="M51.89 44.29L54.42 44.29L54.42 46.83L51.89 46.83L51.89 44.29Z" fill="#F55648" fill-opacity="1.000000" fill-rule="nonzero"/>
	<path id="Vector" d="M56.95 44.29L59.48 44.29L59.48 46.83L56.95 46.83L56.95 44.29Z" fill="#F55648" fill-opacity="1.000000" fill-rule="nonzero"/>
	<path id="Vector" d="M54.42 40.5L56.95 40.5L56.95 43.03L54.42 43.03L54.42 40.5Z" fill="#B94137" fill-opacity="1.000000" fill-rule="nonzero"/>
	<path id="Vector" d="M30 69.24L28.2 71.03L30.16 73.97C30.3 74.17 30.37 74.42 30.37 74.67L27.58 74.67L26.1 72.44C25.77 71.95 25.63 71.37 25.69 70.78C25.74 70.2 26 69.66 26.41 69.24L27.84 67.82L27.84 61.32L18.76 53.25L17.71 50.62L16.29 47.77C16.43 47.83 16.57 47.91 16.68 48.01L29.94 59.8C30.08 59.92 30.19 60.07 30.26 60.23C30.33 60.39 30.37 60.57 30.37 60.75L30.37 68.34C30.37 68.68 30.24 69 30 69.24Z" fill="#C38325" fill-opacity="1.000000" fill-rule="nonzero"/>
	<path id="Vector" d="M37.96 58.22L37.96 74.67L35.43 74.67L35.43 58.6L33.11 55.12C32.93 54.84 32.86 54.5 32.93 54.17C32.99 53.84 33.19 53.55 33.46 53.37C33.74 53.18 34.09 53.11 34.42 53.18C34.74 53.24 35.03 53.44 35.22 53.72L37.75 57.51C37.89 57.72 37.96 57.97 37.96 58.22Z" fill="#C38325" fill-opacity="1.000000" fill-rule="nonzero"/>
	<path id="Vector" d="M68.3 34.17C68.27 34.59 68.23 35.02 68.18 35.43L28 35.43L27.88 34.17L68.3 34.17Z" fill="#BD9070" fill-opacity="1.000000" fill-rule="nonzero"/>
	<path id="Vector" d="M54.31 18.98C50.17 24.79 47.61 31.58 46.9 38.67L46.84 39.35C46.8 39.71 46.84 40.07 46.96 40.41C47.09 40.75 47.28 41.06 47.53 41.31C47.76 41.54 48.03 41.72 48.32 41.84C48.62 41.96 48.93 42.02 49.25 42.02C49.57 42.02 49.89 41.96 50.18 41.84C50.48 41.72 50.74 41.54 50.97 41.31L51.07 41.21C51.3 40.98 51.48 40.72 51.6 40.42C51.72 40.13 51.78 39.81 51.78 39.49L51.78 34.14C51.78 30.8 52.19 27.47 53 24.22L54.31 18.98Z" fill="#744630" fill-opacity="1.000000" fill-rule="nonzero"/>
	<path id="Vector" d="M65.9 23.26L65.66 24.22C64.85 27.47 64.44 30.8 64.44 34.14L64.44 39.49C64.44 40.14 64.18 40.75 63.73 41.21L63.63 41.31C63.27 41.66 62.82 41.9 62.32 41.99C61.83 42.07 61.32 42 60.87 41.79C60.42 41.57 60.04 41.22 59.79 40.79C59.55 40.35 59.44 39.85 59.49 39.35L59.56 38.67C60.15 32.74 62.04 27.01 65.08 21.88C65.37 22.33 65.64 22.79 65.9 23.26Z" fill="#744630" fill-opacity="1.000000" fill-rule="nonzero"/>
	<path id="Vector" d="M39.13 18.98C34.98 24.79 32.43 31.58 31.72 38.67L31.65 39.35C31.61 39.71 31.66 40.07 31.78 40.41C31.9 40.75 32.09 41.06 32.35 41.31C32.57 41.54 32.84 41.72 33.14 41.84C33.43 41.96 33.75 42.02 34.06 42.02C34.38 42.02 34.7 41.96 34.99 41.84C35.29 41.72 35.56 41.54 35.78 41.31L35.88 41.21C36.11 40.98 36.29 40.72 36.41 40.42C36.53 40.13 36.6 39.81 36.6 39.49L36.6 34.14C36.6 30.8 37.01 27.47 37.82 24.22L39.13 18.98Z" fill="#744630" fill-opacity="1.000000" fill-rule="nonzero"/>
	<path id="Vector" d="M69.6 32.9C69.6 21.04 59.95 11.39 48.09 11.39C36.23 11.39 26.57 21.04 26.57 32.9C26.57 43.02 33.6 51.53 43.03 53.82L43.03 59.48L53.15 59.48L53.15 53.82C62.58 51.53 69.6 43.02 69.6 32.9ZM48.09 51.89C44.33 51.89 40.66 50.77 37.54 48.69C34.42 46.6 31.99 43.64 30.55 40.17C29.11 36.7 28.74 32.88 29.47 29.2C30.2 25.52 32.01 22.13 34.66 19.48C37.32 16.82 40.7 15.02 44.39 14.28C48.07 13.55 51.89 13.93 55.35 15.36C58.82 16.8 61.79 19.23 63.87 22.36C65.96 25.48 67.07 29.15 67.07 32.9C67.07 37.94 65.07 42.76 61.51 46.32C57.95 49.88 53.12 51.88 48.09 51.89Z" fill="#428DC5" fill-opacity="1.000000" fill-rule="nonzero"/>
	<path id="Vector" d="M44.29 59.48L51.89 59.48L51.89 62.01L44.29 62.01L44.29 59.48Z" fill="#3775A4" fill-opacity="1.000000" fill-rule="nonzero"/>
	<path id="Vector" d="M20.25 9.57C20.25 10.97 19.11 12.1 17.71 12.1C16.32 12.1 15.18 10.97 15.18 9.57C15.18 8.17 16.32 7.04 17.71 7.04C19.11 7.04 20.25 8.17 20.25 9.57Z" fill="#000000" fill-opacity="1.000000" fill-rule="evenodd"/>
	<path id="Vector" d="M40.5 37.97L43.03 37.97L43.03 40.5L40.5 40.5L40.5 37.97Z" fill="#000000" fill-opacity="1.000000" fill-rule="nonzero"/>
	<path id="Vector" d="M40.5 44.29L43.03 44.29L43.03 46.83L40.5 46.83L40.5 44.29Z" fill="#000000" fill-opacity="1.000000" fill-rule="nonzero"/>
	<path id="Vector" d="M51.89 44.29L54.42 44.29L54.42 46.83L51.89 46.83L51.89 44.29Z" fill="#000000" fill-opacity="1.000000" fill-rule="nonzero"/>
	<path id="Vector" d="M56.95 44.29L59.48 44.29L59.48 46.83L56.95 46.83L56.95 44.29Z" fill="#000000" fill-opacity="1.000000" fill-rule="nonzero"/>
	<path id="Vector" d="M54.42 40.5L56.95 40.5L56.95 43.03L54.42 43.03L54.42 40.5Z" fill="#000000" fill-opacity="1.000000" fill-rule="nonzero"/>
	<path id="Vector" d="M0.93 18.42C1.06 19.47 1.5 20.45 2.18 21.25C2.87 22.05 3.78 22.63 4.79 22.92L10.12 24.45L10.12 31.92C10.13 36.09 11.1 40.21 12.96 43.94L16.56 51.14L21.51 63.52L21.51 67.66L19.33 69.12C19.05 69.3 18.82 69.54 18.63 69.81C18.45 70.09 18.32 70.4 18.25 70.73C18.19 71.05 18.19 71.39 18.25 71.71C18.32 72.04 18.44 72.35 18.63 72.63L20.46 75.37C20.57 75.54 20.73 75.69 20.91 75.79C21.1 75.88 21.3 75.93 21.51 75.93L74.67 75.93C75 75.93 75.32 75.8 75.56 75.56C75.8 75.33 75.93 75 75.93 74.67L75.93 60.75C75.93 57.16 75.21 53.61 73.81 50.31C72.42 47.01 70.37 44.02 67.8 41.52C68.77 39.31 69.36 36.96 69.54 34.56C69.61 34.36 69.62 34.13 69.58 33.92C69.6 33.58 69.6 33.24 69.6 32.9C69.61 29.5 68.8 26.14 67.24 23.11L68.2 19.29C68.27 19 68.24 18.7 68.11 18.44C67.98 18.17 67.77 17.96 67.5 17.83C67.23 17.71 66.93 17.68 66.65 17.76C66.36 17.83 66.11 18.01 65.94 18.25C65.62 18.7 65.31 19.16 65 19.62C62.17 16 58.24 13.39 53.81 12.16C49.38 10.94 44.67 11.17 40.38 12.82L40.31 12.71C40.3 12.69 40.29 12.68 40.28 12.66L34.91 4.6C34.12 3.4 33.06 2.4 31.81 1.67C30.57 0.95 29.18 0.51 27.74 0.41L22.92 0.03C20.41 -0.16 17.9 0.39 15.71 1.63C13.51 2.87 11.75 4.74 10.63 6.99L9.34 9.57L1.26 9.57C1.08 9.57 0.9 9.61 0.74 9.68C0.58 9.75 0.43 9.86 0.31 10C0.19 10.13 0.1 10.29 0.05 10.46C0 10.63 -0.02 10.81 0 10.99L0.93 18.42ZM27.84 67.82L26.41 69.24C26 69.66 25.74 70.2 25.68 70.78C25.63 71.37 25.77 71.95 26.1 72.44L26.74 73.4L22.19 73.4L20.73 71.22L23.48 69.39C23.65 69.28 23.79 69.12 23.89 68.94C23.99 68.75 24.04 68.55 24.04 68.34L24.04 63.28C24.04 63.12 24.01 62.96 23.95 62.81L20.88 55.13L27.84 61.32L27.84 67.82ZM50.62 73.4L45.56 73.4L45.56 60.75L50.62 60.75L50.62 73.4ZM51.89 58.22L44.29 58.22L44.29 54.08C46.8 54.53 49.37 54.53 51.89 54.08L51.89 58.22ZM66.27 27.45C66.81 29.22 67.07 31.06 67.07 32.9L65.72 32.9C65.78 31.08 65.97 29.25 66.27 27.45ZM65.7 39.49L65.7 35.43L66.9 35.43C66.69 37.04 66.27 38.61 65.65 40.1C65.69 39.9 65.7 39.7 65.71 39.49L65.7 39.49ZM66.59 43.88C70.95 48.41 73.4 54.46 73.4 60.75L73.4 73.4L53.15 73.4L53.15 68.34L59.48 68.34C59.72 68.34 59.96 68.27 60.16 68.14C60.36 68.01 60.52 67.83 60.63 67.61C60.73 67.39 60.77 67.15 60.73 66.91C60.7 66.67 60.61 66.45 60.45 66.27L58.99 64.51C56.37 61.38 54.8 57.51 54.48 53.45C59.56 51.86 63.87 48.45 66.59 43.88L66.59 43.88ZM53.15 65.81L53.15 60.75C53.33 60.75 53.51 60.71 53.67 60.64C54.47 62.49 55.51 64.23 56.78 65.81L53.15 65.81ZM64.62 42.1C64.68 42.05 64.74 41.99 64.79 41.92C63.18 44.9 60.82 47.39 57.93 49.14C55.04 50.89 51.73 51.84 48.35 51.89C44.98 51.93 41.65 51.08 38.71 49.41C35.77 47.74 33.33 45.31 31.65 42.39C32.35 43 33.26 43.32 34.2 43.29C35.13 43.25 36.02 42.87 36.68 42.21L36.78 42.1C37.12 41.76 37.4 41.35 37.58 40.91C37.77 40.46 37.86 39.98 37.86 39.49L37.86 35.43L46.07 35.43C45.89 36.47 45.75 37.5 45.64 38.55L45.58 39.23C45.5 39.98 45.66 40.75 46.04 41.41C46.41 42.08 46.98 42.61 47.67 42.93C48.36 43.26 49.13 43.36 49.88 43.23C50.63 43.1 51.33 42.75 51.86 42.21L51.97 42.1C52.31 41.76 52.58 41.35 52.77 40.91C52.96 40.46 53.05 39.98 53.05 39.49L53.05 35.43L58.73 35.43C58.55 36.47 58.41 37.5 58.3 38.55L58.23 39.23C58.16 39.98 58.32 40.75 58.69 41.41C59.07 42.08 59.64 42.61 60.33 42.93C61.02 43.26 61.79 43.36 62.54 43.23C63.29 43.1 63.98 42.75 64.52 42.21L64.62 42.1ZM32.91 39.48L32.97 38.8C33.37 34.88 34.35 31.03 35.87 27.4C35.51 29.63 35.33 31.88 35.33 34.14L35.33 39.49C35.33 39.64 35.3 39.8 35.24 39.94C35.18 40.08 35.1 40.21 34.99 40.31L34.89 40.42C34.72 40.59 34.5 40.7 34.26 40.74C34.03 40.78 33.78 40.75 33.57 40.65C33.35 40.54 33.17 40.38 33.05 40.17C32.93 39.96 32.88 39.72 32.91 39.48L32.91 39.48ZM48.09 39.48L48.16 38.8C48.56 34.88 49.53 31.03 51.06 27.4C50.7 29.63 50.52 31.88 50.52 34.14L50.52 39.49C50.52 39.64 50.49 39.8 50.43 39.94C50.37 40.08 50.29 40.21 50.18 40.31L50.07 40.42C49.9 40.59 49.69 40.7 49.45 40.74C49.21 40.78 48.97 40.75 48.75 40.65C48.54 40.54 48.36 40.38 48.24 40.17C48.12 39.96 48.07 39.72 48.09 39.48L48.09 39.48ZM63.17 34.14L63.17 39.49C63.17 39.64 63.14 39.8 63.09 39.94C63.03 40.08 62.94 40.21 62.83 40.31L62.73 40.42C62.56 40.59 62.34 40.7 62.11 40.74C61.87 40.78 61.63 40.75 61.41 40.64C61.19 40.54 61.01 40.37 60.9 40.17C60.78 39.96 60.73 39.72 60.75 39.48L60.82 38.8C61.21 34.88 62.19 31.03 63.72 27.4C63.36 29.63 63.17 31.88 63.17 34.14L63.17 34.14ZM38.05 13.88C37.14 14.36 36.27 14.91 35.43 15.52L35.43 10.35C35.43 10.21 35.42 10.06 35.41 9.92L38.05 13.88ZM48.09 13.92C51.13 13.92 54.12 14.65 56.81 16.05C59.51 17.44 61.83 19.46 63.58 21.94C61.64 25.38 60.18 29.07 59.26 32.9L53.07 32.9C53.16 30.08 53.55 27.27 54.23 24.53L55.54 19.29C55.61 19 55.58 18.7 55.46 18.44C55.33 18.17 55.11 17.96 54.85 17.83C54.58 17.71 54.28 17.68 53.99 17.76C53.71 17.83 53.46 18.01 53.28 18.25C50.14 22.66 47.87 27.63 46.6 32.9L37.88 32.9C37.97 30.08 38.36 27.27 39.04 24.53L40.35 19.29C40.43 19 40.4 18.7 40.27 18.44C40.14 18.17 39.93 17.96 39.66 17.83C39.39 17.71 39.09 17.68 38.8 17.76C38.52 17.83 38.27 18.01 38.1 18.25C34.95 22.66 32.68 27.63 31.41 32.9L29.1 32.9C29.11 27.87 31.11 23.04 34.67 19.49C38.23 15.93 43.06 13.92 48.09 13.92ZM30.37 39.73C29.84 38.34 29.47 36.9 29.27 35.43L30.89 35.43C30.71 36.47 30.56 37.5 30.46 38.55L30.39 39.23C30.37 39.39 30.37 39.56 30.37 39.73ZM28.2 24.71C27.02 23.91 26.1 22.79 25.53 21.49C24.97 20.19 24.78 18.75 25 17.35L26.1 10.18C26.18 9.66 26.45 9.18 26.85 8.83C27.25 8.49 27.76 8.3 28.29 8.3L30.85 8.3C31.23 8.3 31.61 8.41 31.93 8.61C32.25 8.81 32.52 9.09 32.69 9.44C32.83 9.72 32.9 10.03 32.9 10.35L32.9 17.68C30.88 19.69 29.29 22.08 28.2 24.71ZM7.58 12.1L10.12 12.1C10.36 12.1 10.59 12.03 10.79 11.91C10.99 11.79 11.15 11.61 11.25 11.4L12.89 8.13C13.79 6.32 15.2 4.83 16.95 3.84C18.71 2.84 20.71 2.4 22.72 2.56L27.55 2.93C28.6 3.01 29.62 3.33 30.53 3.86C31.44 4.39 32.22 5.13 32.8 6.01L33 6.3C32.34 5.95 31.6 5.77 30.85 5.77L28.29 5.77C27.16 5.77 26.06 6.17 25.2 6.91C24.34 7.65 23.77 8.67 23.6 9.8L22.5 16.96C22.19 18.95 22.49 20.99 23.35 22.81C24.22 24.63 25.61 26.15 27.35 27.17C26.83 29.03 26.57 30.96 26.57 32.9C26.57 33.24 26.58 33.58 26.6 33.92C26.55 34.13 26.57 34.36 26.64 34.56C26.98 38.87 28.6 42.97 31.3 46.34C33.99 49.71 37.64 52.19 41.76 53.47L41.76 59.48C41.76 59.82 41.89 60.14 42.13 60.38C42.37 60.61 42.69 60.75 43.03 60.75L43.03 73.4L37.96 73.4L37.96 58.22C37.96 57.97 37.89 57.72 37.75 57.51L35.22 53.72C35.13 53.58 35.01 53.46 34.87 53.36C34.73 53.27 34.58 53.21 34.41 53.17C34.25 53.14 34.08 53.14 33.92 53.17C33.76 53.2 33.6 53.27 33.46 53.36C33.32 53.45 33.2 53.57 33.11 53.71C33.02 53.85 32.95 54.01 32.92 54.17C32.89 54.33 32.89 54.5 32.92 54.66C32.96 54.83 33.02 54.98 33.11 55.12L35.43 58.6L35.43 73.4L29.78 73.4L28.2 71.03L30 69.24C30.24 69 30.37 68.68 30.37 68.34L30.37 60.75C30.37 60.57 30.33 60.39 30.26 60.23C30.19 60.07 30.08 59.92 29.95 59.8L18.74 49.84L15.22 42.81C13.54 39.43 12.66 35.7 12.65 31.92L12.65 23.49C12.65 23.22 12.56 22.95 12.4 22.73C12.23 22.51 12 22.35 11.73 22.27L5.49 20.49C4.95 20.34 4.47 20.03 4.11 19.6C3.74 19.18 3.51 18.66 3.45 18.11L3.27 16.7L4 16.52C4.99 16.27 5.88 15.7 6.53 14.91C7.17 14.11 7.54 13.13 7.58 12.1ZM5.05 12.1C5.01 12.56 4.83 13 4.53 13.35C4.23 13.7 3.83 13.95 3.38 14.06L2.95 14.17L2.69 12.1L5.05 12.1Z" fill="#000000" fill-opacity="1.000000" fill-rule="nonzero"/>
</svg>
