<svg width="866.000000" height="835.000000" viewBox="0 0 866 835" fill="none" xmlns="http://www.w3.org/2000/svg" xmlns:xlink="http://www.w3.org/1999/xlink">
	<desc>
			Created with Pixso.
	</desc>
	<defs/>
	<path id="Vector" d="M539.91 378.93C490.72 353.49 432.71 354.83 384.75 382.52C336.79 410.21 306.63 459.77 304.06 515.09L297.87 648.4C296.84 670.52 302.83 691.93 315.19 710.3C327.55 728.68 345.12 742.29 366 749.69C386.88 757.06 409.11 757.51 430.28 750.99C451.45 744.47 469.56 731.58 482.67 713.72L483.54 712.52C516.74 667.96 567.34 638.98 622.62 632.92C636.87 631.35 650.38 626.92 662.54 619.9C669.15 616.09 675.36 611.5 681.08 606.2C697.32 591.13 708.04 571.65 712.09 549.88C716.14 528.1 713.14 506.08 703.41 486.18C693.67 466.28 678.13 450.39 658.46 440.21L539.91 378.93Z" fill="#FFBD54" fill-opacity="1.000000" fill-rule="nonzero"/>
	<path id="Vector" d="M258.42 541.28C272.86 523.44 278.32 500.35 273.8 476.26C269.5 453.33 256.53 432.14 237.28 416.57C218.02 401.02 194.58 392.79 171.26 393.39C146.77 394.02 125.33 404.19 110.93 422.03C81.94 457.87 91.42 513.8 132.1 546.72C164.52 572.89 207.07 576.67 237.68 558.99C245.49 554.48 252.53 548.57 258.42 541.28Z" fill="#FFBD54" fill-opacity="1.000000" fill-rule="nonzero"/>
	<path id="Vector" d="M335.43 395.18C382.02 368.28 394.99 303.21 364.34 250.13C333.69 197.03 270.85 175.73 224.26 202.62C177.67 229.52 164.71 294.6 195.36 347.69C226.01 400.77 288.84 422.07 335.43 395.18Z" fill="#FFBD54" fill-opacity="1.000000" fill-rule="nonzero"/>
	<path id="Vector" d="M495.01 334.58L495.01 334.58C503.55 332.82 511.52 329.73 518.8 325.53C552.77 305.91 571.61 262.06 562.3 216.76C556.95 190.69 543.11 167.83 523.35 152.41C502.67 136.27 478.04 130.09 454.01 135.03C429.98 139.97 409.78 155.36 397.14 178.35C385.07 200.32 381.37 226.78 386.73 252.85C398.04 307.85 446.61 344.52 495.01 334.58Z" fill="#FFBD54" fill-opacity="1.000000" fill-rule="nonzero"/>
	<path id="Vector" d="M666.46 220.61L666.44 220.61C620.6 215.42 578.49 253.45 572.56 305.4C566.66 357.34 599.13 403.86 644.93 409.09C661.63 411 677.85 407.16 692 399C716.65 384.76 735.04 357.36 738.83 324.31C744.72 272.37 712.26 225.85 666.46 220.61Z" fill="#FFBD54" fill-opacity="1.000000" fill-rule="nonzero"/>
</svg>
