<svg width="319.000000" height="302.000000" viewBox="0 0 319 302" fill="none" xmlns="http://www.w3.org/2000/svg" xmlns:xlink="http://www.w3.org/1999/xlink">
	<desc>
			Created with Pixso.
	</desc>
	<defs/>
	<path id="Vector" d="M126.28 123.68C127.8 143.52 139.47 161.57 157.49 171.98C175.52 182.38 196.98 183.46 214.92 174.86L258.14 154.13C265.31 150.69 270.9 145.16 274.29 138.14C277.69 131.11 278.58 123.26 276.86 115.42C275.14 107.58 270.97 100.5 264.81 94.94C258.65 89.37 251.08 85.86 242.91 84.77L242.36 84.69C221.88 81.81 202.94 70.79 190.31 54.4C187.06 50.17 183.04 46.67 178.47 44.03C175.99 42.6 173.34 41.42 170.56 40.52C162.66 37.96 154.44 37.9 146.79 40.32C139.14 42.75 132.78 47.45 128.4 53.9C124.01 60.35 122.02 67.96 122.62 75.89L126.28 123.68Z" fill="#FFBD54" fill-opacity="1.000000" fill-rule="nonzero"/>
	<path id="Vector" d="M232.02 184.79C223.6 183.27 215.26 185.48 208.54 191C202.15 196.26 197.98 203.95 196.81 212.67C195.64 221.39 197.59 230.18 202.3 237.42C207.24 245.04 214.61 250.06 223.02 251.57C239.94 254.61 255.73 242.1 258.22 223.68C260.19 209.01 253.13 194.96 241.63 188.31C238.69 186.62 235.46 185.41 232.02 184.79Z" fill="#FFBD54" fill-opacity="1.000000" fill-rule="nonzero"/>
	<path id="Vector" d="M171.04 185.37C153.53 175.26 130.51 182.25 119.72 200.94C108.92 219.63 114.39 243.07 131.89 253.17C149.4 263.28 172.43 256.3 183.22 237.6C194.01 218.91 188.55 195.48 171.04 185.37Z" fill="#FFBD54" fill-opacity="1.000000" fill-rule="nonzero"/>
	<path id="Vector" d="M121.01 145.38L121.01 145.38C118.8 142.99 116.28 141 113.54 139.42C100.77 132.05 83.3 133.57 70.83 144.21C63.65 150.34 59.12 158.59 58.09 167.44C57.01 176.71 59.84 185.52 66.06 192.25C72.27 198.99 81.04 202.74 90.73 202.81C100 202.88 109.05 199.54 116.23 193.42C131.38 180.49 133.52 158.95 121.01 145.38Z" fill="#FFBD54" fill-opacity="1.000000" fill-rule="nonzero"/>
	<path id="Vector" d="M51.85 110.73L51.85 110.74C59.1 126.07 79.25 132.87 96.78 125.9C114.29 118.92 122.66 100.77 115.44 85.45C112.8 79.86 108.45 75.4 103.13 72.33C93.86 66.98 81.66 65.84 70.51 70.27C52.99 77.25 44.62 95.4 51.85 110.73Z" fill="#FFBD54" fill-opacity="1.000000" fill-rule="nonzero"/>
</svg>
