<svg width="178.000000" height="87.000000" viewBox="0 0 178 87" fill="none" xmlns="http://www.w3.org/2000/svg" xmlns:xlink="http://www.w3.org/1999/xlink">
	<desc>
			Created with Pixso.
	</desc>
	<defs/>
	<path id="Vector" d="M10.95 37.88L0 32.83L11.85 27.36C12.19 10.98 28.01 7.43 34.57 8.06C41.13 8.7 60.22 20.41 52.53 44.33C49.91 52.48 50.53 73.57 81.12 71.62C78.82 75.95 68.04 93.91 32.94 82.48C23.2 79.31 9.34 63.63 10.95 37.88Z" fill="#FFBD54" fill-opacity="1.000000" fill-rule="nonzero"/>
	<path id="Vector" d="M110.81 32.7C111.77 21.1 105.76 10.58 102.24 8.16C98.95 5.9 98.94 15.66 96.01 21.01C91.66 19.19 86.85 18.18 81.78 18.18C76.71 18.18 71.9 19.19 67.56 21C64.64 15.64 64.63 5.9 61.34 8.16C57.82 10.57 51.82 21.08 52.77 32.66C49.14 37.74 47.03 43.82 47.03 50.37C47.03 68.15 62.59 81.34 81.77 81.34C100.96 81.34 116.52 68.15 116.52 50.37C116.52 43.84 114.42 37.77 110.81 32.7Z" fill="#78C0DE" fill-opacity="1.000000" fill-rule="nonzero"/>
	<path id="Vector" d="M109.11 52.41C110.01 36.49 116.09 34.29 116.89 24.56C118 11.08 127.28 1.28 131.87 0.07C136.45 -1.13 130.6 12.54 134.71 17.19C143.31 14.21 148.78 16.74 153.09 21.41C157.4 26.08 151.77 30.53 160.22 29.34C163.69 28.85 167.31 28.96 170.33 29.73C170.61 29.54 170.92 29.38 171.26 29.27C173.64 28.44 176.31 29.93 177.23 32.59C177.58 33.59 177.63 34.63 177.42 35.56C177.53 36.08 177.57 36.62 177.54 37.2C177.07 45.38 166.99 56.65 160.73 57.47C154.46 58.3 147.81 57.21 147.64 69.75C147.42 86.44 110.46 93.05 101.41 76.1C108.04 71.31 108.43 64.56 109.11 52.41Z" fill="#000000" fill-opacity="1.000000" fill-rule="nonzero"/>
	<path id="Vector" d="M136.87 22.13C141.19 22.52 144.63 20.22 147.97 17.64C146.63 17.48 145.14 17.47 143.48 17.66C140.97 13.13 148.23 3.04 144.27 3.19C140.7 3.31 131.57 8.2 127.36 17.07C130.41 19.12 132.84 22.35 136.87 22.13Z" fill="#000000" fill-opacity="1.000000" fill-rule="nonzero"/>
	<path id="Vector" d="M38.14 34.43C37.62 34.28 37.09 34.23 36.56 34.31C35.01 34.53 33.7 35.74 33.31 37.31L29.84 50.27L22.93 38.77C22.06 37.39 20.45 36.61 18.93 36.82C18.41 36.9 17.93 37.08 17.5 37.37C16.53 37.97 15.86 38.87 15.61 39.92C15.37 40.91 15.55 41.94 16.09 42.81L27.8 62.46C27.88 62.63 28.01 62.87 28.24 63.07C28.32 63.16 28.41 63.23 28.52 63.29C28.52 63.29 28.52 63.29 28.52 63.29L28.62 63.44L28.76 63.55C28.82 63.59 28.87 63.63 28.94 63.67L28.97 63.87L29.46 64.03L29.62 64.14L30.73 64.38L31.07 64.45L31.23 64.42C31.52 64.44 31.73 64.41 31.85 64.39C32.02 64.37 32.24 64.34 32.51 64.24L32.76 64.21L32.96 64.06L33.97 63.42L34.18 63.14C34.24 63.08 34.32 62.98 34.41 62.84C34.48 62.76 34.54 62.67 34.59 62.57C34.62 62.53 34.65 62.48 34.68 62.43C34.68 62.42 34.69 62.41 34.69 62.4C34.79 62.29 34.87 62.17 34.92 62.04C35.02 61.85 35.1 61.63 35.15 61.42L41 39.28C41.28 38.28 41.16 37.23 40.66 36.35C40.13 35.41 39.22 34.72 38.14 34.43Z" fill="#FFFFFF" fill-opacity="1.000000" fill-rule="nonzero"/>
	<path id="Vector" d="M81.57 34.28C72.26 34.44 64.75 42.38 64.85 51.99C65.09 61.68 72.7 69.2 82.17 69.1L82.18 69.1C87.17 69.01 91.2 67.44 94.51 64.29C95.32 63.53 95.76 62.56 95.78 61.49C95.82 60.11 95.16 58.91 94.51 58.23C93.82 57.44 92.61 56.98 91.26 57C89.9 57.03 88.64 57.54 87.79 58.4C86.7 59.22 84.8 59.77 82.92 59.8C82.65 59.81 82.39 59.8 82.14 59.79C80.17 59.65 77.93 58.67 76.82 57.44L76.73 57.35C76.23 56.89 75.78 56.24 75.43 55.46L94.02 55.14C96.44 55.1 98.31 53.59 98.62 51.46C98.69 51.19 98.7 50.9 98.7 50.56L98.69 50.16C97.97 40.79 90.77 34.11 81.57 34.28ZM89.21 47.06L75.04 47.31C76.01 45.39 78.15 43.34 81.71 43.08C85.35 43.34 87.93 45.23 89.21 47.06Z" fill="#FFFFFF" fill-opacity="1.000000" fill-rule="nonzero"/>
	<path id="Vector" d="M138.07 49.68C140.6 49.94 142.97 48.05 143.23 45.55C143.49 43.01 141.61 40.72 139.03 40.45L138.79 40.42L139.58 32.89C139.85 30.31 138.03 28.07 135.44 27.8C132.82 27.52 130.56 29.34 130.29 31.92L129.5 39.45L129.02 39.4C126.43 39.13 124.19 40.95 123.92 43.54C123.65 46.08 125.51 48.37 128.05 48.63L128.54 48.68L126.9 64.35C126.44 68.76 129.66 72.74 134.08 73.2C136.67 73.47 138.9 71.65 139.17 69.07C139.4 66.89 138.2 64.97 136.31 64.22L137.83 49.65L138.07 49.68Z" fill="#FFFFFF" fill-opacity="1.000000" fill-rule="nonzero"/>
</svg>
