<svg width="137.000000" height="106.000000" viewBox="0 0 137 106" fill="none" xmlns="http://www.w3.org/2000/svg" xmlns:xlink="http://www.w3.org/1999/xlink">
	<desc>
			Created with Pixso.
	</desc>
	<defs/>
	<path id="Question" d="M20.91 46.83C21.13 47.04 21.37 47.26 21.6 47.49C21.82 47.7 22.04 47.91 22.27 48.09C23.37 49.07 24.32 50.15 25.16 51.34C25.42 51.77 25.71 52.19 26.02 52.63C26.35 53.13 26.67 53.6 26.94 54.06Q27.03 54.2 27.18 54.54C27.25 54.75 27.35 54.97 27.43 55.22C27.54 55.51 27.63 55.75 27.74 55.96C27.81 56.17 27.86 56.28 27.91 56.29C28.03 55.99 28.16 55.52 28.22 54.92C28.29 54.31 28.31 53.7 28.31 53.11C28.31 52.48 28.27 52.01 28.18 51.68C27.89 50.8 27.15 49.75 25.99 48.53C24.84 47.3 23.59 46.1 22.27 44.97C20.93 43.82 19.87 42.96 19.08 42.34C19.02 42.3 18.92 42.22 18.73 42.11Q18.37 41.86 17.88 41.53C17.55 41.28 17.28 41.07 17.03 40.87Q16.67 40.53 16.69 40.42C16.74 40.34 16.99 40.34 17.45 40.47C18.19 40.66 18.87 40.8 19.55 40.89C19.85 40.95 20.19 41 20.55 41.07C20.62 41.08 20.7 41.1 20.76 41.13C20.84 41.15 20.9 41.19 20.96 41.22C21.02 41.23 21.04 41.24 21.06 41.25L21.1 41.28C21.14 41.21 21.22 41.17 21.32 41.15C21.44 41.13 21.55 41.14 21.71 41.15C21.88 41.16 22.05 41.15 22.23 41.13C22.61 41.1 23.01 41.1 23.36 41.17C23.79 41.25 24.13 41.25 24.43 41.17C24.48 41.14 24.56 41.1 24.68 41.09C24.8 41.07 24.94 41.07 25.05 41.07C25.19 41.07 25.34 41.07 25.45 41.08C25.5 41.08 25.55 41.08 25.59 41.07C25.96 41.06 26.46 40.98 27.08 40.89C27.51 40.83 27.9 40.78 28.25 40.72Q28.79 40.65 29 40.73C29.08 40.75 29.13 40.75 29.18 40.72C29.25 40.68 29.3 40.65 29.37 40.58C29.47 40.5 29.61 40.41 29.77 40.33C29.95 40.26 30.16 40.24 30.46 40.31C30.59 40.32 30.7 40.33 30.73 40.32C30.8 40.3 30.84 40.27 30.9 40.22C30.92 40.18 30.98 40.13 31.06 40.09C31.15 40.03 31.26 39.98 31.41 39.93C31.81 39.82 32.14 39.73 32.37 39.63C32.61 39.55 32.94 39.43 33.32 39.25C33.65 39.13 33.93 39.07 34.21 39.09C34.5 39.12 34.74 39.14 34.93 39.2C35.04 39.2 35.14 39.23 35.23 39.22C35.3 39.24 35.35 39.21 35.36 39.19C35.39 39.09 35.36 39.05 35.27 39C35.21 38.96 35.12 38.91 35.03 38.88C34.92 38.88 34.86 38.84 34.81 38.82C34.79 38.77 34.82 38.75 34.91 38.68C34.92 38.67 34.92 38.67 34.93 38.66C35.33 38.46 35.73 38.3 36.12 38.22C36.53 38.14 36.94 38.21 37.34 38.39C37.63 38.53 37.92 38.66 38.19 38.73C38.43 38.79 38.66 38.84 38.82 38.82C38.97 38.79 39.03 38.74 38.98 38.63C38.88 38.46 38.54 38.26 37.93 38.05C37.74 38 37.54 37.91 37.36 37.83C37.13 37.73 36.98 37.65 36.92 37.55C36.86 37.46 36.86 37.38 36.92 37.32C36.97 37.27 37.04 37.25 37.15 37.26C37.62 37.17 38.2 36.85 38.87 36.34C39.53 35.82 40.04 35.38 40.41 35.03C40.52 34.89 40.6 34.8 40.69 34.69C40.79 34.57 40.87 34.48 40.97 34.4C41.06 34.3 41.18 34.29 41.32 34.29C41.43 34.29 41.48 34.29 41.53 34.26C41.57 34.23 41.59 34.21 41.59 34.16C41.56 34.11 41.56 34.06 41.59 34.02C41.62 33.95 41.67 33.92 41.73 33.87C41.81 33.83 41.88 33.76 41.98 33.62C42.09 33.49 42.19 33.32 42.28 33.15C42.35 32.99 42.47 32.83 42.59 32.68C42.73 32.53 42.84 32.43 42.95 32.38C43.03 32.34 43.16 32.27 43.24 32.18C43.25 32.17 43.26 32.16 43.26 32.15C43.34 32.07 43.39 32.01 43.41 31.94C43.44 31.84 43.5 31.74 43.58 31.64C43.66 31.55 43.74 31.46 43.81 31.38L43.87 31.33C43.95 31.24 44 31.15 44.03 31.06C44.04 30.95 44.04 30.84 44.03 30.72C44.02 30.54 44.04 30.36 44.08 30.19C44.14 29.99 44.31 29.84 44.59 29.69Q45.13 29.41 45.19 29.1C45.23 28.93 45.23 28.73 45.16 28.55C45.14 28.4 45.1 28.27 45.12 28.14C45.14 28.01 45.22 27.91 45.39 27.81C45.68 27.67 45.92 27.3 46.09 26.75C46.29 26.22 46.42 25.64 46.51 25.05C46.58 24.44 46.62 23.98 46.61 23.66C46.58 23.56 46.6 23.43 46.6 23.29C46.63 23.14 46.65 23.01 46.69 22.89C46.72 22.77 46.74 22.56 46.74 22.22C46.72 21.9 46.71 21.53 46.67 21.16Q46.62 20.59 46.6 20.11C46.59 19.79 46.59 19.59 46.64 19.51C46.67 19.3 46.61 18.93 46.43 18.35Q46.15 17.51 45.72 16.5C45.4 15.84 45.1 15.24 44.77 14.74C44.51 14.36 44.29 14.01 44.11 13.74C43.9 13.45 43.79 13.3 43.76 13.31C43.74 13.3 43.62 13.17 43.42 12.92C43.22 12.69 42.98 12.41 42.7 12.08C38.99 7.99 34.38 5.92 28.83 5.82C28.49 5.82 28.19 5.85 27.95 5.88C27.64 5.92 27.35 5.95 27.05 5.92C26.78 5.9 26.55 5.91 26.42 5.95Q26.2 6.03 26.08 6.09C26.03 6.12 26 6.13 25.93 6.15C25.9 6.16 25.87 6.17 25.83 6.14C25.59 6.12 25.34 6.11 25.05 6.17C24.79 6.22 24.53 6.29 24.28 6.38L24.05 6.44C23.63 6.57 23.29 6.68 22.99 6.76C22.69 6.84 22.51 6.85 22.46 6.85Q22.38 6.84 22.26 6.9C22.15 6.95 22.05 7.01 21.96 7.07C21.89 7.14 21.81 7.18 21.77 7.21C21.26 7.56 20.75 7.86 20.23 8.12C19.61 8.42 19.04 8.76 18.49 9.18C18.28 9.34 18.06 9.53 17.86 9.69C17.15 10.18 16.54 10.76 15.98 11.42C15.94 11.49 15.91 11.55 15.85 11.6Q15.75 11.71 15.68 11.76Q15.21 12.26 14.87 12.84Q14.81 12.96 14.74 13.08L14.71 13.14C13.46 15.35 12.84 17.31 12.9 19.06C12.94 20.8 13.48 22.78 14.58 24.99C14.51 25.06 14.46 25.15 14.38 25.24C13.77 25.99 13.26 26.74 12.79 27.45C12.33 28.15 11.95 29 11.6 29.95C11.14 31.38 11 32.6 11.21 33.56C11.4 34.55 11.86 35.66 12.64 36.89C12.8 37.16 12.93 37.37 13.01 37.56C13.12 37.77 13.15 37.87 13.14 37.92C13.09 37.92 13.01 37.87 12.87 37.82C12.73 37.76 12.6 37.69 12.46 37.64C12.33 37.57 12.22 37.53 12.11 37.46L12.03 37.42Q10.1 36.43 8.21 35.38L7.83 35.16C7.32 34.87 6.81 34.63 6.34 34.42C5.84 34.21 5.48 34.2 5.23 34.39C4.98 34.59 4.98 35.12 5.24 36.04C5.27 36.08 5.34 36.15 5.51 36.25L6.02 36.54C6.2 36.62 6.35 36.7 6.48 36.78C6.6 36.85 6.67 36.92 6.68 36.95C6.68 37.01 6.63 37.04 6.53 37.03C6.38 37.03 6.24 37.04 6.08 37.03C5.93 37.03 5.79 37.03 5.66 37.01C5.54 37.03 5.5 37.06 5.5 37.09C5.6 37.57 5.71 37.91 5.8 38.14C5.93 38.35 6.14 38.53 6.44 38.64C6.74 38.76 7.22 38.9 7.88 39.03C8.11 39.07 8.43 39.2 8.86 39.39C9.22 39.54 9.54 39.67 9.85 39.77Q10.32 39.91 10.44 39.77C10.52 39.68 10.61 39.67 10.79 39.75C10.95 39.81 11.11 39.93 11.25 40.07C11.4 40.21 11.5 40.33 11.55 40.44C11.61 40.73 11.84 41 12.21 41.24C12.6 41.5 12.95 41.67 13.24 41.75C13.3 41.76 13.32 41.77 13.33 41.75C13.38 41.72 13.39 41.7 13.38 41.66C13.39 41.64 13.39 41.59 13.41 41.57C13.4 41.53 13.41 41.51 13.41 41.51C13.41 41.51 13.42 41.5 13.42 41.5C13.43 41.5 13.43 41.51 13.45 41.54C13.47 41.55 13.52 41.61 13.55 41.71C13.61 41.8 13.68 41.92 13.75 42.1C13.87 42.28 14.01 42.48 14.21 42.62L14.24 42.64C14.45 42.79 14.64 42.92 14.83 43.01C15.05 43.11 15.23 43.15 15.37 43.15C15.52 43.18 15.58 43.13 15.56 43.01C15.54 42.91 15.58 42.88 15.68 42.91C15.75 42.92 15.89 42.98 16.04 43.06C16.18 43.17 16.3 43.24 16.44 43.35Q16.64 43.51 16.72 43.59C16.92 43.82 17.06 43.99 17.17 44.08C17.27 44.16 17.37 44.22 17.43 44.26C17.47 44.26 17.5 44.29 17.54 44.31C17.56 44.33 17.58 44.34 17.6 44.36C17.69 44.41 17.76 44.48 17.85 44.56C18.09 44.78 18.35 44.93 18.55 45.02C18.72 45.11 18.87 45.2 18.93 45.29Q19.05 45.46 19.22 45.55Q19.27 45.59 19.33 45.61C19.48 45.7 19.63 45.73 19.75 45.77C19.87 45.81 19.94 45.82 20.01 45.86C20.07 45.89 20.08 45.93 20.02 45.98C19.99 46.04 20 46.11 20.1 46.19C20.2 46.31 20.29 46.39 20.43 46.5C20.56 46.6 20.68 46.7 20.78 46.76L20.91 46.83ZM38.79 11.43C40.02 12.17 40.98 12.86 41.65 13.45C44.21 16.33 44.94 19.43 43.84 22.74C42.76 26.04 40.88 28.9 38.26 31.33C35.62 33.76 33.25 35.12 31.18 35.45C30.87 35.44 30.41 35.31 29.8 35.05C29.19 34.78 28.61 34.47 28.05 34.18C27.68 33.99 27.37 33.84 27.14 33.74C26.4 33.37 25.4 32.85 24.14 32.12C22.9 31.37 21.71 30.6 20.55 29.79C19.38 28.98 18.58 28.26 18.13 27.67C17.94 27.27 17.94 26.99 18.08 26.84C18.24 26.71 18.43 26.62 18.7 26.58C18.85 26.53 18.98 26.49 19.11 26.42C19.25 26.37 19.32 26.29 19.36 26.17C19.39 26.13 19.41 26.08 19.43 26.05C19.46 25.98 19.48 25.93 19.52 25.9C19.57 25.87 19.59 25.83 19.66 25.81C19.69 25.8 19.72 25.79 19.77 25.82C19.8 25.81 19.83 25.8 19.85 25.81C19.86 25.8 19.86 25.8 19.87 25.79C19.89 25.77 19.91 25.74 19.92 25.7C19.96 25.62 20 25.56 20.06 25.51C20.12 25.49 20.2 25.45 20.27 25.43C20.41 25.43 20.62 25.32 20.88 25.16C21.63 24.64 22.24 24.26 22.76 23.99C23.28 23.73 23.99 23.52 24.88 23.3C25.04 23.28 25.18 23.22 25.33 23.22C25.63 23.17 25.85 23.1 25.98 23.01C26.12 22.92 26.13 22.7 26.01 22.37C25.86 21.89 25.82 21.48 25.88 21.14C25.91 20.79 25.86 20.48 25.73 20.18L25.7 20.13C25.13 19.41 24.25 19.22 23.12 19.52C22.01 19.84 20.87 20.34 19.74 21.03C18.62 21.74 17.79 22.31 17.23 22.74C17.09 22.89 16.93 23.02 16.77 23.19C16.52 23.49 16.25 23.7 15.99 23.86C15.74 24 15.5 23.92 15.33 23.59C14.96 22.76 14.82 21.78 14.94 20.66C15.05 19.54 15.28 18.55 15.61 17.72Q15.98 16.88 16.25 16.48C16.41 16.21 16.62 15.94 16.88 15.63C17.03 15.47 17.22 15.24 17.43 14.97C17.54 14.83 17.65 14.73 17.79 14.58C17.95 14.45 18.09 14.31 18.2 14.17C18.3 14.06 18.28 13.94 18.17 13.84C17.99 13.71 17.86 13.69 17.77 13.75C17.7 13.82 17.6 13.94 17.54 14.1Q17.5 14.2 17.44 14.3Q17.39 14.39 17.32 14.48L17.27 14.56C17.18 14.68 17.04 14.86 16.87 15.07C16.71 15.29 16.53 15.46 16.37 15.63C16.21 15.76 16.07 15.82 16 15.78C15.88 15.65 15.92 15.39 16.13 15.03C16.32 14.69 16.61 14.29 16.97 13.86C17.34 13.42 17.7 13.04 18.07 12.69C18.44 12.34 18.73 12.14 18.93 12.03C19.13 11.92 19.29 11.84 19.37 11.71Q19.49 11.57 19.51 11.46L19.57 11.36C19.6 11.31 19.63 11.3 19.66 11.3C19.83 11.25 20.01 11.18 20.11 11.1C20.25 11.01 20.37 10.91 20.47 10.78C20.58 10.69 20.66 10.6 20.77 10.5C21.13 10.31 21.43 10.2 21.68 10.2C21.74 10.18 21.83 10.18 21.88 10.15C21.91 10.14 21.96 10.11 21.97 10.09C21.99 9.96 22.04 9.87 22.1 9.86C22.15 9.83 22.21 9.81 22.29 9.82C22.38 9.82 22.5 9.8 22.59 9.74C22.7 9.69 22.81 9.56 22.92 9.31C22.95 9.27 23 9.28 23.06 9.28C23.13 9.29 23.23 9.32 23.3 9.34C23.4 9.36 23.5 9.39 23.57 9.41C23.65 9.42 23.72 9.41 23.76 9.38C23.81 9.35 23.8 9.26 23.79 9.14L23.78 9.1C23.73 8.99 23.72 8.9 23.71 8.87Q23.72 8.81 23.74 8.8Q23.74 8.8 23.75 8.81C23.76 8.79 23.81 8.81 23.85 8.83C23.92 8.85 24.06 8.9 24.21 8.93C24.4 8.95 24.6 8.96 24.87 8.92C25.06 8.88 25.17 8.84 25.26 8.78C25.33 8.7 25.37 8.64 25.35 8.57C25.37 8.5 25.35 8.43 25.33 8.37C25.3 8.32 25.27 8.27 25.26 8.24L25.3 8.26C25.36 8.32 25.45 8.4 25.61 8.52C25.72 8.62 25.78 8.65 25.83 8.62C25.88 8.59 25.91 8.53 25.96 8.45C25.99 8.35 26.04 8.27 26.13 8.21C26.2 8.13 26.31 8.08 26.49 8.07Q26.73 8.09 27.19 8.31Q27.09 8.13 27.11 8.01C27.11 7.92 27.2 7.86 27.37 7.82C27.47 7.83 27.56 7.82 27.64 7.84C27.73 7.83 27.83 7.84 27.93 7.86C28.15 7.88 28.36 7.95 28.53 8.04C28.74 8.13 28.82 8.24 28.83 8.36C28.83 8.47 28.66 8.6 28.32 8.71C27.65 8.94 26.98 9.07 26.38 9.14C25.43 9.21 24.36 9.55 23.21 10.13C22.81 10.35 22.43 10.55 22.05 10.73C21.67 10.9 21.27 11.1 20.88 11.35C20.6 11.58 20.4 11.78 20.27 12.01C20.16 12.15 20.08 12.24 20.02 12.24C19.91 12.23 19.83 12.23 19.79 12.24C19.73 12.26 19.69 12.27 19.67 12.31C19.66 12.33 19.63 12.38 19.64 12.41L19.6 12.47C19.59 12.49 19.56 12.5 19.53 12.51C19.49 12.52 19.46 12.53 19.38 12.51C19.25 12.5 19.16 12.47 19.09 12.49C19.04 12.48 18.97 12.5 18.96 12.52L18.87 12.67C18.84 12.77 18.77 12.89 18.66 13.08C18.53 13.26 18.46 13.39 18.47 13.46C18.47 13.51 18.51 13.53 18.61 13.51C18.71 13.48 18.81 13.45 18.94 13.38C19.06 13.32 19.15 13.26 19.22 13.18C19.84 12.7 20.46 12.26 21.08 11.92C21.33 11.78 21.56 11.63 21.82 11.47C22.41 11.13 22.97 10.84 23.53 10.6Q24.31 10.28 24.95 9.9C25.09 9.81 25.3 9.73 25.58 9.69C25.84 9.68 26.12 9.64 26.42 9.61C26.84 9.6 27.21 9.56 27.54 9.47L27.67 9.44C27.99 9.33 28.31 9.27 28.65 9.21C30.57 8.91 32.48 9.11 34.35 9.79C34.56 9.86 34.71 9.89 34.84 9.91C34.97 9.93 35.08 9.93 35.19 9.94C35.3 9.95 35.46 9.96 35.65 9.98C36.49 10.18 37.53 10.67 38.79 11.43ZM34.9 9.46C34.88 9.45 34.91 9.44 34.98 9.43C35.07 9.42 35.16 9.45 35.25 9.5C35.32 9.57 35.39 9.6 35.37 9.62C35.38 9.65 35.37 9.65 35.35 9.65C35.35 9.65 35.34 9.65 35.33 9.65C35.27 9.65 35.22 9.65 35.16 9.61C35.1 9.61 35.04 9.57 34.99 9.55C34.93 9.51 34.91 9.5 34.9 9.46ZM32.19 7.96C32.31 8.05 32.39 8.15 32.4 8.28Q32.32 8.38 32.22 8.39Q32.16 8.39 32.1 8.36C32.01 8.33 31.9 8.27 31.83 8.2C31.64 8.03 31.57 7.91 31.6 7.87C31.63 7.8 31.7 7.78 31.83 7.8C31.95 7.84 32.07 7.88 32.19 7.96ZM33.18 8.58C33.26 8.6 33.42 8.66 33.65 8.8C33.76 8.86 33.85 8.94 33.88 9.04C33.92 9.15 33.88 9.24 33.8 9.28C33.76 9.29 33.69 9.27 33.62 9.2C33.52 9.12 33.43 9.04 33.31 8.94C33.23 8.84 33.16 8.77 33.12 8.69C33.08 8.61 33.11 8.57 33.18 8.58ZM31.48 8.7C31.49 8.79 31.44 8.82 31.36 8.8C31.23 8.7 31.13 8.58 31 8.45C30.89 8.31 30.83 8.16 30.81 8C30.79 7.85 30.82 7.79 30.87 7.81C30.94 7.83 31.01 7.9 31.1 8C31.2 8.12 31.28 8.22 31.36 8.38C31.43 8.5 31.47 8.61 31.48 8.7ZM75.65 73.36C75.39 73.41 75.19 73.38 75 73.27C74.81 73.16 74.56 72.9 74.29 72.55C73.34 71.01 73.23 69.15 73.98 66.98Q74.31 65.52 75.32 63.78C75.67 63.17 76.1 62.51 76.59 61.81C78.34 59.66 80.38 57.6 82.72 55.65L85.82 53.16Q85.98 52.95 86.2 52.78L83.53 51.66C82.85 51.27 82.45 50.93 82.35 50.62C82.32 50.57 82.33 50.52 82.34 50.5C82.36 50.45 82.45 50.45 82.58 50.47C82.71 50.49 82.76 50.49 82.79 50.5L82.76 50.46L81.66 49.82C81.52 49.71 81.43 49.58 81.43 49.44C81.46 49.37 81.65 49.39 81.97 49.47C82 49.43 81.75 49.17 81.24 48.68C81.18 48.64 81.13 48.59 81.06 48.52C80.82 48.29 80.38 47.98 79.76 47.63C78.77 47.06 78.34 46.53 78.49 46.02L78.51 46C78.58 45.87 78.81 45.92 79.17 46.13C79.21 46.15 79.25 46.18 79.28 46.17L79.57 46.3L79.81 46.47C80 46.58 80.44 46.81 81.13 47.12C81.43 47.24 82.51 47.75 84.37 48.68C86.95 49.97 88.4 50.59 88.74 50.59C89.12 50.38 89.72 49.91 90.55 49.21L93.66 47C94 46.8 94.33 46.57 94.67 46.31C95.27 45.81 95.8 45.69 96.26 45.96C96.58 46.14 96.85 46.5 97.09 47.01C97.32 47.39 97.39 47.71 97.25 48C97.19 48.11 97.14 48.19 97.09 48.24L96.85 48.61C96.74 48.89 96.77 49.19 96.97 49.53C97.09 49.74 97.13 49.93 97.05 50.06C96.89 50.33 96.56 50.56 96.04 50.79C95.53 51.04 94.93 51.39 94.22 51.83C93.66 52.18 93.26 52.43 93.02 52.6C94.4 53.15 96.17 54.03 98.36 55.26C100.55 56.5 101.78 57.49 102.06 58.28C102.01 58.27 101.97 58.25 101.9 58.21C101.84 58.17 101.75 58.13 101.66 58.1C101.54 58.06 101.48 58.02 101.42 58.02Q101.34 58.01 101.32 58.05C101.29 58.14 101.41 58.29 101.68 58.5C102.08 58.82 102.3 59.43 102.34 60.29C102.3 60.36 102.25 60.39 102.18 60.37C102.1 60.36 102.06 60.39 102.03 60.43L102.18 60.71C102.28 60.83 102.32 60.96 102.24 61.14C102.16 61.29 102.08 61.33 101.99 61.28C101.89 61.22 101.73 61.05 101.48 60.76C101.16 60.38 100.85 60.03 100.6 59.74Q100.16 59.32 98.9 58.43C98.46 58.17 98.01 57.91 97.63 57.66C97.2 57.41 96.8 57.19 96.42 57C96.57 57.13 96.73 57.29 96.89 57.46C97.34 57.92 97.54 58.34 97.47 58.75C97.47 58.76 97.47 58.77 97.46 58.78C97.46 58.79 97.46 58.8 97.45 58.8C97.45 58.8 97.41 58.81 97.39 58.79C97.37 58.78 97.34 58.79 97.34 58.79C97.32 58.78 97.27 58.81 97.24 58.91C97.21 58.97 97.17 59.09 97.15 59.27C97.12 59.46 97.08 59.57 97.04 59.69C96.93 59.88 96.71 60.03 96.35 60.11C96.11 60.19 95.81 60.31 95.51 60.44C94.56 60.91 93.84 61 93.35 60.72C93.06 60.55 92.79 60.22 92.54 59.77C92.37 59.33 92.41 58.88 92.65 58.42C92.66 58.38 92.71 58.29 92.79 58.16C92.84 58.08 92.9 57.98 92.98 57.85C93.19 57.52 93.57 57.21 94.16 56.87Q94.82 56.5 95.4 56.5C94.86 56.25 94.38 56.06 93.94 55.93C93.74 55.89 93.56 55.82 93.37 55.71C93.23 55.6 93.2 55.47 93.21 55.3L93.19 55.18C93.13 55.15 93.01 55.16 92.84 55.26C92.65 55.35 92.32 55.27 91.83 55.05C91.68 54.96 91.12 54.72 90.12 54.34L90.06 54.45L90.06 54.7C90.01 54.79 89.85 54.86 89.61 54.95C89.51 54.97 89.46 55 89.45 55.02L89.47 55.09C89.42 55.18 89.23 55.21 88.94 55.18C88.82 55.19 88.75 55.21 88.71 55.28L88.7 55.3C87.91 55.83 87.55 56.12 87.55 56.21C87.54 56.29 87.52 56.36 87.48 56.43C87.42 56.53 87.36 56.58 87.31 56.64C87.09 56.76 86.83 56.98 86.53 57.26C86.3 57.49 86.08 57.73 85.84 57.9C85.49 58.18 85.11 58.19 84.71 57.96L84.69 57.94L84.68 57.97C84.8 58.2 84.78 58.42 84.65 58.65C84.45 58.99 84.19 59.15 83.88 59.11C83.81 59.07 83.81 58.93 83.9 58.73C83.95 58.59 83.97 58.51 83.93 58.49C83.9 58.48 83.85 58.47 83.79 58.52C83.71 58.56 83.64 58.64 83.56 58.73C83.48 58.82 83.4 58.92 83.34 59.02C83.31 59.12 83.38 59.24 83.53 59.42C83.68 59.59 83.78 59.76 83.81 59.86L83.74 59.88L83.34 59.59C83.3 59.57 83.23 59.64 83.15 59.79C83.16 59.82 83.15 59.88 83.13 59.92C83.06 60.04 82.96 60.1 82.88 60.11C82.86 60.1 82.86 60.1 82.85 60.06Q82.81 60.05 82.76 59.93Q82.7 59.81 82.6 59.75Q82.58 59.74 82.55 59.74Q82.45 59.73 82.33 59.94C82.22 60.13 82.2 60.26 82.25 60.31C82.29 60.39 82.32 60.44 82.33 60.47C82.27 60.58 82.21 60.68 82.15 60.73C82.09 60.79 81.99 60.87 81.86 60.99C81.73 61.11 81.57 61.25 81.34 61.4C81.06 61.69 80.92 61.83 80.91 61.85C80.88 61.86 80.79 61.87 80.61 61.84C80.53 61.83 80.43 61.86 80.32 61.9Q80 62.02 79.91 62.17C79.87 62.24 79.85 62.28 79.87 62.29C79.89 62.3 80.03 62.3 80.35 62.29C80.37 62.3 80.38 62.33 80.36 62.41C80.28 62.56 80.22 62.66 80.15 62.74Q79.49 63.66 79.11 63.66Q78.94 63.65 78.82 63.57C78.81 63.6 78.77 63.6 78.76 63.63C78.74 63.67 78.75 63.73 78.79 63.81C78.84 63.98 78.84 64.12 78.81 64.22Q78.74 64.35 78.64 64.37Q78.54 64.4 78.48 64.36L78.4 64.49C77.6 65.63 76.99 66.55 76.58 67.25C76.5 67.39 76.34 67.67 76.13 68.08C75.92 68.5 75.73 69.07 75.62 69.79C75.32 70.66 75.31 71.84 75.65 73.36ZM29.61 8.52C29.47 8.47 29.29 8.34 29.11 8.12C29.03 7.96 29 7.86 29.03 7.77C29.07 7.7 29.18 7.71 29.37 7.77C29.66 7.9 29.85 8.01 29.92 8.14C30.01 8.27 30 8.38 29.93 8.46C29.88 8.54 29.76 8.55 29.61 8.52ZM26.83 6.55C27.02 6.52 27.13 6.53 27.18 6.53C27.21 6.57 27.11 6.66 26.89 6.73C26.65 6.81 26.38 6.89 26.07 6.99C25.75 7.06 25.47 7.15 25.22 7.2C24.96 7.25 24.79 7.29 24.76 7.3C23.89 7.53 23.34 7.67 23.08 7.68C22.8 7.72 22.74 7.68 22.91 7.59C23.08 7.49 23.35 7.36 23.77 7.21C24.17 7.05 24.62 6.91 25.12 6.78C25.17 6.78 25.31 6.74 25.52 6.72C25.7 6.69 25.93 6.65 26.17 6.62C26.41 6.59 26.63 6.55 26.83 6.55ZM26.77 8.21C26.74 8.17 26.68 8.18 26.56 8.23C26.54 8.27 26.51 8.28 26.48 8.32C26.46 8.37 26.45 8.42 26.48 8.47C26.56 8.54 26.62 8.57 26.67 8.54C26.71 8.51 26.77 8.46 26.78 8.39C26.8 8.31 26.8 8.26 26.77 8.21ZM21.04 9.21C20.94 9.33 20.82 9.4 20.7 9.41C20.57 9.39 20.45 9.44 20.28 9.54C20.15 9.63 20 9.74 19.85 9.85C19.64 10.01 19.47 10.11 19.34 10.2C19.19 10.26 19.11 10.21 19.09 10.04C19.07 9.88 19.08 9.77 19.13 9.69C19.14 9.61 19.2 9.56 19.27 9.54C19.33 9.53 19.39 9.53 19.45 9.51L19.55 9.48C19.59 9.48 19.62 9.47 19.63 9.44C19.73 9.28 19.86 9.15 20 9.06C20.14 8.95 20.3 8.87 20.49 8.79C20.49 8.79 20.53 8.78 20.54 8.76C20.7 8.68 20.83 8.59 20.99 8.51C21.33 8.31 21.63 8.14 21.97 7.98C22.54 7.74 22.82 7.73 22.8 7.97C22.77 8.21 22.37 8.52 21.57 8.87C21.33 8.99 21.16 9.09 21.04 9.21ZM18.91 10.3C18.95 10.38 18.85 10.51 18.55 10.68L18.29 10.84C18.14 10.95 17.96 11.13 17.76 11.32Q17.55 11.54 17.38 11.69C17.27 11.78 17.17 11.8 17.1 11.73Q17.02 11.66 17.03 11.59Q17.03 11.56 17.05 11.53C17.1 11.48 17.18 11.44 17.27 11.38C17.34 11.36 17.4 11.31 17.47 11.29C17.51 11.26 17.54 11.22 17.56 11.18C17.62 10.88 17.78 10.66 17.98 10.49C18.18 10.35 18.38 10.24 18.59 10.22C18.78 10.19 18.91 10.21 18.91 10.3ZM97.51 57.03C98.59 57.79 99.38 58.33 99.87 58.61C100.19 58.78 100.36 58.84 100.38 58.8C100.43 58.66 99.96 58.3 98.95 57.72C98.5 57.46 98.05 57.23 97.51 57.03ZM94.3 55.32C94.43 55.48 94.55 55.57 94.65 55.63C95.28 55.97 95.6 56.09 95.65 56.01C95.68 55.95 95.58 55.83 95.33 55.68C94.71 55.33 94.36 55.21 94.3 55.32ZM96.54 56.61L96.65 56.67L96.75 56.68C96.69 56.59 96.64 56.53 96.56 56.48Q96.46 56.42 96.41 56.45Q96.4 56.46 96.4 56.47C96.43 56.52 96.48 56.57 96.54 56.61ZM100.66 59.24C100.63 59.28 100.66 59.3 100.7 59.32C100.85 59.41 100.94 59.43 100.98 59.37C101.02 59.31 100.96 59.25 100.88 59.2C100.88 59.2 100.84 59.18 100.78 59.17C100.72 59.19 100.68 59.2 100.66 59.24ZM93.82 58C93.78 58.06 93.79 58.1 93.82 58.14C93.89 58.18 94.19 58.04 94.75 57.75C95.09 57.52 95.3 57.33 95.37 57.23C95.4 57.16 95.39 57.13 95.35 57.11C95.29 57.07 95.04 57.15 94.63 57.37C94.15 57.68 93.88 57.89 93.82 58ZM16.59 12.48C16.58 12.44 16.58 12.39 16.62 12.27C16.62 12.27 16.61 12.24 16.62 12.22L16.71 12.07C16.72 12.05 16.72 12.05 16.75 12.04C16.8 12.06 16.81 12.1 16.8 12.15C16.8 12.21 16.78 12.28 16.75 12.35C16.72 12.39 16.69 12.45 16.65 12.46C16.63 12.5 16.59 12.51 16.59 12.48ZM43.86 29.21C43.86 29.24 43.8 29.35 43.73 29.53C43.69 29.59 43.65 29.66 43.61 29.69L43.52 29.83C43.51 29.86 43.5 29.88 43.51 29.91L42.75 31.22C42.45 31.7 42.16 32.09 41.86 32.37C41.58 32.61 41.45 32.7 41.44 32.61Q41.43 32.48 41.67 32.06C41.85 31.8 42.02 31.51 42.24 31.18C42.46 30.85 42.67 30.58 42.84 30.34C42.99 30.12 43.08 29.97 43.11 29.96C43.12 29.94 43.16 29.88 43.24 29.78L43.49 29.5C43.58 29.39 43.66 29.3 43.74 29.26C43.81 29.18 43.85 29.18 43.86 29.21ZM15.77 13.3C15.79 13.32 15.76 13.41 15.71 13.61C15.67 13.72 15.62 13.81 15.57 13.89C15.5 13.97 15.44 14.02 15.39 14.01C15.15 14.04 15.2 13.85 15.55 13.49C15.68 13.36 15.77 13.3 15.77 13.3ZM68.98 62.46C67.74 62.4 66.65 62.13 65.7 61.69C65.47 61.59 65.24 61.46 65.03 61.34C64.51 61.06 64.28 60.88 64.32 60.81C64.33 60.79 64.61 60.84 65.14 61L65.59 61.15C65.71 61.22 66 61.31 66.45 61.42C67.36 61.64 67.95 61.75 68.21 61.73C68.31 61.71 68.45 61.71 68.69 61.73C68.86 61.83 69.31 61.83 70 61.75C70.33 61.72 70.53 61.67 70.61 61.57C70.63 61.55 70.62 61.52 70.58 61.49C70.49 61.44 69.95 61.41 68.94 61.34C67.45 61.3 66.2 61.06 65.17 60.6C64.15 60.12 63.4 59.41 62.92 58.45Q62.79 58.19 62.74 57.91Q62.61 57.14 63.08 56.26C63.17 56.12 63.26 56.06 63.3 56.08C63.34 56.1 63.42 56.21 63.48 56.41C63.48 56.44 63.51 56.49 63.56 56.51L63.81 57.19C64.15 57.78 64.69 58.26 65.38 58.58Q66.42 59.05 67.35 59.12Q68.97 59.39 70.36 59.17C70.82 59.12 71.07 59.02 71.17 58.9C71.2 58.84 71.22 58.77 71.23 58.66C71.22 58.43 71.13 58.23 70.98 58.15C70.83 58.03 70.71 57.85 70.64 57.58C70.51 57.31 70.38 57.15 70.26 57.11C69.84 56.81 69.29 56.16 68.65 55.11C68.33 54.64 68.17 54.33 68.19 54.11C68.19 53.91 68.25 53.66 68.33 53.32C68.35 53.26 68.36 53.2 68.38 53.14C66.16 53.71 63.97 54.07 61.8 54.23C61.67 54.21 61.54 54.25 61.37 54.29C61.06 54.39 60.8 54.41 60.57 54.36C60.18 54.2 59.5 54.17 58.49 54.26C57.99 54.29 57.71 54.38 57.57 54.52C57.54 54.59 57.55 54.62 57.59 54.64C57.62 54.69 57.69 54.7 57.75 54.71C57.82 54.72 57.9 54.74 57.95 54.74C58.01 54.75 58.04 54.74 58.06 54.75C60.41 54.83 62.79 54.72 65.24 54.38C65.46 54.34 65.6 54.34 65.63 54.38C65.6 54.45 65.45 54.5 65.2 54.59C64.48 54.82 64.08 54.92 63.95 54.91C63.73 54.95 63.54 54.98 63.4 54.98C63.24 55 63.01 55.07 62.68 55.19C62.34 55.3 61.88 55.4 61.3 55.49C60.32 55.63 59.57 55.7 59.08 55.73C57.98 55.77 57.27 55.73 56.94 55.57C56.61 55.41 56.42 55.3 56.36 55.26Q55.63 54.76 54.83 53.36C54.57 52.93 54.41 52.58 54.36 52.27C54.34 51.98 54.31 51.68 54.34 51.39C54.38 51.07 54.38 50.73 54.35 50.29C54.32 49.71 54.34 49.28 54.47 48.95C54.54 48.79 54.6 48.63 54.67 48.49C53.81 48.73 53.12 48.87 52.58 48.91C52.18 48.93 51.71 49 51.24 49.09C49.96 49.5 48.9 49.63 48.11 49.48C47.42 48.72 47.16 47.8 47.28 46.72L47.31 46.62C47.42 46.04 47.55 45.52 47.67 45.06C47.53 45.06 47.03 45.19 46.24 45.5C44.96 46 43.55 46.29 42 46.38C41.45 46.31 41.02 46.18 40.68 45.98C40.41 45.82 40.19 45.61 40.07 45.38C39.19 43.2 39.23 41.42 40.16 40.01C40.77 39.04 41.6 38.14 42.6 37.34C44.3 35.86 45.74 34.83 46.91 34.27C47.3 34.18 47.6 34.19 47.82 34.31C48.07 34.46 48.33 34.84 48.57 35.4C48.66 35.68 48.7 35.87 48.7 35.95C48.59 36.09 48.52 36.27 48.45 36.43C48.64 36.51 48.8 36.57 48.88 36.62C48.97 36.7 48.99 36.77 48.95 36.83C48.88 36.96 48.38 37.29 47.46 37.8C46.64 38.26 45.73 38.86 44.78 39.58Q42.67 41.11 42.1 42.01C41.85 42.4 41.81 42.66 42.03 42.82C42.39 43.02 43.12 42.99 44.19 42.74C45.44 42.47 46.93 41.9 48.63 41.01L49.01 40.78Q50.08 40.26 50.81 39.88C52.76 38.83 53.88 38.27 54.13 38.22C54.41 38.18 54.63 38.19 54.82 38.3Q54.99 38.4 55.11 38.55Q55.37 38.88 55.34 39.45C55.35 39.68 55.4 39.82 55.49 39.87L55.62 39.94C55.47 40.14 55.35 40.3 55.25 40.44C55.16 40.58 55.13 40.74 55.17 40.87C55.31 41.06 55.34 41.25 55.23 41.39Q55.1 41.61 54.65 41.81C54.37 41.96 54.06 42.15 53.82 42.37C53.67 42.49 53.44 42.58 53.19 42.69C52.68 42.88 52.33 43.09 52.18 43.35C52.09 43.46 52.08 43.63 52.1 43.84C52.11 43.87 52.11 43.92 52.06 43.95L51.86 44.06C51.49 44.16 51.23 44.37 51.05 44.64L50.91 44.87C50.9 44.94 50.86 45.01 50.83 45.05C50.75 45.14 50.62 45.23 50.42 45.29L50.29 45.47C50.04 45.83 50.03 46.11 50.25 46.26C50.42 46.36 50.68 46.4 51.04 46.35C53.1 46.02 55.12 45.58 57.09 45.05Q57.85 44.88 58.59 44.73Q60.45 43.74 62.41 43.45Q62.87 43.39 63.34 43.36C64.39 43.4 65.35 43.73 66.25 44.33C66.71 44.66 67.09 45.07 67.32 45.6C67.46 45.94 67.48 46.2 67.42 46.4C67.29 46.63 67.17 46.84 67.1 47.05Q66.95 47.31 67.02 47.47Q67.04 47.51 67.07 47.55C67.15 47.7 67.14 47.81 67.07 47.94C66.98 48.09 66.78 48.25 66.43 48.41C66.16 48.54 65.96 48.68 65.86 48.82L65.93 48.89C65.98 48.95 66.19 48.93 66.53 48.81C66.82 48.76 66.98 48.73 67.02 48.76C67.08 48.79 67.08 48.85 67.02 48.95C66.64 49.61 65.99 50.05 65.01 50.28C63.22 50.7 61.78 50.75 60.78 50.43C60.64 50.38 60.54 50.31 60.47 50.28C60.35 50.2 60.32 50.1 60.33 50C60.37 49.88 60.29 49.72 60.16 49.56C60.08 49.49 60.07 49.42 60.08 49.4C60.1 49.36 60.17 49.34 60.27 49.37Q60.43 49.38 60.49 49.41L60.6 49.42C60.86 49.46 61.09 49.51 61.25 49.57C61.86 49.58 62.55 49.56 63.39 49.48C64.51 49.39 65.13 49.24 65.26 49.01L65.28 48.99C65.13 48.91 64.47 48.92 63.34 49.03C62.8 49.08 62.41 49.11 62.2 49.1C61.06 49.01 60.22 48.81 59.72 48.46L59.41 48.22Q59.3 48.15 59.19 48.15Q58.86 48.14 58.52 48.73C58.5 48.77 58.47 48.81 58.47 48.87C58.47 48.92 58.44 48.96 58.44 49.02C58.44 49.07 58.41 49.11 58.41 49.11C58.4 49.14 58.37 49.14 58.34 49.13L58.25 49.05C58.12 48.94 57.97 49 57.86 49.19C57.8 49.3 57.76 49.41 57.69 49.54C57.65 49.66 57.58 49.82 57.51 49.95Q57.4 50.14 57.26 50.23C57.19 50.3 57.13 50.35 57.11 50.39C57.06 50.48 57.06 50.62 57.17 50.82L57.24 50.95C57.41 51.3 57.64 51.57 57.99 51.8C58.44 52.09 59.05 52.3 59.78 52.41C61.1 52.61 62.48 52.62 63.92 52.52C65.62 52.36 67.28 52.12 68.91 51.79C69.04 51.53 69.18 51.31 69.33 51.1C69.48 50.88 69.71 50.65 70.04 50.36Q72.06 49.5 74.44 49.18C76.04 48.95 77.44 49.11 78.67 49.67L78.73 49.71Q79.41 50.24 79.63 50.93Q79.74 51.27 79.73 51.64C79.71 52.65 79.41 53.57 78.79 54.45C78.57 54.72 78.38 54.81 78.18 54.72C78 54.64 77.82 54.46 77.64 54.18C77.36 53.8 76.96 53.46 76.48 53.17C74.91 52.47 73.25 52.61 71.46 53.57C71.39 53.68 71.32 53.72 71.24 53.7C71.15 53.71 71.09 53.73 71.06 53.77Q71.06 53.77 71.06 53.78Q70.91 53.99 71.66 54.79C71.93 55.09 72.09 55.26 72.09 55.26C72.1 55.3 72.12 55.31 72.14 55.32C72.69 55.92 73.22 56.62 73.71 57.44C74.25 58.4 74.25 59.42 73.71 60.51L73.39 61.06C72.99 61.62 72.61 61.97 72.27 62.08C72.17 62.1 71.9 62.18 71.45 62.28C71.43 62.27 71.41 62.29 71.41 62.29C71.03 62.37 70.76 62.39 70.61 62.36C70.48 62.34 70.36 62.36 70.27 62.42C70.12 62.47 69.7 62.48 68.98 62.46ZM55.43 47.33C54.92 47.45 54.22 47.59 53.35 47.77C52.01 48.1 51.25 48.33 51.11 48.48C51.33 48.49 51.67 48.49 52.1 48.43C52.52 48.39 52.92 48.37 53.32 48.4C53.71 48.43 54.06 48.35 54.38 48.19Q54.65 48.06 54.93 48.02C55.02 47.86 55.12 47.7 55.26 47.55C55.31 47.47 55.37 47.4 55.43 47.33ZM111.95 86.31C111.32 86.23 110.94 86.15 110.8 86.07L110.67 86C110.01 85.42 109.73 84.83 109.79 84.25C109.85 84.05 109.87 83.81 109.84 83.57C109.77 83.3 109.82 82.97 110.03 82.61L110.25 82.28C111.22 80.9 112.35 79.66 113.66 78.56L113.93 78.35C114.11 78.17 114.24 78.05 114.29 77.97C114.34 77.88 114.34 77.83 114.28 77.79C114.18 77.76 113.94 77.79 113.56 77.91L111.17 78.64Q109.51 79.08 109.03 79.27C106.41 80.24 105.08 80.79 105 80.92C104.99 80.94 104.98 80.96 105 80.97C105.06 81.01 105.79 80.78 107.2 80.33L106.51 80.66C105.42 81.27 104.3 81.55 103.09 81.54C102.61 81.26 102.42 81 102.56 80.75C102.58 80.67 102.56 80.61 102.54 80.6C102.48 80.56 102.37 80.55 102.16 80.57C101.95 80.59 101.82 80.57 101.75 80.54C101.64 80.5 101.64 80.3 101.75 80Q101.79 79.91 101.81 79.82Q101.86 79.59 101.79 79.35C101.71 79.1 101.73 78.92 101.84 78.73C102.05 78.37 102.72 77.69 103.89 76.7C104.44 76.25 104.94 75.84 105.4 75.47C104.98 75.53 104.55 75.56 104.12 75.56C103.88 75.54 103.5 75.46 103 75.31C102.13 75.06 101.49 74.8 101.08 74.57C100.85 74.43 100.72 74.33 100.65 74.2C100.68 74.05 100.65 73.95 100.61 73.93C100.55 73.89 100.44 73.97 100.29 74.14Q99.94 74.45 99.82 74.37C99.72 74.35 99.64 74.38 99.57 74.51C99.49 74.64 99.42 74.68 99.35 74.64C99.28 74.62 99.02 74.73 98.61 75C98.19 75.24 97.67 75.45 97.09 75.59C96.56 75.71 96.28 75.8 96.22 75.91C96.2 75.95 96.21 75.98 96.27 76.02L96.45 76.1C96.47 76.11 96.47 76.11 96.46 76.13C96.43 76.19 96.26 76.29 95.93 76.41C95.51 76.56 95.26 76.59 95.2 76.56C95.18 76.54 95.18 76.54 95.19 76.52C95.2 76.5 95.33 76.43 95.57 76.35C95.73 76.27 95.81 76.23 95.84 76.19C95.85 76.17 95.85 76.17 95.83 76.16C95.76 76.12 95.62 76.12 95.37 76.17C95.09 76.21 94.93 76.29 94.86 76.42C94.75 76.61 94.47 76.7 94.03 76.73C93.6 76.73 93.15 76.7 92.68 76.62C92.19 76.54 91.86 76.43 91.66 76.34L91.62 76.32C91.11 76.03 90.69 75.53 90.33 74.79C89.76 73.39 89.85 72 90.63 70.65C91.14 69.87 91.89 69.03 92.88 68.14C92.23 68.4 91.54 68.64 90.82 68.87C88.87 69.26 86.59 69.44 84.01 69.48C83.08 69.47 82.57 69.52 82.54 69.58C82.53 69.61 82.53 69.61 82.55 69.62C82.78 69.75 83.64 69.88 85.14 70.01C86.18 70.11 87.31 70.06 88.5 69.84C89 69.76 89.3 69.74 89.38 69.79C89.4 69.8 89.41 69.83 89.4 69.85C89.33 69.98 89.1 70.13 88.68 70.31Q88.21 70.55 87.26 70.59C86.18 70.64 85.35 70.76 84.8 70.94C84.63 70.99 84.53 71.02 84.45 71.06C84.41 71.09 84.34 71.1 84.28 71.1C84.23 71.1 84.06 71.05 83.75 70.99L83.48 70.89C82.9 70.72 82.45 70.52 82.07 70.3C80.71 69.52 80.42 68.36 81.22 66.79C81.48 66.29 81.85 65.75 82.34 65.19C83.94 63.4 85.74 61.85 87.75 60.56C87.87 60.49 88.01 60.4 88.2 60.31Q88.47 60.21 88.68 60.08Q89.8 59.3 90.67 59.52Q90.89 59.58 91.09 59.7C91.45 59.9 91.78 60.26 92.07 60.79C92.3 61.46 92.35 61.91 92.19 62.19C92.05 62.48 91.71 62.73 91.15 62.91C90.81 63.03 90.47 63.22 90.12 63.48C89.71 63.8 89.15 64.18 88.47 64.64C86.97 65.57 86.13 66.24 85.91 66.63C85.83 66.81 85.87 66.94 86.04 67.04L86.14 67.1C87.63 67.31 89.17 67.27 90.8 67C92.41 66.69 94.87 65.85 98.18 64.46C98.37 64.43 98.49 64.42 98.51 64.43C98.53 64.44 98.53 64.44 98.52 64.46C98.51 64.47 98.5 64.49 98.47 64.51C98.48 64.51 98.49 64.51 98.49 64.5C99.75 64.24 100.79 64.34 101.59 64.8C101.87 64.96 102.16 65.18 102.45 65.52C102.63 65.74 102.78 65.88 102.92 65.96C103.03 66.02 103.18 66.05 103.36 66.04C103.55 66.04 103.71 66.07 103.79 66.12C104.02 66.26 104.25 66.59 104.52 67.11C104.67 67.48 104.8 67.75 104.91 67.9C105.14 68.28 105.12 68.75 104.88 69.26C104.78 69.43 104.73 69.57 104.76 69.67C104.71 70.01 104.59 70.36 104.36 70.8C104.24 71.01 104.12 71.22 103.99 71.4C103.86 71.57 103.72 71.81 103.54 72.07C103.42 72.28 103.5 72.44 103.73 72.57C104.05 72.76 104.26 72.82 104.36 72.8C105.19 72.97 105.93 73.06 106.63 73.06C107.09 73.07 107.68 73.07 108.4 73.08C109.19 72.45 109.81 71.98 110.25 71.68Q111.25 70.91 111.6 71.11C111.8 71.2 112.03 71.67 112.31 72.51C112.35 72.64 112.44 72.78 112.55 72.93C112.78 73.26 112.84 73.55 112.73 73.74C112.67 73.84 112.42 74.07 111.99 74.38L111.86 74.51C111.35 74.91 111.08 75.13 111.04 75.19L111.03 75.21C111.05 75.22 111.12 75.2 111.22 75.18C111.31 75.12 111.45 75.12 111.61 75.15C111.68 75.16 111.76 75.18 111.87 75.18C112.03 75.19 112.43 75.09 113.12 74.87C115.81 74.02 117.53 73.77 118.25 74.13C118.74 74.5 119.01 74.91 119.02 75.29C119.03 75.43 119.05 75.53 119.13 75.6L119.16 75.68C119.24 75.89 119.24 76.23 119.11 76.69L119.03 77.18C119.01 77.45 118.98 77.66 118.91 77.78C118.81 77.95 118.37 78.32 117.65 78.89C117.33 79.15 117 79.42 116.67 79.7L115.88 80.43C114.78 81.41 114.15 82.06 113.95 82.42C113.79 82.69 113.77 82.88 113.89 82.95Q113.96 82.99 114.12 83C116.35 82.99 119.25 82.52 122.81 81.56C123.7 81.34 124.56 81.13 125.42 80.95C125.96 80.84 126.58 80.8 127.26 80.89C126.45 81.41 125.62 81.83 124.8 82.12C124.63 82.18 124.51 82.23 124.5 82.25C124.49 82.27 124.52 82.32 124.55 82.37C124.58 82.41 124.56 82.54 124.44 82.75C124.16 82.99 123.71 83.18 123.03 83.29C122.73 83.37 122.44 83.43 122.18 83.54C121.21 83.9 120.03 84.24 118.63 84.56L118.32 84.61C117.7 84.75 117.07 84.87 116.46 84.94C116.02 85.03 115 85.14 113.38 85.25C113.19 85.25 113.01 85.26 112.83 85.27Q112.08 85.34 111.91 85.41C111.91 85.5 111.96 85.56 112.05 85.61C112.38 85.77 112.91 85.82 113.62 85.72C113.65 85.71 113.67 85.73 113.69 85.74L114.62 85.65C115.61 85.64 117.27 85.41 119.56 84.95C120.57 84.77 121.1 84.72 121.23 84.79C121.17 84.9 120.6 85.1 119.47 85.44C118.67 85.71 117.86 85.89 117.03 86.01C116.8 86.01 116.57 86.08 116.35 86.17Q116.04 86.33 115.88 86.24C115.8 86.19 115.67 86.17 115.5 86.22C114.42 86.44 113.31 86.5 112.2 86.37L111.95 86.31ZM107.22 74.01C107.01 74.02 106.79 74.04 106.56 74.07C106.63 74.11 106.79 74.14 107.02 74.17C107.09 74.11 107.16 74.06 107.22 74.01ZM106.57 74.53C106.25 74.54 105.87 74.54 105.41 74.56C104.69 74.57 104.03 74.49 103.4 74.33C103.38 74.31 103.19 74.29 102.86 74.18C102.49 74.08 102.31 74.06 102.27 74.13C102.25 74.17 102.39 74.31 102.73 74.56C103.56 74.93 104.43 75.12 105.33 75.08L105.82 75.13C106.09 74.92 106.33 74.72 106.57 74.53ZM76.97 51.6C77.19 51.7 77.49 51.96 77.93 52.38C78.03 52.35 78.09 52.33 78.15 52.28C78.2 52.19 78.13 52.02 77.92 51.81Q77.67 51.57 77.39 51.4Q77.29 51.35 77.19 51.3C76.97 51.2 76.75 51.13 76.49 51.1C75.81 51.01 75.36 51.01 75.18 51.13L75.66 51.27C76.32 51.39 76.76 51.51 76.97 51.6ZM15.08 17.28C15.23 16.88 15.37 16.54 15.51 16.29Q15.72 16.08 15.78 16.12Q15.81 16.14 15.81 16.21C15.82 16.35 15.77 16.57 15.64 16.89C15.52 17.25 15.4 17.6 15.24 17.99C15.09 18.38 14.96 18.7 14.83 18.99C14.69 19.28 14.63 19.44 14.61 19.46C14.54 19.59 14.51 19.54 14.54 19.33Q14.6 19.03 14.73 18.43C14.83 18.06 14.94 17.67 15.08 17.28ZM14.45 15.64C14.5 15.7 14.53 15.8 14.52 15.96C14.49 16.01 14.48 16.08 14.44 16.14C14.42 16.22 14.39 16.28 14.34 16.31C14.28 16.36 14.24 16.34 14.19 16.28C14.1 16.15 14.07 16.05 14.09 15.92C14.12 15.82 14.17 15.73 14.25 15.7C14.32 15.62 14.41 15.62 14.45 15.64ZM85.25 57.37C85.21 57.43 85.27 57.49 85.35 57.54C85.46 57.54 85.5 57.51 85.53 57.47C85.58 57.38 85.55 57.34 85.46 57.29C85.4 57.25 85.33 57.27 85.25 57.37ZM82.89 65.31C82.9 65.39 82.89 65.45 82.96 65.49Q83.02 65.52 83.19 65.37L83.67 64.74C83.73 64.58 83.84 64.5 83.96 64.48C84.26 64.4 84.44 64.34 84.51 64.27Q84.59 64.19 85.15 63.88C85.34 63.76 85.51 63.66 85.66 63.55L86.13 63.12C86.25 63.01 86.33 62.92 86.36 62.82C86.4 62.74 86.5 62.68 86.61 62.63C86.72 62.53 86.84 62.43 86.95 62.29C87.05 62.15 87.13 62.06 87.22 61.97C87.31 61.91 87.36 61.82 87.39 61.76C87.48 61.61 87.64 61.48 87.87 61.42L88.22 61.36L88.65 61.1C88.93 60.95 89.11 60.83 89.15 60.77C89.2 60.69 89.31 60.64 89.45 60.64C89.59 60.63 89.77 60.62 90.03 60.61C90.28 60.58 90.42 60.52 90.45 60.42C90.51 60.32 90.48 60.22 90.36 60.14L90.26 60.12C89.89 60.02 89.6 60.04 89.36 60.21C89.19 60.31 89.06 60.38 88.94 60.4Q88.81 60.41 88.64 60.48C88.49 60.53 88.32 60.69 88.11 60.96C88.01 61.07 87.79 61.23 87.44 61.39C87.02 61.57 86.79 61.72 86.76 61.79Q86.67 61.86 86.54 62.17L86.46 62.35C86.34 62.56 86.23 62.7 86.1 62.73C85.99 62.78 85.84 62.84 85.68 62.91C85.54 62.97 85.34 63.11 85.1 63.28C84.83 63.47 84.59 63.64 84.36 63.84C84.12 64.01 83.96 64.15 83.86 64.26C83.75 64.36 83.6 64.47 83.45 64.59C83.27 64.71 83.14 64.83 83.01 65.01L82.96 65.09C82.92 65.16 82.91 65.23 82.89 65.31ZM84.18 57.17C84.17 57.19 84.15 57.21 84.18 57.22C84.24 57.26 84.31 57.24 84.42 57.19C84.53 57.15 84.59 57.1 84.63 57.03C84.64 57.01 84.65 56.99 84.64 56.96C84.62 56.94 84.56 56.94 84.5 56.96C84.33 57 84.23 57.08 84.18 57.17ZM38.52 34.89C38.95 34.58 39.48 34.15 40.09 33.58C40.16 33.5 40.28 33.4 40.41 33.28L40.85 32.94C41 32.83 41.11 32.79 41.22 32.79C41.35 32.81 41.39 32.89 41.33 33C41.27 33.1 41.2 33.23 41.07 33.35Q40.88 33.54 40.72 33.66C40.67 33.71 40.65 33.73 40.62 33.74C40.04 34.36 39.5 34.9 39 35.28C38.51 35.68 37.9 36.11 37.16 36.56C36.81 36.78 36.47 36.93 36.14 37.01C35.8 37.1 35.59 37.12 35.52 37.05C35.43 36.97 35.6 36.82 35.98 36.56C36.43 36.26 36.83 36.01 37.15 35.8C37.63 35.51 38.09 35.19 38.52 34.89ZM60.88 46.79C60.82 46.9 60.88 46.99 61.02 47.09C61.52 47.44 62.29 47.58 63.3 47.54C64.12 47.48 64.6 47.28 64.79 46.96C64.88 46.79 64.82 46.61 64.59 46.48C64.17 46.18 63.52 46.09 62.67 46.19Q61.76 46.3 61.17 46.59C61.02 46.65 60.92 46.73 60.88 46.79ZM104.24 80.34C104.21 80.38 104.22 80.41 104.23 80.45C104.27 80.47 104.34 80.45 104.44 80.43L104.62 80.36C106.89 79.64 108.22 79.2 108.56 79.05C111.55 78.07 113.35 77.54 113.95 77.38Q115.22 77.09 115.54 76.68C115.57 76.62 115.6 76.58 115.58 76.57C115.22 76.5 113.67 76.9 110.92 77.8C109.36 78.3 107.64 78.89 105.83 79.54L105.17 79.8C104.64 79.98 104.34 80.17 104.24 80.34ZM92.37 73.31L92.39 73.33C92.62 73.46 93.11 73.43 93.85 73.33C94.45 73.22 95.15 73.03 96.01 72.71C96.87 72.39 97.65 72.08 98.36 71.73C99.05 71.4 99.48 71.1 99.61 70.93Q99.72 70.74 99.67 70.37Q99.62 69.96 99.77 69.33C99.87 68.91 99.97 68.54 100.12 68.23L100.19 68.16Q100.35 67.89 100.27 67.8Q100.26 67.78 100.25 67.77C100.14 67.71 99.93 67.73 99.63 67.81C99.33 67.89 99.09 67.92 98.91 67.84C98.71 67.79 98.47 67.87 98.14 68.1C97.81 68.33 97.49 68.49 97.23 68.6Q96.81 68.73 96.68 68.96Q96.57 69.15 96.42 69.19Q96.4 69.2 96.37 69.2C96.24 69.18 95.9 69.43 95.32 69.95C94.35 70.8 93.57 71.53 92.97 72.11C92.8 72.27 92.68 72.37 92.61 72.44C92.54 72.51 92.46 72.61 92.4 72.71C92.22 73.03 92.22 73.23 92.37 73.31ZM103.88 70.8C103.84 70.86 103.87 70.91 103.95 70.98Q103.96 70.99 103.97 70.99Q104.03 70.99 104.08 70.89C104.1 70.87 104.11 70.85 104.11 70.79C104.12 70.77 104.09 70.72 104.05 70.7C103.99 70.66 103.93 70.71 103.88 70.8ZM102.67 71.03C102.57 71.17 102.5 71.3 102.46 71.36L102.52 71.31C102.96 71.03 103.22 70.78 103.31 70.61C103.36 70.53 103.39 70.49 103.36 70.44C103.29 70.46 103.18 70.51 103.05 70.63C102.92 70.75 102.79 70.88 102.67 71.03ZM122.71 82.82C122.69 82.84 122.69 82.84 122.74 82.87C122.76 82.88 122.87 82.89 123.02 82.86C123.2 82.85 123.39 82.77 123.62 82.65L123.65 82.61C123.66 82.59 123.64 82.57 123.62 82.56C123.51 82.55 123.39 82.57 123.19 82.62L122.85 82.71C122.78 82.75 122.72 82.8 122.71 82.82ZM103.35 71.62C103.3 71.71 103.29 71.78 103.34 71.84C103.43 71.87 103.53 71.81 103.6 71.68C103.68 71.53 103.7 71.46 103.67 71.41C103.63 71.39 103.56 71.4 103.46 71.48L103.35 71.62ZM14.7 20.86Q14.65 20.89 14.55 20.83C14.52 20.79 14.5 20.72 14.47 20.67C14.46 20.61 14.48 20.57 14.52 20.5C14.55 20.44 14.6 20.41 14.65 20.47C14.69 20.49 14.71 20.56 14.74 20.66C14.76 20.72 14.74 20.8 14.72 20.84Q14.71 20.86 14.7 20.86ZM121.91 83.13L121.95 83.15C121.97 83.16 122 83.17 122.03 83.17C122.07 83.14 122.11 83.13 122.12 83.11C122.17 83.02 122.15 82.95 122.1 82.9C122.04 82.86 121.98 82.91 121.92 83.02C121.9 83.09 121.91 83.13 121.91 83.13ZM121.53 83.3L121.58 83.3C121.6 83.32 121.63 83.27 121.71 83.18C121.75 83.12 121.75 83.06 121.69 83.02C121.64 83 121.6 83.03 121.56 83.09C121.5 83.2 121.49 83.28 121.53 83.3ZM121.3 83.31L121.36 83.34C121.38 83.36 121.42 83.35 121.45 83.28C121.5 83.2 121.48 83.13 121.42 83.1C121.38 83.07 121.36 83.06 121.34 83.08L121.32 83.12C121.26 83.23 121.26 83.28 121.3 83.31ZM79.53 61.7C79.51 61.75 79.52 61.78 79.52 61.78L79.55 61.77Q79.6 61.76 79.72 61.62C79.79 61.54 79.86 61.47 79.97 61.39C80.05 61.3 80.11 61.25 80.14 61.18C80.18 61.12 80.21 61.11 80.25 61.1C80.48 60.84 80.63 60.68 80.68 60.59L80.67 60.56C80.61 60.52 80.47 60.61 80.24 60.82C80.01 61.02 79.79 61.31 79.53 61.7ZM59.46 49.35Q59.18 49.32 58.79 49.05C58.66 48.98 58.63 48.93 58.64 48.91C58.67 48.87 58.72 48.82 58.85 48.8C58.96 48.81 59.06 48.78 59.15 48.81C59.35 48.9 59.5 48.98 59.61 49.04C59.74 49.15 59.82 49.22 59.77 49.31C59.74 49.35 59.64 49.37 59.46 49.35ZM92.44 75.72C92.4 75.79 92.46 75.88 92.63 75.98C92.7 76.01 92.85 76.04 93.04 76.04C93.82 76.12 94.89 75.93 96.24 75.49C97.2 75.2 98.05 74.85 98.78 74.45C99.5 74.05 99.9 73.83 99.94 73.82C100.07 73.84 100.16 73.78 100.23 73.65C100.29 73.55 100.29 73.46 100.22 73.42C100.16 73.39 99.84 73.51 99.24 73.81C98.22 74.3 97.16 74.73 96.07 75.06C94.95 75.37 94.07 75.54 93.39 75.54C92.83 75.53 92.52 75.58 92.44 75.72ZM78.67 62.76C78.52 62.73 78.35 62.91 78.15 63.27L78.05 63.44Q78.08 63.46 78.32 63.26L78.65 62.83C78.68 62.79 78.69 62.77 78.67 62.76ZM45.41 44.88L45.43 44.89C45.63 44.84 45.78 44.78 45.88 44.75C45.95 44.71 46.02 44.7 46.1 44.66C46.15 44.63 46.19 44.6 46.2 44.58C46.16 44.55 46.01 44.57 45.75 44.68L45.73 44.67L45.72 44.69C45.56 44.71 45.46 44.74 45.44 44.78L45.41 44.88ZM82.52 65.85C82.39 65.78 82.27 65.85 82.14 66.03C82.03 66.22 82.04 66.39 82.15 66.49Q82.21 66.52 82.27 66.52Q82.43 66.51 82.56 66.22Q82.66 66.05 82.61 65.95Q82.59 65.89 82.52 65.85ZM33.09 38.19C33.02 38.06 33.08 37.96 33.25 37.91C33.32 37.9 33.42 37.9 33.53 37.91C33.66 37.93 33.76 37.96 33.83 38.03C33.92 38.07 33.91 38.13 33.85 38.23C33.69 38.42 33.52 38.47 33.37 38.43C33.23 38.38 33.13 38.32 33.09 38.19ZM27.62 36.97C27.47 36.98 27.35 36.99 27.29 37.01C25.45 37.5 23.61 37.82 21.83 37.92Q19.13 38.05 16.08 36.88L15.45 36.52C14.67 35.96 14.17 35.47 13.96 35.04C13.79 34.6 13.68 34.26 13.7 33.98C13.7 33.84 13.67 33.74 13.64 33.64C13.58 33.5 13.6 33.22 13.68 32.84C13.74 32.49 13.86 32.13 13.99 31.81C14.12 31.49 14.25 31.32 14.39 31.31C14.5 31.32 14.6 31.29 14.66 31.19C14.73 31.11 14.8 31.01 14.86 30.85Q15.02 30.43 15.47 29.93C15.67 29.79 15.82 29.63 15.95 29.45C16.06 29.26 16.12 29.1 16.19 28.94C16.24 28.8 16.3 28.69 16.34 28.63C16.41 28.56 16.49 28.52 16.56 28.53C16.71 28.56 16.86 28.65 16.99 28.78C17.11 28.91 17.24 29.07 17.36 29.25Q17.54 29.52 17.76 29.73C17.93 29.88 18.09 29.98 18.19 30.06C18.29 30.12 18.35 30.13 18.34 30.09C18.34 30.04 18.28 29.95 18.19 29.87C18.09 29.75 17.97 29.66 17.84 29.55C17.58 29.32 17.41 29.16 17.42 29.06C17.39 28.95 17.44 28.92 17.58 28.92Q17.74 28.93 18 29.08C18.15 29.2 18.28 29.33 18.35 29.48C18.37 29.55 18.41 29.63 18.47 29.67Q18.51 29.71 18.56 29.74Q18.61 29.76 18.66 29.78C18.72 29.78 18.83 29.87 18.95 30.02C19.04 30.19 19.16 30.37 19.28 30.61C19.51 31.19 19.92 31.66 20.42 32C20.66 32.17 20.81 32.26 20.91 32.28C20.99 32.33 21.03 32.32 21 32.28C20.99 32.24 20.92 32.17 20.83 32.07C20.76 32 20.66 31.89 20.56 31.77C20.43 31.64 20.33 31.53 20.23 31.41C20.14 31.33 20.08 31.24 20.02 31.18C20.32 31.21 20.56 31.32 20.8 31.54C21.03 31.79 21.24 32 21.39 32.23C21.42 32.24 21.42 32.24 21.42 32.27C21.69 32.59 21.87 32.81 22.01 32.97C22.15 33.11 22.26 33.21 22.31 33.23C22.36 33.23 22.4 33.23 22.39 33.14C22.39 33.08 22.39 33 22.38 32.91C22.36 32.75 22.34 32.63 22.35 32.52C22.37 32.39 22.43 32.34 22.54 32.35L22.75 32.47C22.86 32.56 23.03 32.66 23.19 32.78C23.4 32.9 23.6 33.05 23.79 33.16C23.98 33.27 24.09 33.36 24.16 33.4C24.26 33.46 24.38 33.5 24.49 33.56C24.73 33.67 24.92 33.78 25.09 33.93C25.23 34.07 25.29 34.27 25.24 34.56Q25.22 34.74 25.31 34.84Q25.34 34.87 25.38 34.89Q25.57 35 25.86 35.09C26.01 35.12 26.18 35.16 26.34 35.22C26.5 35.29 26.64 35.39 26.76 35.52C27.05 35.8 27.21 35.98 27.27 36.07C27.3 36.11 27.34 36.14 27.37 36.18C27.39 36.19 27.43 36.22 27.48 36.28L27.72 36.41C27.75 36.46 27.79 36.48 27.83 36.51C28.05 36.66 28.17 36.76 28.17 36.84C28.17 36.9 28.11 36.95 27.99 36.96C27.87 36.98 27.75 36.99 27.62 36.97ZM42.56 45.27C42.53 45.33 42.56 45.37 42.64 45.42C42.75 45.48 43.1 45.46 43.72 45.37C44.54 45.16 44.97 45.05 45.01 44.99C44.95 44.95 44.62 44.98 44 45.08C43.42 45.2 43 45.24 42.76 45.18C42.67 45.18 42.62 45.21 42.56 45.27ZM26.25 34.55Q26.36 34.44 27.19 34.84L27.64 35.07C27.64 35.07 27.73 35.12 27.86 35.23C28.01 35.31 28.17 35.43 28.37 35.58C28.53 35.73 28.71 35.86 28.84 35.99C28.98 36.13 29.04 36.22 29.06 36.28C29.06 36.37 28.96 36.37 28.75 36.33C28.35 36.24 27.92 36.05 27.52 35.82C27.11 35.55 26.78 35.3 26.53 35.05C26.28 34.79 26.18 34.62 26.25 34.55ZM21.56 31.64C21.58 31.6 21.67 31.65 21.79 31.78L21.84 31.8C21.89 31.86 21.93 31.94 21.96 31.99C22.01 32.04 22.02 32.11 22.03 32.2C21.89 32.2 21.79 32.17 21.7 32.09C21.6 32.01 21.57 31.93 21.54 31.83C21.51 31.73 21.53 31.65 21.56 31.64ZM77.46 64.03C77.39 64.19 77.36 64.29 77.39 64.3C77.43 64.32 77.45 64.28 77.5 64.2C77.56 64.09 77.59 63.99 77.56 63.95C77.54 63.94 77.49 63.97 77.46 64.03ZM18.82 30.34C18.69 30.27 18.61 30.25 18.62 30.29C18.61 30.31 18.66 30.42 18.78 30.6C18.9 30.84 19.02 30.97 19.1 30.98C19.17 31 19.19 30.92 19.17 30.71C19.15 30.65 19.1 30.59 19.04 30.5C18.96 30.43 18.89 30.36 18.82 30.34ZM97.48 75.93C97.43 76.01 97.36 76.03 97.3 75.99C97.22 75.94 97.19 75.9 97.24 75.81C97.3 75.71 97.36 75.69 97.45 75.74C97.51 75.78 97.53 75.84 97.48 75.93ZM24.03 34.2C24.2 34.35 24.42 34.45 24.65 34.5C24.89 34.47 25.02 34.43 25.03 34.32C25.05 34.25 25.02 34.15 24.9 34.05C24.81 33.97 24.7 33.88 24.57 33.8C24.18 33.55 23.94 33.44 23.78 33.46C23.66 33.48 23.61 33.56 23.67 33.71C23.75 33.86 23.85 34.03 24.03 34.2ZM24.03 40.26C23.99 40.23 23.95 40.24 23.92 40.25C23.41 40.41 22.86 40.48 22.22 40.46Q21.27 40.42 20.43 40.35C20.35 40.33 20.3 40.33 20.24 40.33C19.93 40.29 19.7 40.24 19.6 40.21C19.48 40.17 19.45 40.13 19.48 40.08C19.5 40.04 19.6 40.01 19.72 40C19.86 39.96 19.98 39.95 20.14 39.96C21.09 40.03 21.92 40.06 22.61 40.03C23.31 40.04 24.13 39.98 25.08 39.91C25.44 39.86 25.87 39.8 26.4 39.71C26.75 39.66 27.02 39.62 27.3 39.58Q27.71 39.52 27.92 39.52C28.57 39.47 29.24 39.29 29.97 39.01C30.45 38.81 30.93 38.66 31.38 38.56C31.84 38.45 32.27 38.45 32.66 38.59C32.38 38.93 31.69 39.24 30.62 39.53C29.55 39.78 28.46 40 27.33 40.16C26.19 40.32 25.38 40.42 24.89 40.42C24.68 40.41 24.44 40.38 24.26 40.31C24.16 40.28 24.1 40.27 24.03 40.26ZM15.79 28.9C15.85 28.99 15.82 29.09 15.7 29.25C15.64 29.3 15.56 29.34 15.47 29.4C15.39 29.44 15.31 29.48 15.24 29.46C15.15 29.47 15.1 29.41 15.07 29.31C15.02 29.11 15.05 28.96 15.15 28.88C15.23 28.78 15.37 28.75 15.5 28.76C15.63 28.78 15.73 28.81 15.79 28.9ZM23.06 33.16C22.99 33.12 22.93 33.14 22.89 33.2C22.87 33.28 22.87 33.33 22.89 33.4C22.91 33.46 22.96 33.52 23 33.55C23.13 33.62 23.21 33.61 23.24 33.57C23.26 33.53 23.26 33.44 23.22 33.36C23.16 33.27 23.12 33.19 23.06 33.16ZM12.56 41.03C12.54 41.01 12.58 41 12.63 41.01C12.73 40.98 12.82 41.03 12.9 41.08C13.01 41.14 13.04 41.18 13.04 41.18C13.04 41.22 13.01 41.23 12.99 41.21C12.94 41.21 12.88 41.21 12.82 41.17C12.76 41.17 12.7 41.13 12.66 41.11C12.59 41.07 12.57 41.06 12.56 41.03ZM14.48 42.44C14.41 42.46 14.31 42.4 14.15 42.23C14.15 42.23 14.13 42.21 14.15 42.19C14.12 42.18 14.09 42.13 14.09 42.1C14.08 42.07 14.07 42.03 14.07 41.98C14.08 41.96 14.1 41.94 14.15 41.94C14.27 41.93 14.39 41.97 14.46 42.04C14.53 42.11 14.56 42.21 14.57 42.29C14.59 42.39 14.56 42.46 14.48 42.44ZM22.47 47.36C22.36 47.3 22.14 47.15 21.84 46.89C21.82 46.87 21.77 46.82 21.69 46.75C21.6 46.66 21.48 46.54 21.36 46.44C21.24 46.31 21.1 46.21 21.02 46.1C20.94 46 20.89 45.94 20.88 45.91C20.97 45.9 21.09 45.98 21.25 46.1C21.41 46.22 21.57 46.37 21.76 46.53C21.95 46.7 22.11 46.85 22.25 47.01C22.39 47.15 22.49 47.27 22.53 47.34C22.58 47.4 22.57 47.42 22.47 47.36ZM16.15 43.41C16.01 43.35 15.92 43.36 15.83 43.42C15.81 43.52 15.83 43.62 15.94 43.68C16.02 43.73 16.14 43.77 16.23 43.76C16.47 43.79 16.58 43.79 16.59 43.72C16.62 43.67 16.56 43.62 16.49 43.55C16.39 43.49 16.28 43.42 16.15 43.41ZM26.61 52.29C26.62 52.41 26.56 52.43 26.38 52.35C26.35 52.31 26.27 52.21 26.15 52.06C26.02 51.9 25.87 51.72 25.72 51.49C25.58 51.3 25.42 51.13 25.32 50.96Q25.17 50.7 25.18 50.62C25.22 50.56 25.29 50.57 25.45 50.69C25.58 50.8 25.74 50.97 25.9 51.18C26.08 51.4 26.25 51.6 26.38 51.82Q26.59 52.11 26.61 52.29ZM27.12 52.92C27.17 52.93 27.21 53.01 27.23 53.07C27.19 53.19 27.12 53.21 27.02 53.15C26.91 53.09 26.86 53.03 26.85 53C26.86 52.94 26.88 52.9 26.93 52.9C27 52.88 27.06 52.89 27.12 52.92Z" fill="#725A1A" fill-opacity="1.000000" fill-rule="evenodd"/>
</svg>
