<svg width="178.000000" height="134.000000" viewBox="0 0 178 134" fill="none" xmlns="http://www.w3.org/2000/svg" xmlns:xlink="http://www.w3.org/1999/xlink">
	<desc>
			Created with Pixso.
	</desc>
	<defs/>
	<path id="Feedback" d="M150.01 51.09C150.87 52.65 151.22 53.47 151.06 53.52L151 53.56C150.73 53.71 150.19 53.59 149.29 53.2C148.42 52.79 147.63 52.31 146.94 51.72C146.46 51.37 145.98 50.81 145.57 50.1C145.35 49.72 145.17 49.27 145.02 48.8C144.63 47.75 144.31 46.68 144.09 45.6C144.07 45.67 144.06 45.74 144.04 45.81C143.86 46.87 143.48 47.99 142.99 49.19C142.85 49.5 142.81 49.76 142.82 49.99C142.82 50.19 142.8 50.44 142.71 50.76Q142.6 51.18 142.15 52.04C141.83 52.58 141.54 53.18 141.32 53.82C141.03 54.62 140.7 55.28 140.31 55.9C140.11 56.1 139.89 56.26 139.64 56.45C138.4 57.24 137.03 57.4 135.61 56.92C133.58 56.04 132.01 54.79 130.87 53.23C130.81 53.78 130.7 54.48 130.55 55.34L130.17 57.34Q129.54 61.37 127.67 62.45C127.05 62.81 126.3 63 125.39 63.14C123.76 63.25 122.5 62.99 121.65 62.33C120.77 61.7 119.95 60.75 119.14 59.48C119.08 59.59 119.09 59.75 119.15 59.91C119.2 60.08 119.23 60.34 119.26 60.59C119.28 60.9 119.23 61.28 119.09 61.72Q118.77 62.91 118.83 64.36C118.85 65.69 118.63 66.8 118.18 67.73C118.02 68.02 117.84 68.24 117.54 68.41C116.92 68.77 115.9 68.85 114.51 68.63C113.21 68.23 112.16 67.5 111.37 66.34C110.81 65.36 110.36 64.24 110.04 63C109.23 60.03 108.95 57.91 109.21 56.57C109.33 55.75 109.36 55.26 109.31 55.17C109.24 55.05 109.23 54.9 109.29 54.67C109.34 54.48 109.42 54.28 109.5 54.07C109.6 53.9 109.7 53.6 109.86 53.2C110.02 52.79 110.18 52.38 110.33 52.02C110.8 50.8 111.46 49.94 112.35 49.43C113.09 49.01 113.84 48.81 114.67 48.88C115.27 48.97 115.64 48.99 115.72 49.06C116.04 49.07 116.3 49.04 116.45 48.96C116.72 48.8 116.83 48.38 116.84 47.71C116.93 46.71 117.29 46.03 117.85 45.7C118.62 45.26 119.51 45.3 120.55 45.8C121.13 46.06 121.54 46.42 121.79 46.86C121.96 47.16 122.07 47.68 122.08 48.51C121.92 51.05 121.89 52.84 121.91 53.9C121.94 54.23 122.04 54.81 122.23 55.68C122.43 56.71 122.71 57.54 123.08 58.19Q123.39 58.72 123.8 58.81Q124.14 58.89 124.54 58.65C124.9 58.33 125.21 57.83 125.49 57.23C126.82 54.41 127.69 50.72 128.12 46.13C128.15 45.18 128.22 44.32 128.31 43.55C128.34 42.91 128.43 42.3 128.57 41.72L128.6 41.43C128.62 41.42 128.63 41.42 128.64 41.43C128.76 40.99 128.91 40.57 129.09 40.16C129.75 38.71 130.56 37.77 131.46 37.29C132.41 36.82 133.19 36.65 133.85 36.78C134.47 36.7 135.14 36.9 135.89 37.38C136.48 37.71 136.89 38.14 137.18 38.65C137.23 38.74 137.27 38.95 137.34 39.34C137.41 39.74 137.21 40.13 136.68 40.59C135.09 40.92 134 41.82 133.44 43.37C133.11 44.79 132.99 45.96 133.08 46.93C133.17 47.91 133.39 49.04 133.69 50.37C133.83 50.88 133.92 51.26 134.04 51.47C134.13 51.62 134.24 51.75 134.38 51.91C134.82 52.13 135.31 52.08 135.82 51.74C136.53 51.26 137.13 50.59 137.66 49.66C139.24 46.53 140.67 43.26 141.89 39.83C142.06 39.32 142.3 38.54 142.61 37.51C141.7 31.62 141.18 28.08 141.08 26.88L140.8 24.68C140.66 23.49 140.56 21.46 140.51 18.57C140.37 17.23 140.34 15.75 140.43 14.2C140.55 11.68 140.73 10.27 140.94 10.03C140.99 9.97 141.04 9.86 141.09 9.67C141.2 9.25 141.2 8.97 141.1 8.8C141.02 8.25 141.44 7.14 142.4 5.44C142.84 4.63 143.32 4.04 143.89 3.71C145.04 3.05 146.2 3.01 147.34 3.61C147.52 3.71 147.63 3.84 147.72 3.99C147.8 4.14 148 4.34 148.3 4.52C148.86 4.87 149.3 5.29 149.57 5.76C149.71 6 149.78 6.27 149.77 6.51C149.77 6.59 149.78 6.74 149.84 6.91C150 7.25 150.04 7.74 150.05 8.37C150.1 9.28 150.15 9.84 150.22 10.04C150.32 10.34 150.33 10.49 150.24 10.54C150.15 10.6 150.14 10.72 150.24 10.9L150.28 10.96C150.35 11.07 150.34 11.2 150.27 11.35C150.14 11.47 150.12 11.56 150.18 11.68L150.2 11.71C150.25 11.8 150.25 12.07 150.2 12.46C150.13 12.89 150.14 13.52 150.2 14.31C150.24 15.12 150.25 15.55 150.16 15.6C150.1 15.71 150.06 16.17 150.07 16.95C150.06 17.75 150.01 18.49 149.96 19.15C149.86 19.8 149.87 20.23 149.93 20.39C150.01 20.54 149.99 20.64 149.9 20.69C149.84 20.72 149.81 20.74 149.72 20.71C149.61 20.73 149.58 20.75 149.52 20.79C149.4 20.85 149.35 20.96 149.42 21.08C149.45 21.14 149.51 21.18 149.58 21.23C149.63 21.24 149.67 21.25 149.69 21.28Q149.7 21.3 149.7 21.32Q149.7 21.39 149.56 21.47C149.46 21.57 149.44 21.74 149.49 22.03C149.55 22.35 149.56 22.7 149.53 23.07C149.5 23.96 149.39 24.53 149.21 24.76C149.06 24.84 149.03 24.93 149.12 25.08C149.21 25.23 149.24 25.49 149.18 25.87C149.07 26.97 148.92 27.61 148.73 27.83C148.56 27.93 148.55 28.13 148.65 28.43C148.73 28.78 148.71 29.15 148.59 29.49C148.46 29.88 148.39 30.24 148.32 30.6Q148.29 30.85 147.92 33.19C147.56 35.5 147.45 36.82 147.62 37.12C147.66 37.18 147.7 37.19 147.74 37.25C147.8 37.29 147.82 37.32 147.85 37.38C147.92 37.5 147.91 37.54 147.82 37.59C147.73 37.65 147.65 37.65 147.57 37.58C147.46 37.52 147.4 37.48 147.4 37.48C147.37 37.5 147.39 37.53 147.44 37.62C147.46 37.72 147.33 37.91 146.97 38.17L146.63 38.4C146.64 38.43 146.67 38.41 146.7 38.4C146.9 38.32 147 38.3 147.06 38.39C147.11 38.48 147.1 38.8 146.99 39.37C146.89 40.02 146.92 40.48 147.06 40.72C147.11 40.81 147.16 40.82 147.27 40.75C147.63 40.55 148.08 39.89 148.58 38.77Q150.57 34.84 151.25 31.31C151.8 28.83 152.21 27.29 152.51 26.72Q152.85 26.17 153.25 25.94C153.48 25.8 153.8 25.74 154.22 25.77C154.86 25.87 155.46 26.16 155.97 26.62C156.46 27.12 156.69 27.66 156.64 28.2C156.62 28.77 156.54 29.32 156.46 29.8L156.39 30.36C156.25 31.42 155.89 32.98 155.23 35.05C154.58 37.13 154.01 38.2 153.5 38.26Q154.05 36.35 154.33 35.41Q154.47 35.04 154.56 34.57L154.33 34.86C154.39 34.75 154.4 34.7 154.41 34.66C154.42 34.61 154.42 34.61 154.41 34.58L154.33 34.59C154.03 34.76 153.56 35.7 152.89 37.35L152.01 39.59C151.71 40.36 151.63 40.92 151.84 41.27C152.08 41.69 152.87 41.9 154.24 41.94C155.53 42.06 156.69 41.82 157.76 41.21C158.2 40.95 158.61 40.64 159 40.22C160.32 37.99 161.51 34.03 162.62 28.3L163.12 25.68C163.43 23.96 163.65 23.05 163.8 22.96C163.86 22.93 163.92 22.97 163.98 23.06C164.18 23.41 164.22 23.82 164.11 24.24C164.11 24.72 164.19 25.14 164.29 25.52C164.56 26.59 164.56 27.69 164.38 28.82C164.34 29.16 164.3 29.5 164.31 29.85C164.21 31.88 163.98 34.07 163.59 36.46C163.19 38.86 162.39 40.82 161.21 42.33L159.98 43.68C159.69 44 159.56 44.19 159.57 44.27C159.58 44.3 159.75 44.24 159.99 44.11C161.14 43.44 161.96 42.73 162.36 41.99C162.62 41.56 162.89 41.28 163.19 41.11C163.25 41.08 163.28 41.06 163.3 41.09C163.35 41.18 163.24 41.48 162.97 42.03L162.06 43.66C161.52 44.64 160.86 45.34 160.15 45.75C158.7 46.59 156.9 46.83 154.71 46.45C153 46.16 151.42 45.82 149.88 45.4C148.95 45.15 148.39 45.08 148.24 45.16L148.11 45.28C148.04 45.36 148.13 45.86 148.42 46.76L148.72 47.69C149 48.79 149.42 49.93 150.01 51.09ZM143.47 42.95C142.86 44.69 142.38 46.45 142.03 48.28C142.01 48.45 142 48.57 142.02 48.6C142.03 48.63 142.08 48.64 142.11 48.63C142.47 48.38 143.02 46.96 143.76 44.31C143.65 44.1 143.58 43.71 143.51 43.12C143.5 43.06 143.49 43.01 143.47 42.95ZM129.92 51.67C129.53 54.26 128.84 57.24 127.84 60.61C128.61 59.5 129.13 58.33 129.42 57.14L129.92 54.64Q130.19 53.25 130.39 52.52C130.34 52.44 130.3 52.36 130.25 52.28C130.21 52.21 130.1 52 129.92 51.67ZM109.12 68.19C108.93 74.49 107.51 78.51 104.79 80.24C104.39 80.43 104.18 80.47 104.13 80.38C104.08 80.29 104.28 79.9 104.79 79.21L105.58 78.32C106.77 76.49 107.43 74.49 107.59 72.3C107.64 71.84 107.71 71.41 107.8 70.96C108.14 69.15 108.19 67.66 107.97 66.4C107.75 66.69 107.49 67.75 107.22 69.6C107.11 70.57 106.84 71.83 106.42 73.42Q105.3 77.73 104.22 78.83L103.67 79.19C102.81 79.68 101.78 79.88 100.6 79.81C99.05 79.72 97.7 79.16 96.57 78.16C96.08 77.73 95.74 77.33 95.55 77.01C95.07 76.18 95.04 75.65 95.42 75.42L95.63 75.3C95.76 75.27 96.19 75.45 96.89 75.92C98.22 76.92 99.37 77.13 100.4 76.53Q101.2 76.07 101.87 74.98C102.95 73.29 103.62 71.44 103.91 69.42C104.11 68.67 104.2 67.32 104.18 65.43C104.18 63.73 103.92 62.46 103.43 61.61Q103.1 61.03 102.74 61.02Q102.63 61.01 102.52 61.06C102.14 61.28 101.76 61.66 101.43 62.17C100.39 63.87 99.82 65.74 99.68 67.76L99.64 68.85C99.74 70.8 99.34 72.02 98.51 72.5C97.95 72.82 97.09 73.04 95.94 73.11C95.1 73.08 94.46 72.74 94.04 72C93.64 71.32 93.32 70.28 93.1 68.87L92.94 68.05Q92.36 65.61 91.87 63.11C91.57 61.7 91.38 60.55 91.25 59.72L91.2 59.23C90.99 57.77 90.81 56.3 90.71 54.82C90.64 53.95 90.58 53.23 90.5 52.61C90.31 50.71 90.14 48.84 89.97 46.92L89.72 44.02C89.57 42.65 89.54 41.17 89.61 39.51C89.69 37.41 90.38 35.99 91.68 35.24Q92.43 34.8 93.62 34.71C94.41 34.64 95.15 34.97 95.85 35.63C96.31 36.15 96.75 36.77 97.17 37.51C97.66 38.42 97.95 39.39 98.1 40.41L98.32 41.55C99.3 47.41 98.8 53.19 96.86 58.85C96.56 59.61 96.36 60.24 96.3 60.67C96.25 61.13 96.21 61.75 96.24 62.56L96.3 62.8C96.36 62.76 96.4 62.7 96.48 62.62C96.65 62.24 96.76 62.02 96.82 61.91C96.84 61.82 96.88 61.75 96.9 61.71C97.6 60.39 98.45 59.47 99.42 58.91Q99.75 58.72 100.1 58.58Q101.88 57.88 104.18 58.53C105.73 59.09 106.86 60.02 107.59 61.29C108.62 63.07 109.12 65.38 109.12 68.19ZM37.13 125.18C37.56 126.55 37.34 127.47 36.51 127.95C34.94 128.85 32.93 128.51 30.49 126.88C30.33 126.74 30.2 126.58 30.06 126.42C29.76 125.96 29.48 125.34 29.26 124.55C28.96 123.55 28.77 122.67 28.64 121.91C27.12 114.07 26.41 109.9 26.5 109.38C26.52 108.93 26.45 108.61 26.29 108.39C26.1 108.14 25.77 107.98 25.28 107.87C25.16 107.83 25.07 107.79 24.99 107.75C25.11 108.09 24.98 108.36 24.58 108.59C24.38 108.71 24.22 108.72 24.17 108.63C24.1 108.56 24.14 108.46 24.2 108.32C24.21 108.31 24.21 108.3 24.21 108.29C24.31 108.11 24.42 107.97 24.53 107.87C24.63 107.77 24.72 107.72 24.77 107.69C24.79 107.68 24.81 107.66 24.83 107.65L24.83 107.65C24.77 107.54 24.77 107.41 24.92 107.25L24.96 107.19C24.94 107.16 24.89 107.14 24.84 107.18C24.75 107.23 24.68 107.19 24.57 107.13C23.49 108.27 22.48 109.45 21.48 110.73C21.13 111.21 20.76 111.54 20.41 111.75C20.35 111.78 20.21 111.82 19.96 111.93C19.74 112.02 19.27 111.89 18.58 111.46C18.41 111.36 18.3 111.23 18.21 111.16C18.02 110.96 17.79 110.89 17.48 110.91C17.17 110.93 16.89 110.78 16.64 110.41Q16.41 110.07 16.36 109.71Q16.32 109.43 16.38 109.14Q16.58 108.67 17.69 107.32C18.05 106.84 18.36 106.42 18.6 106.08C18.92 105.54 19.31 105.12 19.73 104.84C20.27 104.41 21.38 103.18 23.1 101.16C23.48 100.66 23.8 100.32 23.98 100.09C24.17 99.87 24.32 99.58 24.41 99.26C24.47 98.75 24.29 97.35 23.87 95.11L22.58 88.23Q22.16 85.76 21.75 85.16C21.6 84.97 21.46 84.93 21.32 85.02C21.29 85.03 21.24 85.1 21.2 85.16C20.07 86.21 19.24 86.89 18.74 87.18C18.56 87.28 18.31 87.46 18.03 87.74C17.29 88.44 16.85 88.9 16.67 89.08C15.85 89.91 15.32 90.42 15.01 90.63L14.85 90.76C14.38 91.19 14.01 91.57 13.75 91.95C13.47 92.35 13.23 92.61 12.99 92.74C12.9 92.8 12.84 92.83 12.8 92.82C12.44 93.02 11.83 93.89 10.96 95.38C10.43 96.31 9.87 97.11 9.33 97.82C9.12 98.21 8.93 98.64 8.82 99.06C8.62 100.01 8.24 100.66 7.65 101C7.4 101.1 7.18 101.07 7 100.82C6.81 100.57 6.67 100.18 6.56 99.73L6.42 99.34C6.17 98.7 6.07 98.2 6.11 97.86C6.19 97.5 6.32 97.11 6.58 96.68C6.68 96.51 6.77 96.33 6.9 96.07C6.12 96.16 5.66 96.11 5.48 95.94L5.46 95.91C5.31 95.72 5.29 95.26 5.35 94.55C5.47 92.43 6.1 90.65 7.29 89.17Q8.98 87.07 11.19 85.26L12.18 84.37C12.88 83.73 13.62 83.11 14.33 82.5C15.73 81.29 16.69 80.43 17.32 79.87C17.98 79.24 18.46 78.85 18.73 78.69C19 78.54 19.19 78.39 19.31 78.2C19.41 78.03 19.82 77.71 20.51 77.19C21.92 76.15 23.52 75.1 25.26 74.01C26.24 73.45 26.99 72.98 27.46 72.63C27.53 72.55 27.62 72.5 27.71 72.44C27.89 72.34 28.25 72.21 28.8 72.01L29.09 71.89C29.41 71.7 29.62 71.5 29.62 71.3L30.52 70.74C31.91 69.94 33.51 69.22 35.26 68.64C37.02 68.06 38.6 67.93 40.04 68.17C41.32 68.46 42.24 69.03 42.86 69.9Q42.99 70.08 43.11 70.28Q43.46 70.88 43.6 71.6C43.75 72.26 43.77 72.92 43.74 73.61C43.67 74.32 43.55 74.86 43.41 75.3C43.3 75.72 43.19 75.94 43.13 75.97L43.07 75.93C42.95 75.8 42.97 75.56 43.04 75.2C43.15 74.86 43.05 74.4 42.76 73.9C42.63 73.74 42.52 73.68 42.41 73.71C42.35 73.74 42.14 74.26 41.83 75.23Q41.38 76.19 40.46 76.96L40.15 77.3C40.04 77.32 39.99 77.31 39.95 77.3C39.88 77.18 39.83 76.89 39.85 76.45C39.83 75.59 39.7 75.03 39.5 74.75C39.15 74.28 38.54 74.17 37.6 74.39C37.04 74.52 36.44 74.71 35.83 74.94Q34.75 75.33 34.48 75.48C33.83 75.86 33.42 76.17 33.29 76.37C33.3 76.52 32.86 76.85 32 77.35C31.19 77.78 30.72 77.93 30.61 77.87C30.5 77.82 30.39 77.69 30.24 77.5C30.01 77.11 30.03 76.87 30.24 76.75C30.46 76.66 31.04 76.36 31.99 75.82Q33.41 75 33.87 74.97L34.06 74.9C34.21 74.81 34.23 74.72 34.15 74.57C33.9 74.28 33.43 74.35 32.64 74.77C32.27 74.94 31.99 75.07 31.7 75.11C31.46 75.17 31.29 75.15 31.21 75.08C31.13 75.01 31.01 75 30.86 75.09C30.77 75.14 30.7 75.22 30.57 75.34C30.15 75.85 29.17 76.54 27.66 77.41L26.34 78.13Q25.1 78.85 25.11 79.08C25.14 79.26 24.93 79.46 24.52 79.69L23.6 80.15C23.06 80.46 22.92 80.82 23.2 81.24C23.28 81.32 23.42 81.35 23.67 81.37C24.27 81.38 24.74 81.3 25.12 81.08C25.27 81 25.31 80.93 25.28 80.87C25.16 80.74 25.19 80.65 25.31 80.58C25.43 80.51 25.52 80.54 25.63 80.67C25.75 80.88 25.86 81.05 25.9 81.27Q25.84 81.48 24.02 82.94L22.82 83.87L24.32 83.6C26.02 83.33 27.06 83.48 27.44 84.01L27.66 84.31C27.76 84.49 27.61 84.78 27.18 85.19C26.96 85.35 26.87 85.48 26.91 85.54L26.99 85.61C27 85.64 27.19 85.61 27.49 85.52C27.59 85.5 27.66 85.54 27.75 85.64C27.9 85.83 28.02 86.16 28.11 86.66Q28.41 87.91 28.1 88.09C27.92 88.19 27.92 88.46 28.12 88.94C28.31 89.27 28.31 89.47 28.16 89.55C28.1 89.59 27.99 89.61 27.92 89.61C27.81 89.63 27.73 89.64 27.67 89.67C27.62 89.71 27.6 89.75 27.61 89.83C27.61 89.89 27.71 90.03 27.87 90.27C27.92 90.34 27.98 90.43 28.05 90.52L28.43 90.98C28.71 91.4 28.82 91.66 28.67 91.74C28.61 91.78 28.44 91.76 28.24 91.68C28.06 91.58 27.89 91.56 27.84 91.59C27.69 91.68 27.65 91.89 27.69 92.31C27.74 92.79 27.85 93.12 27.95 93.3C28.07 93.43 28.23 93.5 28.39 93.44C28.51 93.38 28.49 93.07 28.32 92.57L28.17 92.11C28.22 92.12 28.28 92.16 28.35 92.28C28.63 92.63 28.86 93.02 29 93.41L29.34 94Q29.52 94.2 29.59 94.21C29.82 94.08 30.52 93.51 31.68 92.57Q34.65 90.14 38.21 88.09C39.54 87.32 40.45 86.99 40.93 87.07C41.17 87.41 41.3 87.84 41.41 88.37C41.5 88.95 41.36 89.31 40.97 89.53C40.74 89.67 40.53 89.79 40.29 89.85C40.06 89.94 39.9 90 39.78 90.06C39.63 90.15 39.61 90.24 39.68 90.36C39.77 90.46 39.97 90.47 40.32 90.38C40.59 90.31 40.85 90.28 41.07 90.31C41.33 90.35 41.58 90.52 41.82 90.86Q42.11 91.28 42.01 91.44Q41.99 91.48 41.95 91.5C41.89 91.53 41.81 91.54 41.77 91.52C41.71 91.56 41.69 91.6 41.71 91.63C41.76 91.72 41.97 91.8 42.29 91.89C42.57 91.89 42.71 91.93 42.74 91.98L42.75 92.06Q42.65 92.51 42.39 92.84Q42.23 93.05 41.99 93.21C41.83 93.34 41.59 93.48 41.36 93.61C41.15 93.73 40.91 93.87 40.63 94C40.37 94.1 40.08 94.27 39.78 94.44C39.49 94.61 39.27 94.78 39.05 94.95L37.53 96.14C36.37 97.08 35.46 97.77 34.75 98.18C33.98 98.62 33.55 98.75 33.4 98.56C33.37 98.5 33.34 98.4 33.36 98.23C33.48 97.81 33.75 97.46 34.22 97.11C34.49 96.91 35.03 96.6 35.8 96.15C35.99 96.08 36.2 95.96 36.44 95.82C37.26 95.35 37.92 94.77 38.45 94.11C37.59 94.33 36.77 94.69 35.94 95.16C33.92 96.33 32.01 98.14 30.27 100.53C30.13 100.77 30.11 100.94 30.16 101.02L30.18 101.05C30.23 101.14 30.37 101.18 30.6 101.24C30.81 101.32 30.97 101.39 31.08 101.52C31.3 101.83 31.05 102.21 30.28 102.66L30.28 102.66C30.41 102.67 30.6 102.84 30.84 103.16C30.88 103.22 30.96 103.37 31.13 103.59C31.28 103.85 31.36 104.32 31.37 105.03C31.36 105.07 31.34 105.12 31.28 105.15L31.45 106.48C31.59 107.39 31.59 107.94 31.47 108.08L31.45 108.1L31.44 108.1C31.55 108.19 31.67 108.34 31.81 108.52Q31.88 108.65 31.95 109.39C31.97 109.89 31.97 110.17 31.88 110.22C31.8 110.22 31.73 110.1 31.6 109.94L31.46 109.71C31.41 109.62 31.35 109.5 31.31 109.36C31.27 109.23 31.22 109.14 31.2 109.11C31.18 109.08 31.18 109 31.22 108.86L31.24 108.49C31.25 108.37 31.27 108.28 31.3 108.18C31.32 108.15 31.34 108.11 31.35 108.09C31.31 108.07 31.26 108.01 31.19 107.93C31.16 107.87 31.14 107.84 31.15 107.8C31.13 107.77 31.1 107.71 31.08 107.6C31.06 107.49 31.02 107.44 31.02 107.36C30.98 107.3 31 107.25 30.98 107.22C30.72 106.78 30.49 105.89 30.34 104.55C30.27 103.88 30.31 103.47 30.39 103.34C30.23 103.05 30.13 102.85 30.14 102.75C29.71 103.04 29.57 103.43 29.72 103.88Q29.93 105.07 29.94 105.29C29.98 105.83 30.18 107.13 30.5 109.2C30.76 110.94 30.97 112 31.09 112.41C31.53 113.93 31.84 115.49 32.05 117.14C32.2 118.56 32.45 119.95 32.78 121.34L32.91 121.98C33 122.55 33.13 122.91 33.23 123.09C33.31 123.16 33.36 123.17 33.42 123.14C33.54 123.07 33.55 122.75 33.5 122.19C33.45 121.62 33.54 121.3 33.78 121.16C34.01 121.02 34.15 120.78 34.16 120.46C34.22 119.95 34.11 119.35 33.88 118.61C33.79 118.31 33.67 117.83 33.52 117.24C33.21 115.6 33.14 114.73 33.31 114.6C33.36 114.57 33.4 114.63 33.5 114.73C34.18 115.71 34.68 117.05 34.94 118.79L35.04 119.32C35.1 119.29 35.08 118.83 35.04 117.94L35.08 116.93C35.11 116.91 35.13 116.94 35.15 116.97C35.3 117.16 35.39 117.66 35.48 118.44Q35.62 120.39 36.11 122.25Q36.51 123.75 37.13 125.18ZM91.64 37.08C91.72 37.23 91.95 37.21 92.33 36.99C92.69 36.78 92.85 36.58 92.76 36.43C92.66 36.25 92.4 36.28 92.04 36.49C91.66 36.71 91.53 36.9 91.64 37.08ZM90.54 71.89C90.64 72.54 90.83 73.22 91.08 73.98C91.31 74.52 91.48 75.02 91.65 75.51C92.46 77.88 93.3 79.88 94.19 81.5C95.09 83.12 96.6 84.92 98.7 86.91L98.72 86.94C98.8 87.01 98.83 87.07 98.85 87.1C98.87 87.13 98.81 87.16 98.73 87.17C98.62 87.19 98.48 87.28 98.27 87.4C98.18 87.45 98.1 87.45 98.03 87.46C97.93 87.43 97.82 87.38 97.71 87.32C97.49 87.21 97.17 87.13 96.8 87.1C96.32 87.1 96 87.09 95.75 87.07C95.49 87.03 95.26 86.96 95.02 86.9C94.8 86.79 94.49 86.66 94.06 86.47C93.64 86.28 93.24 86.07 92.83 85.84C92.31 85.55 91.82 85.04 91.3 84.35C90.8 83.69 90.36 83 89.94 82.34C89.77 82.04 89.59 81.79 89.43 81.53C89.19 81.31 89 81.26 88.89 81.41C88.81 81.53 88.7 81.75 88.62 82.03C88.64 82.06 88.64 82.06 88.61 82.08Q88.13 84.04 86.88 85.09Q85.97 85.85 84.67 86.13C81.93 86.65 79.65 85.83 77.85 83.68C77.58 83.35 77.33 82.99 77.16 82.61C77.09 82.47 77.02 82.32 76.95 82.17C76.26 84.2 75.47 86.15 74.56 88.02C74.44 88.17 74.39 88.35 74.33 88.59C74.23 89.04 74.07 89.37 73.86 89.61C73.39 89.96 72.87 90.77 72.27 92.07C71.96 92.68 71.87 93.08 71.95 93.36C72 93.44 72.05 93.46 72.11 93.42C72.18 93.42 72.26 93.34 72.3 93.27C72.37 93.19 72.44 93.11 72.48 93.05C72.53 92.98 72.54 92.94 72.57 92.92C74.32 90.14 75.84 87.17 77.15 83.96C77.25 83.67 77.35 83.49 77.42 83.49C77.47 83.58 77.44 83.79 77.37 84.15C77.14 85.19 76.99 85.75 76.88 85.89C76.77 86.19 76.68 86.44 76.58 86.62C76.51 86.82 76.42 87.15 76.34 87.63C76.23 88.12 76.04 88.75 75.73 89.51C75.21 90.8 74.78 91.76 74.47 92.38C73.75 93.74 73.2 94.57 72.78 94.85C72.35 95.14 72.08 95.29 71.99 95.34Q70.88 95.87 68.63 95.87C67.92 95.88 67.38 95.83 66.98 95.68C66.6 95.5 66.22 95.32 65.88 95.08C65.53 94.81 65.12 94.58 64.57 94.3C63.84 93.93 63.33 93.6 63.03 93.22C62.75 92.87 62.53 92.56 62.34 92.23C62.17 91.94 62 91.64 61.87 91.28C61.83 91.17 61.78 91.05 61.74 90.94C61.05 92.98 60.25 94.93 59.34 96.81C59.23 96.95 59.18 97.14 59.12 97.37C59.02 97.82 58.86 98.15 58.64 98.4C58.17 98.75 57.65 99.56 57.06 100.85C56.74 101.47 56.66 101.87 56.74 102.14C56.79 102.23 56.83 102.24 56.89 102.21C56.97 102.2 57.04 102.12 57.08 102.06C57.16 101.98 57.23 101.9 57.27 101.83C57.31 101.77 57.32 101.72 57.35 101.7C59.1 98.92 60.62 95.95 61.93 92.75C62.04 92.45 62.13 92.28 62.21 92.27C62.26 92.36 62.23 92.58 62.16 92.93C61.93 93.97 61.78 94.53 61.66 94.68C61.56 94.97 61.47 95.23 61.37 95.4C61.29 95.6 61.2 95.93 61.12 96.41C61.02 96.91 60.82 97.53 60.52 98.3C60 99.59 59.57 100.55 59.25 101.16C58.54 102.52 57.99 103.35 57.56 103.64C57.13 103.92 56.87 104.08 56.78 104.13Q55.66 104.65 53.41 104.65C52.71 104.66 52.17 104.62 51.76 104.46C51.38 104.28 51.01 104.11 50.67 103.87C50.32 103.6 49.9 103.36 49.35 103.09C48.62 102.72 48.11 102.38 47.82 102C47.53 101.65 47.32 101.34 47.13 101.02C46.96 100.72 46.79 100.42 46.66 100.07C45.94 98.27 45.59 96.5 45.57 94.69Q45.56 91.38 46.7 88.53Q46.95 87.92 47.24 87.34C48.03 86.09 49.1 85.16 50.46 84.49C51.17 84.16 51.94 83.99 52.74 84.08C53.25 84.14 53.58 84.31 53.78 84.51C53.97 84.83 54.14 85.13 54.35 85.36Q54.56 85.72 54.8 85.75Q54.86 85.75 54.93 85.74C55.17 85.76 55.3 85.84 55.4 86.02C55.52 86.23 55.57 86.59 55.53 87.13C55.49 87.54 55.53 87.88 55.62 88.1L55.75 88.06C55.86 88.04 55.98 87.78 56.09 87.28C56.22 86.89 56.3 86.68 56.36 86.65C56.45 86.6 56.51 86.64 56.6 86.79C57.13 87.71 57.21 88.8 56.8 90.15C56.06 92.62 55.11 94.4 54.02 95.38C53.86 95.51 53.71 95.6 53.62 95.65C53.44 95.75 53.3 95.72 53.18 95.63C53.06 95.5 52.82 95.48 52.53 95.53C52.39 95.57 52.3 95.55 52.28 95.52C52.25 95.46 52.27 95.36 52.37 95.27Q52.5 95.07 52.59 95.02L52.67 94.9C52.9 94.61 53.12 94.36 53.31 94.21C53.75 93.48 54.21 92.63 54.69 91.56C55.37 90.14 55.63 89.28 55.44 88.96L55.42 88.93C55.22 89.05 54.77 89.85 54.11 91.3C53.8 91.99 53.57 92.48 53.4 92.74C52.5 94.05 51.66 94.93 50.89 95.29L50.38 95.51Q50.22 95.59 50.14 95.72Q49.9 96.1 50.38 96.93C50.41 96.99 50.44 97.05 50.51 97.09C50.57 97.13 50.61 97.19 50.67 97.24C50.73 97.28 50.77 97.34 50.77 97.34C50.78 97.37 50.77 97.41 50.74 97.43L50.58 97.49C50.35 97.58 50.32 97.79 50.47 98.06C50.56 98.21 50.67 98.34 50.78 98.52C50.89 98.65 51.04 98.84 51.14 99.01Q51.3 99.28 51.31 99.51C51.35 99.65 51.37 99.75 51.41 99.81C51.47 99.93 51.65 100.03 51.97 100.04L52.17 100.04C52.71 100.08 53.21 99.99 53.73 99.73C54.4 99.39 55.08 98.79 55.72 97.99C56.89 96.53 57.86 94.86 58.75 93.05C59.56 91.29 60.28 89.52 60.92 87.74C60.84 87.13 60.79 86.52 60.79 85.91Q60.78 82.59 61.92 79.74Q62.16 79.14 62.46 78.55C63.24 77.31 64.32 76.37 65.67 75.71C66.39 75.37 67.16 75.21 67.96 75.3C68.47 75.36 68.8 75.52 68.99 75.72C69.18 76.05 69.35 76.35 69.57 76.58Q69.77 76.93 70.02 76.96Q70.08 76.97 70.14 76.96C70.39 76.97 70.51 77.06 70.62 77.23C70.74 77.44 70.79 77.81 70.74 78.34C70.71 78.76 70.74 79.09 70.83 79.32L70.97 79.28C71.07 79.26 71.2 78.99 71.3 78.49C71.43 78.1 71.51 77.9 71.57 77.87C71.66 77.81 71.73 77.86 71.81 78C72.34 78.92 72.42 80.02 72.01 81.36C71.27 83.84 70.32 85.61 69.23 86.6C69.07 86.73 68.93 86.81 68.84 86.87C68.66 86.97 68.52 86.93 68.39 86.85C68.28 86.72 68.03 86.7 67.74 86.75C67.61 86.79 67.51 86.76 67.5 86.73C67.46 86.67 67.49 86.58 67.59 86.48Q67.71 86.29 67.8 86.24L67.89 86.11C68.12 85.82 68.33 85.58 68.52 85.43C68.97 84.7 69.42 83.84 69.91 82.77C70.59 81.36 70.84 80.5 70.65 80.17L70.64 80.14C70.43 80.26 69.99 81.07 69.33 82.52C69.01 83.21 68.78 83.7 68.62 83.95C67.71 85.26 66.88 86.14 66.1 86.51L65.6 86.72Q65.43 86.8 65.35 86.94Q65.11 87.32 65.59 88.15C65.62 88.21 65.66 88.27 65.72 88.31C65.79 88.35 65.82 88.41 65.88 88.45C65.95 88.49 65.98 88.55 65.98 88.55C66 88.58 65.99 88.63 65.96 88.65L65.79 88.7C65.57 88.79 65.53 89.01 65.69 89.28C65.77 89.42 65.89 89.55 65.99 89.73C66.11 89.86 66.26 90.05 66.36 90.23Q66.51 90.5 66.53 90.73C66.56 90.86 66.59 90.97 66.62 91.03C66.69 91.14 66.86 91.24 67.19 91.25L67.38 91.26C67.92 91.3 68.42 91.21 68.94 90.95C69.61 90.6 70.3 90.01 70.94 89.21C72.1 87.74 73.08 86.08 73.96 84.26C74.74 82.57 75.44 80.87 76.06 79.16C75.9 78.35 75.77 77.47 75.69 76.52C75.43 74.02 75.57 71.93 76.08 70.21C76.53 68.89 77.15 67.98 77.9 67.5C78.69 67.01 79.78 66.85 81.18 66.95C82.45 66.97 83.65 67.26 84.8 67.82C84.76 67.69 84.72 67.55 84.71 67.4C84.58 66.69 84.43 65.95 84.27 65.21C84.06 64.15 83.92 62.96 83.83 61.63C83.77 60.84 83.72 60.08 83.63 59.38C83.5 58.19 83.36 56.65 83.25 54.75C83.14 53.19 83.03 51.91 82.96 50.97C82.91 50.33 82.91 49.3 82.95 47.94C83 46.52 83.13 45.18 83.36 43.87C83.57 42.6 83.95 41.75 84.43 41.35C85.65 40.93 86.84 40.95 88.06 41.47C88.1 41.49 88.12 41.51 88.14 41.54C88.15 41.57 88.17 41.6 88.16 41.65C88.17 41.68 88.2 41.79 88.25 41.87C88.3 41.96 88.41 42.09 88.58 42.24C89.24 42.84 89.59 43.31 89.67 43.66C89.72 44.02 89.64 44.42 89.44 44.9C89.29 45.26 89.11 45.76 88.96 46.39C88.81 47.35 88.68 48.37 88.66 49.49C88.6 50.08 88.56 50.62 88.51 51.15C88.46 51.82 88.48 52.67 88.56 53.69C88.64 54.71 88.74 55.72 88.83 56.69C88.92 57.47 88.99 58.14 89.03 58.67C89.06 59.01 89.05 59.25 89 59.44C88.95 59.63 88.86 59.75 88.79 59.83C88.74 59.95 88.65 60 88.59 60.03C88.56 60.05 88.55 60.09 88.52 60.11C88.53 60.14 88.55 60.17 88.6 60.18C88.66 60.23 88.75 60.25 88.88 60.33C88.94 60.38 89.04 60.4 89.1 60.44C89.31 60.52 89.45 60.64 89.57 60.77C89.68 60.9 89.7 61.01 89.68 61.1C89.65 61.19 89.49 61.25 89.22 61.2C89.02 61.2 88.92 61.22 88.86 61.33C88.78 61.46 88.77 61.58 88.8 61.76C88.82 61.95 88.85 62.13 88.89 62.34L88.96 62.66L89.1 63.52C89.16 64.24 89.3 64.95 89.51 65.73C89.59 66 89.62 66.26 89.59 66.48C89.58 66.6 89.57 66.72 89.58 66.88C89.59 67.03 89.63 67.24 89.69 67.48C89.78 67.91 89.8 68.29 89.79 68.53C89.77 68.7 89.78 68.93 89.81 69.11C89.82 69.34 89.91 69.64 90.04 70C90.27 70.66 90.43 71.28 90.54 71.89ZM97.82 44.16L98.07 46.58L98.08 46.18Q98.1 44.99 98.06 44.3C98.05 44.03 97.99 43.71 97.81 43.34C97.36 41.94 97.1 40.67 97.05 39.55C97.06 39.51 97.05 39.48 97 39.39C96.94 39.3 96.86 39.15 96.77 38.93L96.59 38.56C96.46 38.32 96.24 38.09 96.05 37.88C95.85 37.68 95.67 37.43 95.51 37.17L95.16 36.54C94.88 36.07 94.55 35.91 94.13 36.07L93.85 36.19L93.72 36.31L93.82 36.49C93.91 36.63 94.06 36.7 94.32 36.67C94.46 36.71 94.58 36.72 94.72 36.75C94.82 36.78 94.93 36.83 95 36.95L95.07 37.15L95.3 37.61C95.43 37.84 95.71 38.12 96.16 38.49L96.25 38.64C96.37 38.85 96.46 39.07 96.49 39.4C96.54 39.69 96.62 40.04 96.8 40.41C96.95 40.68 96.99 40.89 96.94 41.08C96.92 41.52 97.05 42 97.35 42.54Q97.69 43.11 97.82 44.16ZM144.97 25.27L145 25.25C145.08 25.13 145.25 24.4 145.43 23.07C145.6 21.99 145.71 21.01 145.77 20.11C145.78 19.63 145.8 18.99 145.86 18.2C146.07 14.81 146.21 12.99 146.25 12.8C146.31 12.62 146.3 12.47 146.21 12.32C146.18 12.26 146.16 11.2 146.19 9.13C146.22 9.12 146.22 9.12 146.2 9.09L146.22 8.57C146.21 7.94 146.14 7.54 146.04 7.37C146.02 7.34 145.97 7.32 145.91 7.36C145.65 7.51 145.39 8.09 145.12 9.12C144.74 11.47 144.51 13.26 144.44 14.52C144.27 17.7 144.23 19.34 144.35 19.55C144.38 19.61 144.38 19.88 144.32 20.39Q144.14 21.92 144.24 22.1L144.29 22.19C144.36 22.31 144.44 22.58 144.45 23C144.5 23.57 144.58 23.92 144.68 24.09C144.77 24.24 144.78 24.39 144.7 24.6Q144.67 24.97 144.78 25.14Q144.86 25.29 144.93 25.28Q144.95 25.28 144.97 25.27ZM148.15 6.58C148.18 6.84 148.23 7 148.29 7.09C148.33 7.03 148.35 6.94 148.34 6.78C148.33 6.63 148.33 6.48 148.24 6.33L148.13 6.28L148.15 6.31L148.12 6.4C148.11 6.45 148.11 6.52 148.15 6.58ZM146.46 35.03C146.49 35.09 146.54 35.1 146.57 35.08C146.66 35.03 146.84 34.05 147.16 32.14C147.43 30.63 147.63 29.81 147.79 29.68C147.93 29.52 147.99 29.41 147.94 29.32C147.83 29.14 147.85 28.62 148.01 27.74C148.12 26.84 148.25 26.37 148.4 26.29C148.48 26.16 148.51 26.07 148.45 25.98C148.4 25.89 148.44 25.28 148.6 24.12C149.02 21.35 149.19 19.6 149.17 18.82C149.14 18.48 149.25 18.26 149.45 18.14L149.78 17.95L149.76 17.92C149.75 17.89 149.68 17.85 149.54 17.81C149.42 17.81 149.36 17.76 149.3 17.67C149.29 17.65 149.29 17.65 149.32 17.63C149.4 17.5 149.4 17.3 149.34 16.98C149.29 16.7 149.34 16.51 149.46 16.44L149.58 16.37C149.61 16.36 149.64 16.34 149.6 16.28L149.37 16.02C149.3 15.9 149.35 15.08 149.47 13.59C149.56 13.26 149.53 12.81 149.42 12.2C149.34 11.58 149.33 11.23 149.45 11.16C149.51 10.92 149.54 10.63 149.52 10.25C149.47 9.49 149.34 8.85 149.11 8.31C149.08 8.26 149.08 8.13 149.14 7.9C149.21 7.67 149.23 7.5 149.16 7.38C149.13 7.32 149 7.23 148.86 7.2L148.78 7.2C148.63 7.29 148.65 7.59 148.73 8.14L148.82 9.86C148.84 10.72 148.79 11.18 148.7 11.23C148.63 11.31 148.64 11.39 148.7 11.51L148.74 11.57C148.77 11.63 148.8 11.89 148.78 12.33C148.76 12.78 148.76 13.17 148.79 13.51C148.8 13.86 148.77 14.63 148.67 15.83C148.58 17.03 148.55 17.67 148.62 17.79C148.64 17.9 148.65 18.33 148.58 19.08C148.45 20.85 148.17 22.83 147.81 25.01C147.35 27.68 147.03 29.6 146.86 30.81Q146.48 33.33 146.38 33.45C146.31 33.54 146.28 33.71 146.28 33.9C146.28 34.46 146.34 34.82 146.46 35.03ZM35.28 74.07C35.74 73.97 36.14 73.85 36.53 73.63C36.73 73.51 36.88 73.35 36.99 73.2C37.03 73.14 37.03 73.14 37.02 73.11C36.95 72.99 36.66 73.04 36.13 73.15C35.38 73.35 34.85 73.53 34.62 73.67C34.44 73.77 34.41 73.86 34.46 73.95C34.58 74.08 34.86 74.16 35.28 74.07ZM87.38 47.27C87.38 47.55 87.41 47.88 87.48 48.2C87.51 48.38 87.53 48.56 87.54 48.72C87.55 48.87 87.53 49.04 87.51 49.21C87.46 49.39 87.44 49.64 87.44 49.92C87.42 50.09 87.41 50.41 87.45 50.82C87.46 51.25 87.47 51.68 87.52 52.16C87.54 52.74 87.58 53.23 87.58 53.71C87.61 54.16 87.63 54.47 87.59 54.61C87.58 54.73 87.61 54.91 87.65 55.2C87.7 55.49 87.8 55.79 87.86 56.11C87.97 56.44 88.05 56.71 88.11 56.95C88.2 57.18 88.22 57.28 88.22 57.28C88.22 57.28 88.2 56.98 88.16 56.41C88.12 55.8 88.08 55.12 88.02 54.32C87.98 53.51 87.91 52.77 87.88 52.03C87.84 51.35 87.8 50.81 87.83 50.52C87.84 50.32 87.83 50.17 87.83 50.05C87.84 49.92 87.87 49.83 87.88 49.78C87.89 49.74 87.91 49.69 87.93 49.67L87.97 49.53C87.98 49.49 88.01 49.39 88.02 49.27C88.03 49.15 88.03 48.95 88.03 48.75C88.05 48.58 88.06 48.38 88.06 48.18C88.06 47.98 88.05 47.83 88.06 47.7C88.07 47.58 88.08 47.54 88.08 47.54C88.08 47.54 88.05 47.48 88.04 47.4C88.04 47.32 88.05 47.2 88.05 47.08C88.05 46.92 88.05 46.8 88.09 46.66C88.13 46.52 88.17 46.38 88.25 46.25C88.36 46.11 88.43 45.88 88.47 45.61L88.56 44.73C88.58 44.57 88.6 44.4 88.59 44.24C88.6 44.2 88.58 44.17 88.58 44.09C88.56 44.06 88.53 44 88.54 43.95C88.52 43.93 88.58 43.89 88.64 43.86C88.8 43.85 88.88 43.8 88.88 43.72C88.87 43.64 88.82 43.56 88.74 43.48C88.66 43.41 88.56 43.31 88.42 43.27C88.35 43.28 88.25 43.25 88.18 43.26C88.1 43.26 88.03 43.27 87.97 43.3C87.89 43.3 87.83 43.34 87.78 43.33L87.69 43.38L87.88 44.18C87.88 44.18 87.9 44.28 87.91 44.44C87.97 44.6 87.96 44.8 88.01 45.01C88.02 45.24 88.05 45.42 88.03 45.59C88.04 45.75 88 45.89 87.94 46C87.86 46.12 87.81 46.23 87.73 46.32C87.63 46.41 87.56 46.49 87.54 46.59C87.45 46.72 87.41 46.98 87.38 47.27ZM28.13 79.46C27.86 79.94 27.48 80.31 27.08 80.58L26.96 80.65C26.61 80.86 26.32 80.9 26.17 80.71C26.01 80.49 25.99 80.26 26.14 79.98C26.46 79.44 27.18 78.83 28.27 78.2C29.07 77.74 29.63 77.69 29.9 78.09C30.05 78.28 30 78.46 29.74 78.62C29.65 78.67 29.48 78.72 29.28 78.72C29.07 78.76 28.88 78.84 28.64 78.97C28.45 79.12 28.26 79.27 28.13 79.46ZM10.99 92.63C11.09 92.74 11.24 92.73 11.48 92.59Q11.84 92.39 12.35 91.85C12.94 91.23 13.68 90.45 14.57 89.54C15.02 89.09 15.49 88.74 15.99 88.45C16.23 88.31 16.43 88.24 16.56 88.2C16.68 88.2 16.77 88.15 16.86 88.1Q16.95 88.05 16.98 87.98Q17.04 87.86 16.97 87.68Q16.95 87.63 16.95 87.57Q16.96 87.34 17.35 87.11L18.13 86.74C18.39 86.59 18.48 86.46 18.36 86.33C18.29 86.21 18.57 85.93 19.24 85.46C19.93 85.07 20.36 84.74 20.52 84.45C20.67 84.17 20.91 83.91 21.28 83.66C21.65 83.4 21.74 83.15 21.62 82.95C21.36 82.7 21.01 82.71 20.54 82.98Q20.09 83.24 19.8 83.76C19.61 84.11 19.33 84.39 19.01 84.57L18.58 84.78C18.16 85.02 17.71 85.4 17.27 85.93C16.81 86.51 16.42 86.86 16.06 87.06L15.97 87.11Q15.26 87.52 12.76 90.16C11.42 91.6 10.83 92.42 10.99 92.63ZM95.13 54.28L95.18 54.37C95.34 54.16 95.53 53.18 95.7 51.43C95.88 49.7 95.96 48.39 95.98 47.55C95.7 44.12 95.15 42 94.29 41.19C94.27 41.16 94.25 41.13 94.22 41.15C94.13 41.2 94.1 41.89 94.13 43.18C94.24 44.06 94.27 45.07 94.27 46.21C94.46 50.92 94.74 53.6 95.13 54.28ZM142 16.18Q142.03 16.19 142.08 16.16C142.17 16.11 142.19 16.02 142.12 15.9C142.07 15.81 142.01 15.77 141.98 15.79C141.95 15.8 141.97 15.83 141.95 15.88L141.92 16.02C141.9 16.07 141.92 16.1 141.94 16.13Q141.96 16.17 142 16.18ZM141.97 20.56C142.01 20.62 142.05 20.64 142.08 20.62C142.11 20.6 142.17 20.49 142.19 20.32C142.21 20.15 142.26 19.69 142.29 18.92C142.32 18.16 142.33 17.76 142.29 17.7C142.27 17.67 142.25 17.56 142.21 17.43C142.17 17.29 142.12 17.13 142.12 16.93Q142.06 16.61 142.01 16.52C141.99 16.49 141.99 16.49 141.96 16.51C141.87 16.56 141.83 17.17 141.85 18.43C141.84 19.65 141.9 20.37 141.97 20.56ZM42.34 76.66C42.24 77.04 42.08 77.29 41.81 77.45C41.66 77.53 41.56 77.55 41.52 77.5Q41.37 77.34 41.95 76.18L42.12 75.93C42.24 75.86 42.31 75.86 42.36 75.94C42.46 76.05 42.44 76.29 42.34 76.66ZM142.24 24.16C142.25 24.19 142.25 24.19 142.28 24.18C142.34 24.14 142.38 24 142.37 23.77C142.38 22.7 142.32 22.06 142.22 21.88L142.2 21.85C142.17 21.87 142.15 22.04 142.13 22.41C142.1 23.38 142.12 23.96 142.24 24.16ZM96.25 56.28C95.84 57.15 95.71 57.74 95.84 58.1C95.96 58.03 96.24 57.35 96.72 56.01C97.22 54.69 97.47 53.88 97.5 53.66C97.57 53.03 97.62 52.57 97.6 52.34C97.6 52.19 97.63 52.05 97.69 51.94Q97.71 51.89 97.72 51.85Q97.75 51.72 97.71 51.57C97.59 51.01 97.61 50.64 97.74 50.45C97.78 50.18 97.74 49.97 97.65 49.82C97.62 49.76 97.6 49.74 97.57 49.75C97.54 49.77 97.49 49.88 97.44 50.07C97.38 50.38 97.36 50.55 97.33 50.56L97.29 50.7C97.3 50.78 97.27 50.87 97.25 50.97C97.22 51.06 97.21 51.18 97.21 51.31C97.19 51.48 97.16 51.65 97.11 51.83L97.15 52.72C97.14 52.76 97.14 52.84 97.15 52.92C97.15 52.99 97.13 53.09 97.13 53.16L97.2 53.48C97.27 53.87 97.24 54.24 97.17 54.52C97.14 54.54 97.14 54.54 97.16 54.57C96.89 55 96.63 55.43 96.42 55.9L96.25 56.28ZM143.32 24.6C143.35 24.66 143.4 24.68 143.43 24.66C143.46 24.64 143.47 24.59 143.51 24.53C143.53 24.48 143.57 24.42 143.55 24.31C143.52 24.21 143.47 24.12 143.42 24.03C143.3 23.82 143.2 23.72 143.12 23.77C143.03 23.82 143.03 23.9 143.1 24.02C143.17 24.14 143.22 24.3 143.28 24.47L143.32 24.6ZM142.7 26.74L142.73 26.72C142.75 26.7 142.78 26.53 142.77 26.18C142.81 25.84 142.72 25.42 142.6 24.94C142.53 24.74 142.46 24.62 142.46 24.55C142.42 24.49 142.42 24.41 142.4 24.38L142.36 24.37C142.24 25.46 142.28 26.23 142.5 26.61C142.6 26.71 142.64 26.77 142.7 26.74ZM143.48 25.5L143.57 25.45C143.72 25.36 143.74 25.27 143.67 25.15C143.62 25.06 143.52 25.08 143.37 25.17C143.22 25.25 143.17 25.36 143.23 25.48C143.34 25.54 143.39 25.55 143.48 25.5ZM88.14 58.99C88.18 59.12 88.26 59.19 88.4 59.23C88.47 59.15 88.53 59.04 88.54 58.92C88.54 58.79 88.55 58.67 88.51 58.53C88.47 58.4 88.45 58.29 88.4 58.2C88.35 58.12 88.32 58.06 88.29 58.07C88.26 58.17 88.19 58.32 88.17 58.49C88.12 58.68 88.13 58.83 88.14 58.99ZM143.46 26.49C143.32 26.58 143.31 26.78 143.48 27.07C143.55 27.19 143.6 27.21 143.63 27.19C143.66 27.17 143.67 27.12 143.65 27.02C143.63 26.91 143.65 26.82 143.63 26.71C143.61 26.61 143.57 26.55 143.56 26.52C143.54 26.49 143.49 26.48 143.46 26.49ZM142.92 28.23L142.98 28.19C143.14 28.06 143.17 27.97 143.12 27.88Q143.06 27.78 142.98 27.75Q142.84 27.68 142.61 27.82C142.46 27.9 142.42 28.04 142.51 28.19C142.62 28.32 142.75 28.33 142.92 28.23ZM143.34 31.34C143.39 31.43 143.44 31.44 143.5 31.41C143.59 31.36 143.56 31.25 143.48 31.1C143.39 30.95 143.31 30.88 143.25 30.92C143.22 30.93 143.24 30.96 143.23 31.01C143.23 31.09 143.27 31.15 143.27 31.22L143.34 31.34ZM81.04 69.72C80.96 69.72 80.88 69.73 80.8 69.78C80.71 69.83 80.64 69.91 80.59 69.97C80.55 70.04 80.56 70.11 80.59 70.17C80.62 70.23 80.67 70.25 80.76 70.27C80.84 70.27 80.95 70.24 81.04 70.19C81.12 70.14 81.17 70.08 81.21 70.01C81.23 69.92 81.25 69.87 81.21 69.81C81.18 69.76 81.11 69.71 81.04 69.72ZM79.6 76.11C79.55 76.3 79.52 76.52 79.52 76.79C79.53 77.22 79.55 77.6 79.62 77.92C79.66 78.21 79.69 78.47 79.69 78.66C79.68 78.79 79.71 79.05 79.81 79.42C79.94 79.78 80.1 80.2 80.34 80.62C80.55 80.97 80.77 81.28 80.95 81.53C81.18 81.79 81.33 81.98 81.44 82.11Q81.58 82.22 81.6 82.21Q81.61 82.2 81.58 82.15C81.58 82.07 81.48 81.9 81.33 81.71Q80.98 81.2 80.56 80.37C80.29 79.78 80.12 79.21 80.06 78.61C79.96 78.04 79.97 77.64 80 77.42C80.05 77.23 80.1 77.05 80.09 76.9C80.1 76.77 80.11 76.65 80.1 76.5C80.08 76.39 80.1 76.22 80.09 76.07C80.12 75.85 80.11 75.62 80.06 75.41C80.05 75.18 80.02 75 80 74.82L79.98 74.59C79.98 74.59 79.98 74.51 79.99 74.39C79.99 74.27 80 74.14 80.05 73.96C80.09 73.82 80.19 73.64 80.25 73.49C80.37 73.34 80.43 73.11 80.46 72.82C80.49 72.52 80.48 72.25 80.5 71.92C80.5 71.53 80.53 71.23 80.56 70.94C80.57 70.89 80.56 70.86 80.54 70.83C80.47 70.79 80.46 70.76 80.42 70.7C80.38 70.69 80.36 70.66 80.3 70.62L80.28 70.59C80.23 70.5 80.16 70.46 80.1 70.42C80.08 70.39 80.02 70.42 79.99 70.56Q79.86 70.75 79.99 71.39C79.99 71.39 79.95 71.45 79.96 71.6C79.97 71.76 79.97 71.91 79.97 72.11C79.97 72.31 79.95 72.48 79.97 72.66C79.97 72.86 79.93 73 79.88 73.11Q79.82 73.32 79.71 73.44C79.67 73.51 79.66 73.55 79.62 73.62C79.55 73.77 79.51 74.04 79.49 74.36C79.5 74.71 79.52 75.02 79.58 75.33C79.61 75.52 79.65 75.65 79.64 75.77C79.63 75.9 79.62 76.02 79.6 76.11ZM81.17 78.76C81.34 80.16 81.71 81.13 82.2 81.64C82.45 81.81 82.66 81.89 82.83 81.78C83.03 81.71 83.21 81.61 83.39 81.38C84.17 80.82 84.7 79.76 84.98 78.18C85.22 76.62 85.31 75.07 85.22 73.54C85.13 72.01 84.91 71.03 84.66 70.59C84.21 70.22 83.65 70.07 82.9 70.14C82.2 70.23 81.7 70.6 81.39 71.29Q81.08 72.3 80.99 74.48C80.92 75.94 80.99 77.36 81.17 78.76ZM33.47 99.16C33.58 99.29 33.53 99.4 33.35 99.5C33.14 99.62 32.97 99.6 32.82 99.41L32.77 99.32C32.76 99.09 32.79 98.95 32.94 98.87C33.11 98.81 33.3 98.94 33.47 99.16ZM49.68 92.72C49.76 92.86 49.92 92.86 50.14 92.77C50.92 92.4 51.62 91.56 52.28 90.31C52.78 89.27 52.87 88.54 52.62 88.1C52.48 87.86 52.22 87.82 51.89 88.01C51.24 88.31 50.67 89.03 50.2 90.13Q49.69 91.31 49.63 92.23C49.6 92.45 49.63 92.63 49.68 92.72ZM64.89 83.93C64.98 84.08 65.13 84.07 65.36 83.98C66.13 83.61 66.83 82.78 67.49 81.53C67.99 80.48 68.09 79.76 67.83 79.32C67.69 79.08 67.43 79.03 67.11 79.22C66.45 79.52 65.88 80.24 65.41 81.34Q64.91 82.52 64.85 83.45C64.82 83.66 64.84 83.84 64.89 83.93ZM32.42 100.43C32.32 100.53 32.25 100.61 32.19 100.64L32.1 100.69C31.74 100.82 31.56 100.85 31.46 100.75C31.41 100.66 31.42 100.54 31.55 100.34C31.67 100.15 31.83 100.02 32.02 99.87C32.23 99.75 32.41 99.73 32.52 99.78L32.57 99.79C32.6 99.85 32.61 99.93 32.57 100.07C32.56 100.19 32.51 100.3 32.42 100.43ZM29.39 101.87C29.59 102.15 29.76 102.24 29.97 102.2C30.09 102.13 30.1 102.01 29.98 101.8C29.9 101.73 29.82 101.66 29.71 101.6C29.6 101.55 29.52 101.55 29.4 101.62C29.31 101.67 29.29 101.77 29.39 101.87ZM163.62 24.49C163.63 24.52 163.65 24.55 163.68 24.53L163.66 24.42C163.67 24.38 163.62 24.29 163.57 24.2C163.56 24.32 163.58 24.43 163.62 24.49ZM121.65 57.56C121.91 58 122.08 58.22 122.16 58.17C122.28 58.1 122.13 57.63 121.74 56.68C121.48 55.96 121.33 55.02 121.25 53.84C121.15 52.17 121.19 50.88 121.34 49.96C121.39 49.58 121.42 49.36 121.37 49.27C121.34 49.21 121.23 49.16 121.12 49.1L120.88 49.04L120.66 49.76C120.66 49.96 120.66 50.16 120.72 50.4C120.78 50.64 120.84 50.88 120.87 51.06C120.85 51.39 120.83 51.68 120.78 51.87C120.75 52.16 120.77 52.46 120.8 52.72C120.83 52.98 120.82 53.18 120.78 53.24C120.66 53.59 120.63 54 120.71 54.55C120.77 54.87 120.75 55.04 120.69 55.07C120.46 55.28 120.44 55.53 120.62 55.83C120.67 55.92 120.74 56.03 120.85 56.16C120.97 56.3 121.07 56.47 121.19 56.68L121.65 57.56ZM116 63.9L116.24 63.76C116.37 63.65 116.5 63.26 116.65 62.5C116.91 61.24 117.03 59.79 117.05 58.2L117.08 57.83C117.17 57.18 117.1 55.88 116.86 53.97C116.72 52.98 116.62 52.45 116.56 52.36C116.48 52.22 116.36 52.21 116.15 52.33C115.82 52.52 115.51 52.86 115.16 53.41C114.81 53.97 114.54 54.68 114.33 55.47C114.05 56.7 113.93 57.99 114.04 59.35C114.18 60.88 114.53 62.18 115.12 63.19C115.47 63.81 115.76 64.03 116 63.9ZM113.11 60.32C113.14 60.38 113.19 60.39 113.23 60.4C113.32 60.28 113.33 60.03 113.29 59.62C113.24 59.26 113.27 58.14 113.34 56.36C113.4 55.49 113.42 55.05 113.38 54.99L113.35 55.01C113.02 55.32 112.83 56.29 112.85 57.9C112.87 59.23 112.94 60.02 113.11 60.32ZM98.8 65.82C98.74 66.2 98.74 66.4 98.77 66.46C98.86 66.41 99 65.97 99.21 65.1C99.33 64.56 99.37 64.22 99.35 64.12C99.1 64.58 98.92 65.15 98.8 65.82ZM23.74 109.51C23.38 109.92 23.03 110.2 22.78 110.38L22.69 110.43C22.51 110.53 22.4 110.56 22.35 110.47C22.27 110.4 22.35 110.19 22.6 109.93L23.34 109.31L23.8 109C23.97 108.9 24.08 108.88 24.1 108.91C24.13 108.97 24.01 109.16 23.74 109.51ZM163.92 28.85C163.96 28.91 163.98 28.94 164.02 28.95C164.05 28.93 164.08 28.84 164.12 28.7C164.15 28.56 164.14 28.41 164.06 28.26C164.04 28.23 163.98 28.19 163.96 28.16C163.91 28.15 163.91 28.15 163.88 28.16C163.79 28.21 163.77 28.38 163.83 28.62L163.92 28.85ZM147.39 48.06C147.47 48.14 147.57 48.16 147.6 48.14C147.65 48.11 147.67 47.86 147.66 47.44C147.62 47.22 147.59 47.04 147.7 46.9L147.63 46.63L147.54 46.48C147.49 46.39 147.44 46.3 147.43 46.22C147.41 46.12 147.38 46.06 147.36 45.95C147.33 45.69 147.28 45.48 147.2 45.33C147.09 45 147.05 44.75 147.15 44.57C147.13 44.54 147.16 44.52 147.19 44.51C147.22 44.49 147.19 44.43 147.14 44.34L146.94 44.06C146.82 43.86 146.73 43.63 146.68 43.42L146.68 43.34C146.64 43.21 146.6 43.07 146.58 42.89C146.51 42.57 146.45 42.26 146.34 42Q146.31 41.96 146.3 41.32C146.26 40.9 146.17 40.56 146 40.26C145.88 40.05 145.79 39.95 145.76 39.97C145.7 40 145.63 40.16 145.57 40.39C145.52 40.66 145.55 40.84 145.63 40.99C145.67 41.05 145.77 41.42 145.9 42.14L146.13 43.42C146.36 44.63 146.54 45.36 146.69 45.62C146.85 45.97 146.96 46.42 147.05 46.92C147.16 47.45 147.25 47.83 147.39 48.06ZM98.53 69.25L98.56 69.31C98.56 69.31 98.6 69.25 98.6 69.17Q98.66 69.07 98.71 68.75Q98.74 68.49 98.72 68.15L98.7 67.85L98.67 67.86C98.67 67.86 98.64 67.88 98.63 67.93C98.62 67.97 98.59 68.07 98.59 68.19C98.58 68.31 98.55 68.41 98.53 68.5C98.52 68.62 98.51 68.67 98.53 68.7C98.51 69.02 98.51 69.22 98.53 69.25ZM51.79 96.23Q51.55 96.55 50.95 96.84C50.77 96.94 50.7 96.94 50.68 96.91C50.65 96.85 50.62 96.75 50.69 96.59C50.78 96.46 50.81 96.32 50.92 96.23C51.16 96.04 51.37 95.92 51.52 95.84C51.74 95.75 51.88 95.71 51.95 95.83C51.98 95.89 51.94 96.03 51.79 96.23ZM67 87.45Q66.77 87.76 66.17 88.05C65.99 88.15 65.91 88.16 65.9 88.13C65.86 88.07 65.84 87.96 65.91 87.81C65.99 87.68 66.03 87.54 66.13 87.44C66.38 87.26 66.59 87.14 66.73 87.05C66.96 86.96 67.09 86.92 67.16 87.04C67.2 87.1 67.16 87.24 67 87.45ZM32.29 112.23C32.28 112.28 32.28 112.35 32.32 112.41C32.32 112.37 32.33 112.33 32.33 112.3C32.37 112.49 32.41 112.7 32.45 112.92C32.61 114.02 32.68 114.61 32.55 114.72C32.39 114.58 32.25 114.42 32.14 114.29C32.02 114.08 31.9 113.88 31.81 113.65C31.8 113.57 31.86 113.54 31.89 113.52C31.92 113.51 31.92 113.51 31.97 113.52L31.92 113.15C31.7 112.85 31.54 112.15 31.44 111.02Q31.42 110.87 31.41 110.74C31.41 110.76 31.42 110.78 31.42 110.8C31.58 111.34 31.75 111.71 31.94 111.96C32.02 112.11 32.1 112.18 32.13 112.16C32.22 112.11 32.25 112.02 32.19 111.85C32.24 111.88 32.24 111.91 32.25 111.94C32.25 111.95 32.25 111.96 32.26 111.97C32.25 112.02 32.28 112.08 32.27 112.12C32.29 112.15 32.27 112.2 32.29 112.23ZM31.47 110.21Q31.39 110.35 31.41 110.74C31.34 110.43 31.32 110.26 31.36 110.2C31.38 110.19 31.42 110.19 31.47 110.21ZM31.89 110.71C31.83 110.58 31.75 110.46 31.67 110.34C31.59 110.27 31.52 110.23 31.47 110.21Q31.49 110.17 31.52 110.15C31.55 110.13 31.57 110.16 31.65 110.23C31.73 110.35 31.81 110.51 31.89 110.71ZM32.2 111.69C32.1 111.3 32 110.97 31.89 110.71C32.05 111.02 32.16 111.36 32.2 111.69ZM32.2 111.69C32.2 111.71 32.2 111.72 32.21 111.74C32.2 111.74 32.2 111.73 32.2 111.73C32.2 111.72 32.2 111.71 32.2 111.69ZM32.21 111.74C32.33 111.9 32.35 112.08 32.33 112.3C32.29 112.1 32.25 111.91 32.21 111.74ZM122.65 59.15L123.09 59.37C123.18 59.32 123.14 59.18 123.02 58.97Q122.87 58.7 122.65 58.65Q122.62 58.64 122.59 58.63L122.53 58.67C122.44 58.72 122.43 58.77 122.48 58.85L122.65 59.15ZM164.82 36.34C164.77 37.36 164.65 37.9 164.5 37.99C164.42 38.04 164.35 38 164.3 37.91C164.2 37.73 164.2 37.25 164.29 36.53L164.37 35.7C164.42 35.11 164.48 34.8 164.57 34.75C164.57 34.75 164.6 34.73 164.65 34.75C164.68 34.73 164.69 34.76 164.71 34.79C164.81 34.97 164.84 35.5 164.82 36.34ZM87.17 80.54C87.14 80.64 87.13 80.68 87.1 80.7C86.93 81.08 86.74 81.58 86.54 82.25C86.31 82.89 86.19 83.44 86.14 83.82Q86.62 83.72 87 82.85C87.26 82.27 87.47 81.67 87.6 81.16C87.68 80.88 87.75 80.72 87.78 80.58C87.8 80.54 87.83 80.52 87.81 80.49C87.86 80.38 87.93 80.22 87.98 80.04C88.03 79.85 88.08 79.66 88.07 79.51C88.09 79.34 88.07 79.23 87.96 79.18C87.88 79.18 87.81 79.26 87.72 79.44C87.62 79.61 87.52 79.79 87.41 80.01C87.3 80.23 87.24 80.39 87.17 80.54ZM138.82 55.22C138.83 55.25 138.91 55.25 139.12 55.21Q139.79 54.52 140.97 52.25C141.87 50.54 142.23 49.51 142.05 49.21Q142 49.12 141.93 49.1Q141.86 49.08 141.77 49.14C141.63 49.22 141.43 49.57 141.21 50.13L140.62 51.66Q139.79 53.8 139.14 54.41C139.08 54.44 139.08 54.52 139.09 54.67C139.13 54.81 139.06 54.96 138.9 55.1C138.83 55.18 138.8 55.19 138.82 55.22ZM164.37 39.25Q164.09 40 163.91 40.1C163.85 40.14 163.81 40.13 163.75 40.04C163.63 39.83 163.63 39.48 163.77 38.96Q163.9 38.18 164.17 38.02C164.32 37.94 164.43 37.99 164.5 38.11C164.6 38.29 164.55 38.67 164.37 39.25ZM33.13 118.61L33.09 118.75C33.07 118.77 33.05 118.74 33.03 118.71C32.92 118.58 32.81 118.12 32.64 117.35C32.41 116.46 32.35 115.75 32.45 115.17L32.57 115.18C32.66 115.33 32.77 115.58 32.83 115.9C32.9 116.22 32.95 116.58 33.02 116.98C33.09 117.37 33.12 117.71 33.11 118.03C33.13 118.33 33.13 118.53 33.13 118.61ZM127.14 61.65Q127.32 61.66 127.54 61.54C127.56 61.49 127.6 61.43 127.58 61.32C127.46 61.11 127.29 61.09 127.08 61.21C126.97 61.36 126.89 61.44 126.93 61.5L126.96 61.56C126.98 61.59 127.04 61.63 127.14 61.65Z" fill="#535353" fill-opacity="1.000000" fill-rule="evenodd"/>
</svg>
