<svg width="21.000000" height="22.000000" viewBox="0 0 21 22" fill="none" xmlns="http://www.w3.org/2000/svg" xmlns:xlink="http://www.w3.org/1999/xlink">
	<desc>
			Created with Pixso.
	</desc>
	<defs/>
	<path id="Vector" d="M20.45 6.6C19.73 5.88 18.56 5.88 17.84 6.6C17.62 6.83 16.21 8.24 15.99 8.46L15.99 3.58C15.99 3.09 15.8 2.62 15.45 2.28L13.71 0.54C13.36 0.19 12.9 0 12.41 0L1.84 0C0.82 0 0 0.82 0 1.84L0 19.15C0 20.17 0.82 21 1.84 21L14.15 21C15.16 21 15.99 20.17 15.99 19.15L15.99 13.68L20.45 9.21C21.18 8.49 21.18 7.33 20.45 6.6ZM12.3 1.23C12.42 1.23 12.64 1.21 12.84 1.41L14.58 3.15C14.78 3.34 14.76 3.56 14.76 3.69L12.3 3.69L12.3 1.23ZM14.76 19.15C14.76 19.49 14.49 19.77 14.15 19.77L1.84 19.77C1.5 19.77 1.23 19.49 1.23 19.15L1.23 1.84C1.23 1.5 1.5 1.23 1.84 1.23L11.07 1.23L11.07 4.3C11.07 4.64 11.35 4.92 11.69 4.92L14.76 4.92L14.76 9.69C14.76 9.69 12.95 11.51 12.95 11.51L12.08 12.38C12.01 12.44 11.96 12.53 11.93 12.62L11.06 15.23C10.98 15.45 11.04 15.69 11.21 15.86C11.37 16.02 11.62 16.08 11.84 16L14.45 15.13C14.54 15.1 14.62 15.05 14.69 14.99L14.76 14.91L14.76 19.15ZM13.38 12.81L14.25 13.68L13.92 14.01L12.61 14.45L13.05 13.14L13.38 12.81ZM15.12 12.81L14.25 11.94C14.72 11.48 16.77 9.42 17.21 8.98L18.08 9.85L15.12 12.81ZM19.58 8.34L18.95 8.98L18.08 8.11L18.71 7.47C18.95 7.23 19.34 7.23 19.58 7.47C19.82 7.71 19.83 8.1 19.58 8.34Z" fill="#FFFFFF" fill-opacity="1.000000" fill-rule="nonzero"/>
	<path id="Vector" d="M11.69 6.15L3.07 6.15C2.73 6.15 2.46 6.42 2.46 6.76C2.46 7.1 2.73 7.38 3.07 7.38L11.69 7.38C12.03 7.38 12.3 7.1 12.3 6.76C12.3 6.42 12.03 6.15 11.69 6.15Z" fill="#FFFFFF" fill-opacity="1.000000" fill-rule="nonzero"/>
	<path id="Vector" d="M9.22 8.61L3.07 8.61C2.73 8.61 2.46 8.88 2.46 9.22C2.46 9.56 2.73 9.84 3.07 9.84L9.22 9.84C9.56 9.84 9.84 9.56 9.84 9.22C9.84 8.88 9.56 8.61 9.22 8.61Z" fill="#FFFFFF" fill-opacity="1.000000" fill-rule="nonzero"/>
	<path id="Vector" d="M9.22 11.07L3.07 11.07C2.73 11.07 2.46 11.35 2.46 11.69C2.46 12.03 2.73 12.3 3.07 12.3L9.22 12.3C9.56 12.3 9.84 12.03 9.84 11.69C9.84 11.35 9.56 11.07 9.22 11.07Z" fill="#FFFFFF" fill-opacity="1.000000" fill-rule="nonzero"/>
	<path id="Vector" d="M9.22 13.53L3.07 13.53C2.73 13.53 2.46 13.81 2.46 14.15C2.46 14.49 2.73 14.76 3.07 14.76L9.22 14.76C9.56 14.76 9.84 14.49 9.84 14.15C9.84 13.81 9.56 13.53 9.22 13.53Z" fill="#FFFFFF" fill-opacity="1.000000" fill-rule="nonzero"/>
	<path id="Vector" d="M11.69 17.3L7.99 17.3C7.65 17.3 7.38 17.58 7.38 17.92C7.38 18.26 7.65 18.54 7.99 18.54L11.69 18.54C12.03 18.54 12.3 18.26 12.3 17.92C12.3 17.58 12.03 17.3 11.69 17.3Z" fill="#FFFFFF" fill-opacity="1.000000" fill-rule="nonzero"/>
</svg>
