<svg width="22.000000" height="21.000000" viewBox="0 0 22 21" fill="none" xmlns="http://www.w3.org/2000/svg" xmlns:xlink="http://www.w3.org/1999/xlink">
	<desc>
			Created with Pixso.
	</desc>
	<defs/>
	<path id="Vector" d="M14.19 13.5C13.68 13.5 13.27 13.14 13.27 12.71C13.27 12.27 13.68 11.92 14.19 11.92C14.69 11.92 15.1 12.27 15.1 12.71C15.1 12.94 15.29 13.12 15.51 13.12C15.74 13.12 15.93 12.94 15.93 12.71C15.93 11.95 15.36 11.31 14.6 11.13L14.6 10.92C14.6 10.69 14.42 10.5 14.19 10.5C13.96 10.5 13.77 10.69 13.77 10.92L13.77 11.13C13.01 11.31 12.44 11.95 12.44 12.71C12.44 13.6 13.23 14.33 14.19 14.33C14.69 14.33 15.1 14.68 15.1 15.12C15.1 15.55 14.69 15.91 14.19 15.91C13.68 15.91 13.27 15.55 13.27 15.12C13.27 14.89 13.09 14.7 12.86 14.7C12.63 14.7 12.44 14.89 12.44 15.12C12.44 15.88 13.01 16.52 13.77 16.69L13.77 16.87C13.77 17.1 13.96 17.29 14.19 17.29C14.42 17.29 14.6 17.1 14.6 16.87L14.6 16.69C15.36 16.52 15.93 15.88 15.93 15.12C15.93 14.23 15.15 13.5 14.19 13.5Z" fill="#FFFFFF" fill-opacity="1.000000" fill-rule="nonzero"/>
	<path id="Vector" d="M14.6 16.69C15.36 16.52 15.93 15.88 15.93 15.12C15.93 14.23 15.15 13.5 14.19 13.5C13.68 13.5 13.27 13.14 13.27 12.71C13.27 12.27 13.68 11.92 14.19 11.92C14.69 11.92 15.1 12.27 15.1 12.71C15.1 12.94 15.29 13.12 15.51 13.12C15.74 13.12 15.93 12.94 15.93 12.71C15.93 11.95 15.36 11.31 14.6 11.13L14.6 10.92C14.6 10.69 14.42 10.5 14.19 10.5C13.96 10.5 13.77 10.69 13.77 10.92L13.77 11.13C13.01 11.31 12.44 11.95 12.44 12.71C12.44 13.6 13.23 14.33 14.19 14.33C14.69 14.33 15.1 14.68 15.1 15.12C15.1 15.55 14.69 15.91 14.19 15.91C13.68 15.91 13.27 15.55 13.27 15.12C13.27 14.89 13.09 14.7 12.86 14.7C12.63 14.7 12.44 14.89 12.44 15.12C12.44 15.88 13.01 16.52 13.77 16.69L13.77 16.87C13.77 17.1 13.96 17.29 14.19 17.29C14.42 17.29 14.6 17.1 14.6 16.87L14.6 16.69ZM13.09 12.53Q13.07 12.62 13.07 12.71Q13.07 12.8 13.09 12.88Q13.11 13 13.17 13.1Q13.18 13.14 13.21 13.18Q13.29 13.31 13.41 13.42Q13.45 13.45 13.49 13.48Q13.61 13.57 13.76 13.62Q13.83 13.65 13.9 13.66Q14.04 13.7 14.19 13.7Q14.39 13.7 14.58 13.74Q14.69 13.77 14.79 13.81Q14.97 13.88 15.13 13.99Q15.21 14.05 15.28 14.12Q15.44 14.26 15.54 14.44Q15.58 14.5 15.61 14.57Q15.67 14.71 15.7 14.86Q15.73 14.99 15.73 15.12Q15.73 15.33 15.67 15.52Q15.59 15.77 15.4 16Q15.27 16.15 15.1 16.26Q14.86 16.43 14.56 16.5L14.4 16.53L14.4 16.87Q14.4 16.92 14.39 16.95Q14.37 16.99 14.34 17.02Q14.31 17.05 14.27 17.07Q14.23 17.09 14.19 17.09Q14.14 17.09 14.1 17.07Q14.07 17.05 14.03 17.02Q14 16.99 13.99 16.95Q13.97 16.92 13.97 16.87L13.97 16.53L13.82 16.5Q13.51 16.43 13.27 16.26Q13.11 16.15 12.97 16Q12.79 15.77 12.7 15.52Q12.64 15.33 12.64 15.12Q12.64 15.07 12.66 15.04Q12.68 15 12.71 14.97Q12.74 14.93 12.78 14.92Q12.81 14.9 12.86 14.9Q12.9 14.9 12.94 14.92Q12.98 14.93 13.01 14.97Q13.04 15 13.06 15.04Q13.07 15.07 13.07 15.12Q13.07 15.21 13.09 15.29Q13.11 15.41 13.17 15.51Q13.18 15.55 13.21 15.59Q13.29 15.72 13.41 15.83Q13.45 15.86 13.49 15.89Q13.61 15.98 13.76 16.03Q13.83 16.06 13.9 16.07Q14.04 16.11 14.19 16.11Q14.34 16.11 14.48 16.07Q14.55 16.06 14.61 16.03Q14.76 15.98 14.89 15.89Q14.93 15.86 14.96 15.83Q15.09 15.72 15.17 15.59Q15.19 15.55 15.21 15.51Q15.26 15.41 15.28 15.29Q15.3 15.21 15.3 15.12Q15.3 15.03 15.28 14.94Q15.26 14.83 15.21 14.72Q15.19 14.69 15.17 14.65Q15.09 14.52 14.96 14.41Q14.93 14.38 14.89 14.35Q14.76 14.26 14.61 14.2Q14.55 14.18 14.48 14.16Q14.34 14.13 14.19 14.13Q13.99 14.13 13.8 14.08Q13.69 14.06 13.58 14.01Q13.4 13.94 13.24 13.83Q13.16 13.77 13.09 13.71Q12.94 13.56 12.83 13.39Q12.79 13.32 12.76 13.26Q12.7 13.12 12.67 12.97Q12.64 12.84 12.64 12.71Q12.64 12.5 12.7 12.31Q12.79 12.05 12.97 11.83Q13.11 11.67 13.27 11.56Q13.51 11.4 13.82 11.33L13.97 11.29L13.97 10.92Q13.97 10.87 13.99 10.84Q14 10.8 14.03 10.77Q14.07 10.73 14.1 10.72Q14.14 10.7 14.19 10.7Q14.23 10.7 14.27 10.72Q14.31 10.73 14.34 10.77Q14.37 10.8 14.39 10.84Q14.4 10.87 14.4 10.92L14.4 11.29L14.56 11.33Q14.86 11.4 15.1 11.56Q15.27 11.67 15.4 11.83Q15.59 12.05 15.67 12.31Q15.73 12.5 15.73 12.71Q15.73 12.75 15.71 12.79Q15.7 12.83 15.67 12.86Q15.64 12.89 15.6 12.91Q15.56 12.92 15.51 12.92Q15.47 12.92 15.43 12.91Q15.39 12.89 15.36 12.86Q15.33 12.83 15.32 12.79Q15.3 12.75 15.3 12.71Q15.3 12.62 15.28 12.53Q15.26 12.42 15.21 12.31Q15.19 12.27 15.17 12.24Q15.09 12.11 14.96 12Q14.93 11.97 14.89 11.94Q14.76 11.85 14.61 11.79Q14.55 11.77 14.48 11.75Q14.34 11.72 14.19 11.72Q14.04 11.72 13.9 11.75Q13.83 11.77 13.76 11.79Q13.61 11.85 13.49 11.94Q13.45 11.97 13.41 12Q13.29 12.11 13.21 12.24Q13.18 12.27 13.17 12.31Q13.11 12.42 13.09 12.53Z" fill="#FFFFFF" fill-opacity="1.000000" fill-rule="evenodd"/>
	<path id="Vector" d="M18.73 11.03C18.19 10.18 17.43 9.51 16.52 9.07C16.32 8.98 16.07 9.06 15.97 9.27C15.87 9.48 15.96 9.72 16.16 9.82C17.74 10.58 18.75 12.2 18.75 13.94C18.75 14.69 18.57 15.43 18.22 16.08C18.11 16.28 18.19 16.53 18.39 16.64C18.46 16.68 18.52 16.69 18.59 16.69C18.74 16.69 18.88 16.61 18.95 16.47C19.37 15.7 19.58 14.82 19.58 13.94C19.58 12.9 19.29 11.9 18.73 11.03Z" fill="#FFFFFF" fill-opacity="1.000000" fill-rule="nonzero"/>
	<path id="Vector" d="M18.73 11.03C18.19 10.18 17.43 9.51 16.52 9.07C16.32 8.98 16.07 9.06 15.97 9.27C15.87 9.48 15.96 9.72 16.16 9.82C17.74 10.58 18.75 12.2 18.75 13.94C18.75 14.69 18.57 15.43 18.22 16.08C18.11 16.28 18.19 16.53 18.39 16.64C18.46 16.68 18.52 16.69 18.59 16.69C18.74 16.69 18.88 16.61 18.95 16.47C19.37 15.7 19.58 14.82 19.58 13.94C19.58 12.9 19.29 11.9 18.73 11.03ZM16.36 9.23Q16.4 9.24 16.44 9.25L16.44 9.25Q16.76 9.41 17.06 9.61Q17.36 9.81 17.63 10.05Q17.89 10.27 18.11 10.53Q18.36 10.81 18.56 11.14Q18.77 11.46 18.93 11.82Q19.08 12.14 19.18 12.48Q19.26 12.78 19.31 13.09Q19.38 13.51 19.38 13.94Q19.38 14.21 19.36 14.48Q19.32 14.84 19.23 15.2Q19.12 15.62 18.95 16.01Q18.87 16.2 18.78 16.38Q18.76 16.41 18.74 16.43Q18.72 16.45 18.7 16.46Q18.67 16.48 18.64 16.48Q18.62 16.49 18.59 16.49Q18.56 16.49 18.54 16.49Q18.51 16.48 18.49 16.47Q18.45 16.44 18.42 16.41Q18.4 16.38 18.38 16.34Q18.37 16.3 18.37 16.26Q18.38 16.21 18.4 16.17Q18.49 16.01 18.56 15.83Q18.72 15.48 18.81 15.09Q18.89 14.78 18.93 14.45Q18.95 14.2 18.95 13.94Q18.95 13.65 18.92 13.36Q18.87 12.98 18.76 12.61Q18.68 12.33 18.56 12.06Q18.42 11.72 18.22 11.4Q18.02 11.09 17.78 10.81Q17.59 10.59 17.37 10.39Q17.08 10.13 16.76 9.93Q16.51 9.77 16.25 9.64Q16.21 9.62 16.18 9.59Q16.16 9.56 16.14 9.52Q16.13 9.48 16.13 9.44Q16.13 9.4 16.15 9.36Q16.17 9.32 16.2 9.29Q16.23 9.26 16.27 9.25Q16.31 9.23 16.36 9.23Z" fill="#FFFFFF" fill-opacity="1.000000" fill-rule="evenodd"/>
	<path id="Vector" d="M14.84 8.54L14.81 8.54C14.58 8.54 14.4 8.73 14.4 8.96C14.4 9.19 14.58 9.37 14.81 9.37L14.84 9.37C14.84 9.37 14.84 9.37 14.84 9.37C15.07 9.37 15.25 9.19 15.25 8.96C15.25 8.73 15.07 8.55 14.84 8.54Z" fill="#FFFFFF" fill-opacity="1.000000" fill-rule="nonzero"/>
	<path id="Vector" d="M14.84 8.54L14.81 8.54C14.58 8.54 14.4 8.73 14.4 8.96C14.4 9.19 14.58 9.37 14.81 9.37L14.84 9.37L14.84 9.37C15.07 9.37 15.25 9.19 15.25 8.96C15.25 8.73 15.07 8.55 14.84 8.54ZM14.73 8.76Q14.77 8.74 14.81 8.74L14.81 8.74L14.84 8.74Q14.88 8.74 14.92 8.76Q14.96 8.78 14.99 8.81Q15.02 8.84 15.04 8.88Q15.05 8.92 15.05 8.96Q15.05 9 15.04 9.04Q15.02 9.08 14.99 9.11Q14.96 9.14 14.92 9.16Q14.88 9.17 14.84 9.17L14.84 9.17L14.84 9.17L14.81 9.17Q14.77 9.17 14.73 9.16Q14.69 9.14 14.66 9.11Q14.63 9.08 14.61 9.04Q14.6 9 14.6 8.96Q14.6 8.91 14.61 8.88Q14.63 8.84 14.66 8.81Q14.69 8.78 14.73 8.76Z" fill="#FFFFFF" fill-opacity="1.000000" fill-rule="evenodd"/>
	<path id="Vector" d="M12.21 18.06C10.64 17.3 9.62 15.68 9.62 13.94C9.62 13.19 9.81 12.45 10.16 11.8C10.26 11.6 10.19 11.35 9.98 11.24C9.78 11.13 9.53 11.21 9.42 11.41C9.01 12.18 8.79 13.06 8.79 13.94C8.79 14.98 9.09 15.98 9.64 16.85C10.19 17.69 10.95 18.37 11.85 18.8C11.91 18.83 11.97 18.85 12.03 18.85C12.19 18.85 12.34 18.76 12.41 18.61C12.51 18.4 12.42 18.16 12.21 18.06Z" fill="#FFFFFF" fill-opacity="1.000000" fill-rule="nonzero"/>
	<path id="Vector" d="M12.21 18.06C10.64 17.3 9.62 15.68 9.62 13.94C9.62 13.19 9.81 12.45 10.16 11.8C10.26 11.6 10.19 11.35 9.98 11.24C9.78 11.13 9.53 11.21 9.42 11.41C9.01 12.18 8.79 13.06 8.79 13.94C8.79 14.98 9.09 15.98 9.64 16.85C10.19 17.69 10.95 18.37 11.85 18.8C11.91 18.83 11.97 18.85 12.03 18.85C12.19 18.85 12.34 18.76 12.41 18.61C12.51 18.4 12.42 18.16 12.21 18.06ZM9.45 13.43Q9.42 13.68 9.42 13.94Q9.42 14.23 9.46 14.52Q9.51 14.9 9.62 15.27Q9.7 15.55 9.81 15.82Q9.96 16.16 10.16 16.48Q10.36 16.79 10.6 17.07Q10.79 17.29 11.01 17.49Q11.3 17.75 11.62 17.95Q11.86 18.11 12.13 18.24Q12.17 18.26 12.19 18.29Q12.22 18.32 12.24 18.36Q12.25 18.4 12.25 18.44Q12.25 18.48 12.23 18.52Q12.21 18.55 12.19 18.58Q12.17 18.6 12.15 18.61Q12.12 18.63 12.09 18.64Q12.06 18.65 12.03 18.65Q12.01 18.65 11.99 18.64Q11.97 18.64 11.94 18.62Q11.61 18.47 11.31 18.27Q11.02 18.07 10.75 17.83Q10.49 17.61 10.27 17.35Q10.02 17.07 9.81 16.74Q9.6 16.41 9.45 16.06Q9.3 15.74 9.2 15.4Q9.11 15.1 9.06 14.79Q8.99 14.37 8.99 13.94Q8.99 13.67 9.02 13.4Q9.06 13.04 9.15 12.68Q9.25 12.26 9.42 11.87Q9.5 11.68 9.6 11.5Q9.62 11.46 9.65 11.44Q9.68 11.41 9.73 11.4Q9.77 11.39 9.81 11.39Q9.85 11.39 9.89 11.41Q9.93 11.43 9.96 11.47Q9.98 11.5 9.99 11.54Q10.01 11.58 10 11.62Q10 11.67 9.98 11.7Q9.89 11.87 9.81 12.05Q9.66 12.4 9.56 12.79Q9.49 13.1 9.45 13.43Z" fill="#FFFFFF" fill-opacity="1.000000" fill-rule="evenodd"/>
	<path id="Vector" d="M13.57 18.51L13.54 18.5C13.31 18.5 13.13 18.69 13.13 18.92C13.12 19.15 13.31 19.33 13.54 19.34L13.57 19.34C13.8 19.34 13.98 19.15 13.98 18.92C13.98 18.69 13.8 18.51 13.57 18.51Z" fill="#FFFFFF" fill-opacity="1.000000" fill-rule="nonzero"/>
	<path id="Vector" d="M13.57 18.51L13.54 18.5C13.31 18.5 13.13 18.69 13.13 18.92C13.12 19.15 13.31 19.33 13.54 19.34L13.57 19.34C13.8 19.34 13.98 19.15 13.98 18.92C13.98 18.69 13.8 18.51 13.57 18.51ZM13.46 18.72Q13.49 18.7 13.54 18.7L13.54 18.7L13.57 18.7Q13.61 18.7 13.65 18.72Q13.69 18.74 13.72 18.77Q13.75 18.8 13.77 18.84Q13.78 18.88 13.78 18.92Q13.78 18.96 13.77 19Q13.75 19.04 13.72 19.07Q13.69 19.1 13.65 19.12Q13.61 19.14 13.57 19.14L13.54 19.13Q13.49 19.13 13.46 19.12Q13.42 19.1 13.39 19.07Q13.36 19.04 13.34 19Q13.33 18.96 13.33 18.92Q13.33 18.87 13.34 18.83Q13.36 18.8 13.39 18.77Q13.42 18.74 13.46 18.72Z" fill="#FFFFFF" fill-opacity="1.000000" fill-rule="evenodd"/>
	<path id="Vector" d="M16.07 7.14C16.02 7.02 15.96 6.91 15.89 6.8L16.97 6.8C18.02 6.8 18.88 5.94 18.88 4.89C18.88 3.84 18.02 2.98 16.97 2.98L13.65 2.98C13.86 2.68 13.98 2.3 13.98 1.9C13.98 0.85 13.12 0 12.07 0L1.9 0C0.85 0 0 0.85 0 1.9C0 2.96 0.85 3.81 1.9 3.81L5.23 3.81C5.02 4.12 4.89 4.49 4.89 4.89C4.89 5.29 5.02 5.66 5.23 5.97L4.15 5.97C3.09 5.97 2.24 6.83 2.24 7.88C2.24 8.48 2.52 9.02 2.96 9.37C2.52 9.72 2.24 10.26 2.24 10.87C2.24 11.47 2.52 12.01 2.96 12.36C2.52 12.71 2.24 13.25 2.24 13.86C2.24 14.46 2.52 15 2.96 15.35C2.52 15.7 2.24 16.24 2.24 16.84C2.24 17.9 3.09 18.75 4.15 18.75L9.04 18.75C10.32 20.13 12.16 21 14.19 21C18.08 21 21.24 17.83 21.24 13.94C21.24 10.7 19.05 7.97 16.07 7.14ZM16.97 3.81C17.56 3.81 18.05 4.3 18.05 4.89C18.05 5.49 17.56 5.97 16.97 5.97L14.31 5.97L6.8 5.97C6.21 5.97 5.72 5.49 5.72 4.89C5.72 4.3 6.21 3.81 6.8 3.81L16.97 3.81ZM1.9 2.98C1.31 2.98 0.83 2.5 0.83 1.9C0.83 1.31 1.31 0.83 1.9 0.83L12.07 0.83C12.67 0.83 13.15 1.31 13.15 1.9C13.15 2.5 12.67 2.98 12.07 2.98L1.9 2.98ZM4.15 6.8L14.31 6.8C14.48 6.8 14.64 6.84 14.78 6.91C14.59 6.89 14.39 6.88 14.19 6.88C12.24 6.88 10.47 7.68 9.2 8.96L4.15 8.96C3.55 8.96 3.07 8.48 3.07 7.88C3.07 7.29 3.55 6.8 4.15 6.8ZM4.15 9.79L8.49 9.79C8.02 10.43 7.65 11.16 7.42 11.95L4.15 11.95C3.55 11.95 3.07 11.46 3.07 10.87C3.07 10.27 3.55 9.79 4.15 9.79ZM4.15 12.78L7.23 12.78C7.17 13.16 7.13 13.54 7.13 13.94C7.13 14.28 7.16 14.61 7.2 14.94L4.15 14.94C3.55 14.94 3.07 14.45 3.07 13.86C3.07 13.26 3.55 12.78 4.15 12.78ZM4.15 17.92C3.55 17.92 3.07 17.44 3.07 16.84C3.07 16.25 3.55 15.77 4.15 15.77L7.37 15.77C7.58 16.55 7.92 17.27 8.37 17.92L4.15 17.92ZM14.19 20.16C10.76 20.16 7.96 17.37 7.96 13.94C7.96 10.51 10.76 7.71 14.19 7.71C17.62 7.71 20.41 10.51 20.41 13.94C20.41 17.37 17.62 20.16 14.19 20.16Z" fill="#FFFFFF" fill-opacity="1.000000" fill-rule="nonzero"/>
	<path id="Vector" d="M16.01 7C16.03 7.05 16.05 7.09 16.07 7.14C19.05 7.97 21.24 10.7 21.24 13.94C21.24 17.83 18.08 21 14.19 21C12.16 21 10.32 20.13 9.04 18.75L4.15 18.75C3.09 18.75 2.24 17.9 2.24 16.84C2.24 16.31 2.45 15.83 2.81 15.49C2.86 15.44 2.91 15.39 2.96 15.35C2.91 15.31 2.86 15.26 2.81 15.22C2.45 14.87 2.24 14.39 2.24 13.86C2.24 13.32 2.45 12.84 2.81 12.5C2.86 12.45 2.91 12.4 2.96 12.36C2.91 12.32 2.86 12.28 2.81 12.23C2.45 11.88 2.24 11.4 2.24 10.87C2.24 10.34 2.45 9.86 2.81 9.51C2.86 9.46 2.91 9.42 2.96 9.37C2.91 9.33 2.86 9.29 2.81 9.24C2.45 8.89 2.24 8.41 2.24 7.88C2.24 6.83 3.09 5.97 4.15 5.97L5.23 5.97C5.18 5.91 5.14 5.84 5.11 5.77C4.97 5.51 4.89 5.21 4.89 4.89C4.89 4.58 4.97 4.28 5.11 4.01C5.14 3.94 5.18 3.88 5.23 3.81L1.9 3.81C0.85 3.81 0 2.96 0 1.9C0 0.85 0.85 0 1.9 0L12.07 0C13.12 0 13.98 0.85 13.98 1.9C13.98 2.22 13.9 2.52 13.77 2.78C13.73 2.85 13.69 2.92 13.65 2.98L16.97 2.98C18.02 2.98 18.88 3.84 18.88 4.89C18.88 5.94 18.02 6.8 16.97 6.8L15.89 6.8C15.93 6.87 15.97 6.93 16.01 7ZM16.97 6.6L15.51 6.6L15.72 6.91Q15.74 6.94 15.76 6.97Q15.83 7.09 15.89 7.22L15.93 7.31L16.02 7.33Q16.51 7.47 16.97 7.67Q17.52 7.92 18.03 8.26Q18.48 8.57 18.87 8.93Q19.27 9.31 19.62 9.76Q20 10.25 20.28 10.79Q20.5 11.22 20.67 11.69Q20.83 12.16 20.92 12.64Q21.04 13.28 21.04 13.94Q21.04 14.7 20.88 15.42Q20.75 16.02 20.5 16.61Q20.26 17.17 19.93 17.68Q19.54 18.27 19.03 18.78Q18.52 19.3 17.93 19.68Q17.42 20.01 16.85 20.26Q16.27 20.5 15.67 20.64Q14.94 20.8 14.19 20.8Q13.41 20.8 12.67 20.63Q12.03 20.48 11.42 20.21Q10.82 19.94 10.3 19.58Q9.69 19.16 9.18 18.62L9.12 18.55L4.15 18.55Q3.96 18.55 3.77 18.51Q3.62 18.48 3.48 18.42Q3.34 18.36 3.21 18.28Q3.07 18.18 2.94 18.05Q2.81 17.92 2.71 17.78Q2.63 17.65 2.57 17.51Q2.51 17.37 2.48 17.22Q2.44 17.03 2.44 16.84Q2.44 16.63 2.48 16.44Q2.53 16.26 2.61 16.09Q2.69 15.93 2.8 15.79Q2.92 15.63 3.08 15.51L3.28 15.35L3.08 15.19Q2.92 15.07 2.8 14.91Q2.69 14.77 2.61 14.61Q2.53 14.44 2.48 14.26Q2.44 14.07 2.44 13.86Q2.44 13.65 2.48 13.45Q2.53 13.27 2.61 13.1Q2.69 12.94 2.8 12.8Q2.92 12.65 3.08 12.52L3.28 12.36L3.08 12.21Q2.92 12.08 2.8 11.92Q2.69 11.79 2.61 11.62Q2.53 11.45 2.48 11.28Q2.44 11.08 2.44 10.87Q2.44 10.66 2.48 10.46Q2.53 10.28 2.61 10.11Q2.69 9.95 2.8 9.81Q2.92 9.66 3.08 9.53L3.28 9.37L3.08 9.22Q2.92 9.09 2.8 8.94Q2.69 8.8 2.61 8.63Q2.53 8.47 2.48 8.29Q2.44 8.09 2.44 7.88Q2.44 7.69 2.48 7.51Q2.51 7.36 2.57 7.22Q2.63 7.08 2.71 6.95Q2.81 6.8 2.94 6.67Q3.07 6.54 3.21 6.45Q3.34 6.37 3.48 6.31Q3.62 6.24 3.77 6.21Q3.96 6.17 4.15 6.17L5.61 6.17L5.39 5.86Q5.24 5.64 5.17 5.4Q5.09 5.16 5.09 4.89Q5.09 4.63 5.17 4.39Q5.24 4.15 5.39 3.93L5.61 3.61L1.9 3.61Q1.71 3.61 1.53 3.57Q1.38 3.54 1.24 3.48Q1.1 3.42 0.97 3.34Q0.82 3.24 0.7 3.11Q0.57 2.98 0.47 2.84Q0.39 2.71 0.33 2.57Q0.27 2.42 0.24 2.27Q0.2 2.09 0.2 1.9Q0.2 1.71 0.24 1.53Q0.27 1.38 0.33 1.24Q0.39 1.1 0.47 0.97Q0.57 0.82 0.7 0.7Q0.82 0.57 0.97 0.47Q1.1 0.39 1.24 0.33Q1.38 0.27 1.53 0.24Q1.71 0.19 1.9 0.19L12.07 0.19Q12.26 0.19 12.44 0.24Q12.59 0.27 12.74 0.33Q12.88 0.39 13 0.47Q13.15 0.57 13.28 0.7Q13.41 0.82 13.5 0.97Q13.59 1.1 13.65 1.24Q13.71 1.38 13.74 1.53Q13.78 1.71 13.78 1.9Q13.78 2.17 13.71 2.41Q13.63 2.65 13.48 2.87L13.27 3.18L16.97 3.18Q17.16 3.18 17.34 3.22Q17.49 3.26 17.63 3.32Q17.77 3.38 17.9 3.46Q18.05 3.56 18.18 3.68Q18.31 3.81 18.4 3.96Q18.48 4.09 18.54 4.23Q18.6 4.37 18.64 4.52Q18.68 4.7 18.68 4.89Q18.68 5.08 18.64 5.26Q18.6 5.41 18.54 5.56Q18.48 5.7 18.4 5.82Q18.31 5.97 18.18 6.1Q18.05 6.23 17.9 6.33Q17.77 6.41 17.63 6.47Q17.49 6.53 17.34 6.56Q17.16 6.6 16.97 6.6ZM0.65 1.63Q0.63 1.77 0.63 1.9Q0.63 2.04 0.65 2.18Q0.68 2.29 0.73 2.4Q0.77 2.51 0.83 2.61Q0.91 2.71 1 2.81Q1.09 2.9 1.2 2.97Q1.3 3.04 1.41 3.08Q1.52 3.13 1.63 3.15Q1.76 3.18 1.9 3.18L12.07 3.18Q12.21 3.18 12.34 3.15Q12.46 3.13 12.57 3.08Q12.68 3.04 12.77 2.97Q12.88 2.9 12.98 2.81Q13.07 2.71 13.14 2.61Q13.2 2.51 13.25 2.4Q13.3 2.29 13.32 2.18Q13.35 2.04 13.35 1.9Q13.35 1.77 13.32 1.63Q13.3 1.52 13.25 1.41Q13.2 1.3 13.14 1.2Q13.07 1.09 12.98 1Q12.88 0.91 12.77 0.83Q12.68 0.77 12.57 0.73Q12.46 0.68 12.34 0.65Q12.21 0.63 12.07 0.63L1.9 0.63Q1.76 0.63 1.63 0.65Q1.52 0.68 1.41 0.73Q1.3 0.77 1.2 0.83Q1.09 0.91 1 1Q0.91 1.09 0.83 1.2Q0.77 1.3 0.73 1.41Q0.68 1.52 0.65 1.63ZM1.9 2.98C1.31 2.98 0.83 2.5 0.83 1.9C0.83 1.31 1.31 0.83 1.9 0.83L12.07 0.83C12.67 0.83 13.15 1.31 13.15 1.9C13.15 2.5 12.67 2.98 12.07 2.98L1.9 2.98ZM18.22 5.16Q18.25 5.03 18.25 4.89Q18.25 4.75 18.22 4.62Q18.19 4.51 18.15 4.39Q18.1 4.29 18.04 4.19Q17.97 4.08 17.87 3.99Q17.78 3.89 17.67 3.82Q17.57 3.76 17.47 3.71Q17.36 3.67 17.24 3.64Q17.11 3.61 16.97 3.61L6.8 3.61Q6.66 3.61 6.53 3.64Q6.41 3.67 6.3 3.71Q6.2 3.76 6.1 3.82Q5.99 3.89 5.9 3.99Q5.8 4.08 5.73 4.19Q5.67 4.29 5.62 4.39Q5.58 4.51 5.55 4.62Q5.52 4.75 5.52 4.89Q5.52 5.03 5.55 5.16Q5.58 5.28 5.62 5.39Q5.67 5.5 5.73 5.59Q5.8 5.7 5.9 5.8Q5.99 5.89 6.1 5.96Q6.2 6.02 6.3 6.07Q6.41 6.12 6.53 6.14Q6.66 6.17 6.8 6.17L16.97 6.17Q17.11 6.17 17.24 6.14Q17.36 6.12 17.47 6.07Q17.57 6.02 17.67 5.96Q17.78 5.89 17.87 5.8Q17.97 5.7 18.04 5.59Q18.1 5.5 18.15 5.39Q18.19 5.28 18.22 5.16ZM16.97 3.81C17.56 3.81 18.05 4.3 18.05 4.89C18.05 5.49 17.56 5.97 16.97 5.97L6.8 5.97C6.21 5.97 5.72 5.49 5.72 4.89C5.72 4.3 6.21 3.81 6.8 3.81L16.97 3.81ZM14.58 6.63Q14.45 6.6 14.31 6.6L4.15 6.6Q4.01 6.6 3.87 6.63Q3.76 6.66 3.65 6.7Q3.54 6.75 3.44 6.81Q3.34 6.88 3.24 6.98Q3.15 7.07 3.08 7.18Q3.01 7.28 2.97 7.38Q2.92 7.49 2.89 7.61Q2.87 7.74 2.87 7.88Q2.87 8.02 2.89 8.15Q2.92 8.27 2.97 8.38Q3.01 8.49 3.08 8.58Q3.15 8.69 3.24 8.78Q3.34 8.88 3.44 8.95Q3.54 9.01 3.65 9.06Q3.76 9.11 3.87 9.13Q4.01 9.16 4.15 9.16L9.28 9.16L9.34 9.1Q9.85 8.59 10.44 8.2Q10.95 7.87 11.52 7.63Q12.1 7.38 12.71 7.24Q13.43 7.08 14.19 7.08Q14.47 7.08 14.77 7.11L14.87 6.73Q14.73 6.66 14.58 6.63ZM14.78 6.91C14.59 6.89 14.39 6.88 14.19 6.88C13.75 6.88 13.32 6.92 12.91 7C11.47 7.27 10.19 7.97 9.2 8.96L4.15 8.96C3.55 8.96 3.07 8.48 3.07 7.88C3.07 7.29 3.55 6.8 4.15 6.8L14.31 6.8C14.48 6.8 14.64 6.84 14.78 6.91ZM7.91 12.56Q7.76 13.23 7.76 13.94Q7.76 14.65 7.91 15.32Q8.04 15.89 8.27 16.44Q8.5 16.97 8.81 17.45Q9.17 18 9.65 18.48Q10.12 18.96 10.68 19.32Q11.15 19.63 11.69 19.86Q12.24 20.09 12.81 20.22Q13.48 20.37 14.19 20.37Q14.89 20.37 15.57 20.22Q16.14 20.09 16.69 19.86Q17.22 19.63 17.7 19.32Q18.25 18.96 18.73 18.48Q19.21 18 19.57 17.45Q19.88 16.97 20.11 16.44Q20.34 15.89 20.47 15.32Q20.61 14.65 20.61 13.94Q20.61 13.23 20.47 12.56Q20.34 11.99 20.11 11.44Q19.88 10.91 19.57 10.43Q19.21 9.87 18.73 9.4Q18.25 8.92 17.7 8.56Q17.22 8.25 16.69 8.02Q16.14 7.79 15.57 7.66Q14.89 7.51 14.19 7.51Q13.48 7.51 12.81 7.66Q12.24 7.79 11.69 8.02Q11.15 8.25 10.68 8.56Q10.12 8.92 9.65 9.4Q9.17 9.87 8.81 10.43Q8.5 10.91 8.27 11.44Q8.04 11.99 7.91 12.56ZM14.19 20.16C10.76 20.16 7.96 17.37 7.96 13.94C7.96 10.51 10.76 7.71 14.19 7.71C17.62 7.71 20.41 10.51 20.41 13.94C20.41 17.37 17.62 20.16 14.19 20.16ZM7.99 11.01Q8.27 10.43 8.65 9.91L8.88 9.59L4.15 9.59Q4.01 9.59 3.87 9.62Q3.76 9.64 3.65 9.69Q3.54 9.74 3.44 9.8Q3.34 9.87 3.24 9.96Q3.15 10.06 3.08 10.17Q3.01 10.26 2.97 10.37Q2.92 10.48 2.89 10.6Q2.87 10.73 2.87 10.87Q2.87 11.01 2.9 11.14Q2.92 11.26 2.97 11.37Q3.01 11.47 3.08 11.57Q3.15 11.68 3.24 11.77Q3.34 11.87 3.44 11.94Q3.54 12 3.65 12.05Q3.76 12.09 3.87 12.12Q4.01 12.15 4.15 12.15L7.57 12.15L7.61 12Q7.76 11.49 7.99 11.01ZM8.24 9.79L4.15 9.79C3.55 9.79 3.07 10.27 3.07 10.87C3.07 11.46 3.55 11.95 4.15 11.95L7.42 11.95C7.63 11.24 7.94 10.58 8.35 9.99C8.39 9.92 8.44 9.86 8.49 9.79L8.24 9.79ZM7.35 13.53Q7.37 13.17 7.43 12.81L7.47 12.58L4.15 12.58Q4.01 12.58 3.87 12.61Q3.76 12.63 3.65 12.68Q3.54 12.72 3.44 12.79Q3.34 12.86 3.24 12.95Q3.15 13.05 3.08 13.16Q3.01 13.25 2.97 13.36Q2.92 13.47 2.9 13.58Q2.87 13.72 2.87 13.86Q2.87 14 2.9 14.13Q2.92 14.24 2.97 14.35Q3.01 14.46 3.08 14.56Q3.15 14.67 3.24 14.76Q3.34 14.85 3.44 14.93Q3.54 14.99 3.65 15.03Q3.76 15.08 3.87 15.11Q4.01 15.14 4.15 15.14L7.43 15.14L7.4 14.91Q7.34 14.44 7.33 13.98Q7.33 13.96 7.33 13.94Q7.33 13.74 7.35 13.53ZM7.03 12.78L4.15 12.78C3.55 12.78 3.07 13.26 3.07 13.86C3.07 14.45 3.55 14.94 4.15 14.94L7.2 14.94C7.19 14.87 7.19 14.8 7.18 14.74C7.15 14.47 7.13 14.21 7.13 13.94C7.13 13.61 7.16 13.29 7.2 12.98C7.21 12.91 7.22 12.84 7.23 12.78L7.03 12.78ZM2.9 16.57Q2.87 16.71 2.87 16.84Q2.87 16.98 2.9 17.12Q2.92 17.23 2.97 17.34Q3.01 17.45 3.08 17.55Q3.15 17.65 3.24 17.75Q3.34 17.84 3.44 17.91Q3.54 17.98 3.65 18.02Q3.76 18.07 3.87 18.1Q4.01 18.12 4.15 18.12L8.75 18.12L8.53 17.81Q8.17 17.29 7.92 16.72Q7.71 16.23 7.57 15.71L7.53 15.57L4.15 15.57Q4.01 15.57 3.87 15.59Q3.76 15.62 3.65 15.67Q3.54 15.71 3.44 15.78Q3.34 15.85 3.24 15.94Q3.15 16.03 3.08 16.14Q3.01 16.24 2.97 16.35Q2.92 16.46 2.9 16.57ZM4.15 17.92C3.55 17.92 3.07 17.44 3.07 16.84C3.07 16.25 3.55 15.77 4.15 15.77L7.37 15.77C7.56 16.47 7.86 17.13 8.24 17.72C8.28 17.79 8.32 17.86 8.37 17.92L4.15 17.92Z" fill="#FFFFFF" fill-opacity="1.000000" fill-rule="evenodd"/>
</svg>
