<svg width="50.000000" height="41.000000" viewBox="0 0 50 41" fill="none" xmlns="http://www.w3.org/2000/svg" xmlns:xlink="http://www.w3.org/1999/xlink">
	<desc>
			Created with Pixso.
	</desc>
	<defs/>
	<path id="“" d="M32.47 0.81L27.44 7.59Q27.68 11.4 28.56 13.6Q29.44 15.8 30.66 16.97Q31.88 18.19 33.2 18.48Q34.47 18.77 35.64 18.77L36.66 18.77Q35.83 23.8 33.64 27.81Q33.44 28 32.56 29.27Q31.64 30.59 30.56 32.2Q29.44 33.81 28.56 35.38Q27.68 36.99 27.44 37.82Q27.63 39.11 28.37 39.84Q29.34 40.8 31.25 40.8Q31.64 40.8 32.17 40.7Q32.66 40.6 33.25 40.6Q38.28 35.57 41.4 31.37Q44.48 27.17 46.19 23.36Q47.85 19.6 48.48 16.38Q49.07 13.21 49.07 10.18Q49.07 7.59 47.99 5.59Q46.87 3.59 45.26 2.27Q44.36 1.56 43.36 1.02Q42.58 0.59 41.74 0.27Q39.84 -0.42 38.28 -0.42Q35.44 -0.42 32.47 0.81ZM4.44 0.81L-0.54 7.59Q-0.35 11.4 0.58 13.6Q1.46 15.8 2.68 16.97Q3.85 18.19 5.17 18.48Q6.44 18.77 7.66 18.77L8.64 18.77Q7.86 23.8 5.66 27.81Q5.46 28 4.58 29.27Q3.66 30.59 2.58 32.2Q1.46 33.81 0.58 35.38Q-0.35 36.99 -0.54 37.82Q-0.38 39.09 0.34 39.82Q1.31 40.8 3.27 40.8Q3.66 40.8 4.15 40.7Q4.63 40.6 5.27 40.6Q10.25 35.57 13.37 31.37Q16.45 27.17 18.16 23.36Q19.87 19.6 20.45 16.38Q21.04 13.21 21.04 10.18Q21.04 7.59 19.97 5.59Q18.84 3.59 17.28 2.27Q16.38 1.56 15.38 1.02Q14.6 0.59 13.76 0.27Q11.86 -0.42 10.25 -0.42Q7.47 -0.42 4.44 0.81Z" fill="#DBDBDB" fill-opacity="1.000000" fill-rule="evenodd"/>
</svg>
