<svg width="50.000000" height="41.000000" viewBox="0 0 50 41" fill="none" xmlns="http://www.w3.org/2000/svg" xmlns:xlink="http://www.w3.org/1999/xlink">
	<desc>
			Created with Pixso.
	</desc>
	<defs/>
	<path id="“" d="M16.59 39.18L21.62 32.4Q21.37 28.59 20.49 26.39Q19.61 24.19 18.39 23.02Q17.17 21.8 15.85 21.51Q14.58 21.22 13.41 21.22L12.39 21.22Q13.22 16.19 15.41 12.18Q15.61 11.99 16.49 10.72Q17.42 9.4 18.49 7.79Q19.61 6.18 20.49 4.61Q21.37 3 21.62 2.17Q21.43 0.88 20.68 0.15Q19.71 -0.81 17.81 -0.81Q17.42 -0.81 16.88 -0.71Q16.39 -0.61 15.81 -0.61Q10.78 4.42 7.65 8.62Q4.58 12.82 2.87 16.63Q1.21 20.39 0.57 23.61Q-0.01 26.78 -0.01 29.81Q-0.01 32.4 1.06 34.4Q2.18 36.4 3.79 37.72Q4.7 38.43 5.69 38.97Q6.47 39.4 7.31 39.72Q9.21 40.41 10.78 40.41Q13.61 40.41 16.59 39.18ZM44.61 39.18L49.59 32.4Q49.4 28.59 48.47 26.39Q47.59 24.19 46.37 23.02Q45.2 21.8 43.88 21.51Q42.61 21.22 41.39 21.22L40.41 21.22Q41.2 16.19 43.39 12.18Q43.59 11.99 44.47 10.72Q45.4 9.4 46.47 7.79Q47.59 6.18 48.47 4.61Q49.4 3 49.59 2.17Q49.43 0.9 48.71 0.17Q47.75 -0.81 45.79 -0.81Q45.4 -0.81 44.91 -0.71Q44.42 -0.61 43.78 -0.61Q38.8 4.42 35.68 8.62Q32.6 12.82 30.89 16.63Q29.18 20.39 28.6 23.61Q28.01 26.78 28.01 29.81Q28.01 32.4 29.09 34.4Q30.21 36.4 31.77 37.72Q32.68 38.43 33.67 38.97Q34.45 39.4 35.29 39.72Q37.19 40.41 38.8 40.41Q41.59 40.41 44.61 39.18Z" fill="#DBDBDB" fill-opacity="1.000000" fill-rule="evenodd"/>
</svg>
