<svg width="14.000000" height="14.000000" viewBox="0 0 14 14" fill="none" xmlns="http://www.w3.org/2000/svg" xmlns:xlink="http://www.w3.org/1999/xlink">
	<desc>
			Created with Pixso.
	</desc>
	<defs/>
	<path id="Vector" d="M11.66 1.25C11.66 0.92 11.4 0.66 11.08 0.66L9.33 0.66L9.33 -0.5L8.16 -0.5L8.16 0.66L6.41 0.66L6.41 -0.5L5.25 -0.5L5.25 0.66L3.5 0.66L3.5 -0.5L2.33 -0.5L2.33 0.66L0.58 0.66C0.26 0.66 0 0.92 0 1.25L0 2.41L11.66 2.41L11.66 1.25Z" fill="#FFBD54" fill-opacity="1.000000" fill-rule="nonzero"/>
	<path id="Vector" d="M9.32 6.08C9.7 5.97 10.1 5.91 10.5 5.91C10.89 5.91 11.28 5.97 11.66 6.08L11.66 3L0 3L0 10.58C0 10.9 0.26 11.16 0.58 11.16L6.58 11.16C5.94 9 7.16 6.73 9.32 6.08ZM8.16 4.16L9.33 4.16L9.33 5.33L8.16 5.33L8.16 4.16ZM5.25 4.16L6.41 4.16L6.41 5.33L5.25 5.33L5.25 4.16ZM3.5 10L2.33 10L2.33 8.83L3.5 8.83L3.5 10ZM3.5 7.66L2.33 7.66L2.33 6.5L3.5 6.5L3.5 7.66ZM3.5 5.33L2.33 5.33L2.33 4.16L3.5 4.16L3.5 5.33ZM5.25 6.5L6.41 6.5L6.41 7.66L5.25 7.66L5.25 6.5Z" fill="#FFBD54" fill-opacity="1.000000" fill-rule="nonzero"/>
	<path id="Vector" d="M10.5 6.5C8.56 6.5 7 8.06 7 10C7 11.93 8.56 13.5 10.5 13.5C12.43 13.5 14 11.93 14 10C13.99 8.06 12.43 6.5 10.5 6.5ZM10.91 10.41C10.75 10.56 10.52 10.62 10.31 10.55L8.56 9.97L8.93 8.86L10.34 9.32L11.83 7.83L12.66 8.65L10.91 10.41Z" fill="#FFBD54" fill-opacity="1.000000" fill-rule="nonzero"/>
</svg>
