<svg width="21.000000" height="21.000000" viewBox="0 0 21 21" fill="none" xmlns="http://www.w3.org/2000/svg" xmlns:xlink="http://www.w3.org/1999/xlink">
	<desc>
			Created with Pixso.
	</desc>
	<defs/>
	<path id="Vector" d="M6.7 12.31C6.4 12.93 6.27 13.44 6.26 13.48C6.22 13.66 6.29 13.85 6.45 13.95C6.54 14 8.6 15.25 10.32 14.54C10.46 14.48 10.59 14.42 10.72 14.36C9.26 13.99 7.89 13.22 6.7 12.31Z" fill="#78C0DE" fill-opacity="1.000000" fill-rule="nonzero"/>
	<path id="Vector" d="M6.73 6.74C6.74 6.75 6.89 6.87 7.08 7.06C8.68 5.92 10.55 5.07 12.51 5.07C12.95 5.07 13.38 5.1 13.82 5.15C13.6 4.75 13.22 4.33 12.62 3.93C11.45 3.14 9.92 3.74 8.73 4.49C7.6 5.2 6.73 6.06 6.7 6.1C6.52 6.28 6.53 6.58 6.73 6.74Z" fill="#78C0DE" fill-opacity="1.000000" fill-rule="nonzero"/>
	<path id="Vector" d="M5.51 11.31C5.33 11.14 5.06 10.88 4.9 10.69C4.46 10.2 4.46 9.46 4.9 8.96C5.01 8.84 5.24 8.6 5.51 8.35C5.04 8 4.46 7.45 3.92 6.63C3.77 6.41 3.45 6.38 3.26 6.57C2.61 7.21 2.26 7.99 2.28 8.7C2.31 9.45 2.31 10.21 2.28 10.96C2.26 11.67 2.61 12.44 3.26 13.09C3.45 13.28 3.77 13.25 3.92 13.02C4.46 12.21 5.04 11.66 5.51 11.31Z" fill="#78C0DE" fill-opacity="1.000000" fill-rule="nonzero"/>
	<path id="Vector" d="M15.34 13.08C14.04 11.57 14.03 8.1 15.34 6.59C15.36 6.57 15.35 6.58 15.54 6.38C14.53 6.09 13.51 5.94 12.51 5.94C10.3 5.94 8.14 7.19 6.49 8.63C6.07 8.99 5.71 9.35 5.54 9.54C5.39 9.7 5.39 9.95 5.54 10.12C5.91 10.53 6.67 11.23 7.49 11.83C8.75 12.74 10.2 13.47 11.73 13.67C11.73 13.66 12 13.71 12.54 13.72C13.53 13.72 14.54 13.57 15.53 13.29L15.34 13.08Z" fill="#78C0DE" fill-opacity="1.000000" fill-rule="nonzero"/>
	<path id="Vector" d="M19.84 10.81C20.04 10.55 20.23 10.22 20.25 9.89C20.3 9.16 19.5 8.42 18.91 7.98C18.18 7.44 17.3 7 16.46 6.69L15.99 7.16C14.97 8.36 14.98 11.34 16 12.51L16.42 12.99C17.58 12.56 19.07 11.78 19.84 10.81ZM16.7 9.47C16.63 9.25 16.75 9 16.99 8.93C17.21 8.85 17.48 8.99 17.53 9.26C17.56 9.36 17.54 9.48 17.47 9.58C17.26 9.89 16.8 9.81 16.7 9.47Z" fill="#78C0DE" fill-opacity="1.000000" fill-rule="nonzero"/>
</svg>
