<svg width="14.000000" height="13.000000" viewBox="0 0 14 13" fill="none" xmlns="http://www.w3.org/2000/svg" xmlns:xlink="http://www.w3.org/1999/xlink">
	<desc>
			Created with Pixso.
	</desc>
	<defs/>
	<path id="Vector" d="M13.71 6.39L7.34 0.14C7.3 0.09 7.24 0.06 7.18 0.03C7.12 0.01 7.06 0 7 0C6.93 0 6.87 0.01 6.81 0.03C6.75 0.06 6.69 0.09 6.65 0.14L0.29 6.39C0.1 6.57 0 6.82 0 7.08C0 7.61 0.44 8.05 0.98 8.05L1.65 8.05L1.65 12.51C1.65 12.78 1.87 13 2.15 13L6.01 13L6.01 9.59L7.74 9.59L7.74 13L11.84 13C12.12 13 12.34 12.78 12.34 12.51L12.34 8.05L13.01 8.05C13.27 8.05 13.52 7.95 13.71 7.76C14.09 7.38 14.09 6.77 13.71 6.39Z" fill="#FFBD54" fill-opacity="1.000000" fill-rule="nonzero"/>
</svg>
