<svg width="13.000000" height="13.000000" viewBox="0 0 13 13" fill="none" xmlns="http://www.w3.org/2000/svg" xmlns:xlink="http://www.w3.org/1999/xlink">
	<desc>
			Created with Pixso.
	</desc>
	<defs/>
	<path id="Vector" d="M12.76 10.18L9.79 7.48C9.65 7.35 9.47 7.29 9.28 7.29C9.09 7.3 8.91 7.38 8.77 7.51L7.03 9.31C6.61 9.23 5.76 8.96 4.89 8.1C4.02 7.23 3.76 6.38 3.68 5.96L5.48 4.21C5.61 4.08 5.69 3.9 5.7 3.71C5.7 3.52 5.64 3.34 5.51 3.2L2.81 0.23C2.68 0.09 2.51 0.01 2.32 0C2.13 -0.02 1.94 0.05 1.8 0.17L0.21 1.53C0.09 1.66 0.01 1.82 0 2C-0.01 2.18 -0.22 6.51 3.13 9.86C6.06 12.78 9.72 13 10.73 13C10.87 13 10.96 12.99 10.99 12.99C11.17 12.98 11.33 12.9 11.46 12.78L12.82 11.19C12.94 11.05 13.01 10.86 12.99 10.67C12.98 10.48 12.9 10.31 12.76 10.18Z" fill="#FFBD54" fill-opacity="1.000000" fill-rule="nonzero"/>
</svg>
